<?xml version="1.0" encoding="UTF-8" standalone="no"?>
<!-- Created with Inkscape (http://www.inkscape.org/) -->

<svg
   width="297mm"
   height="110mm"
   viewBox="0 0 297 110"
   version="1.1"
   id="svg5"
   xml:space="preserve"
   inkscape:version="1.2.2 (b0a8486541, 2022-12-01)"
   sodipodi:docname="spack-banner.svg"
   xmlns:inkscape="http://www.inkscape.org/namespaces/inkscape"
   xmlns:sodipodi="http://sodipodi.sourceforge.net/DTD/sodipodi-0.dtd"
   xmlns="http://www.w3.org/2000/svg"
   xmlns:svg="http://www.w3.org/2000/svg"><sodipodi:namedview
     id="namedview7"
     pagecolor="#ffffff"
     bordercolor="#000000"
     borderopacity="0.25"
     inkscape:showpageshadow="2"
     inkscape:pageopacity="0.0"
     inkscape:pagecheckerboard="0"
     inkscape:deskcolor="#d1d1d1"
     inkscape:document-units="mm"
     showgrid="false"
     inkscape:zoom="1.1893044"
     inkscape:cx="590.68141"
     inkscape:cy="288.82429"
     inkscape:window-width="2256"
     inkscape:window-height="1425"
     inkscape:window-x="0"
     inkscape:window-y="0"
     inkscape:window-maximized="1"
     inkscape:current-layer="g680" /><defs
     id="defs2" /><g
     inkscape:label="Layer 1"
     inkscape:groupmode="layer"
     id="layer1"><g
       id="g326"
       transform="matrix(0.26458333,0,0,0.26458333,7.3005508,10.311921)"><g
         id="g680"
         transform="translate(-14.458294,3.5373836)"><g
           id="g2089"
           transform="translate(-15.798728,1.3030671)"><rect
             x="101.78551"
             y="-564.5907"
             width="159.56094"
             height="84.312119"
             transform="rotate(90)"
             fill="#2f2e41"
             id="rect490"
             style="stroke-width:0.513146" /><rect
             x="465.79425"
             y="78.548294"
             width="113.28089"
             height="44.966465"
             fill="#3f3d56"
             id="rect492"
             style="stroke-width:0.43237" /><rect
             x="465.79425"
             y="128.7032"
             width="113.28089"
             height="44.966465"
             fill="#3f3d56"
             id="rect494"
             style="stroke-width:0.43237" /><rect
             x="465.79425"
             y="178.85808"
             width="113.28089"
             height="44.966465"
             fill="#3f3d56"
             id="rect496"
             style="stroke-width:0.43237" /><rect
             x="465.79425"
             y="97.614212"
             width="113.28089"
             height="6.9179177"
             fill="#f9a826"
             id="rect498"
             style="stroke-width:0.43237" /><rect
             x="465.79425"
             y="147.76912"
             width="113.28089"
             height="6.9179177"
             fill="#f9a826"
             id="rect500"
             style="stroke-width:0.43237" /><rect
             x="465.79425"
             y="197.924"
             width="113.28089"
             height="6.9179177"
             fill="#f9a826"
             id="rect502"
             style="stroke-width:0.43237" /><circle
             cx="557.02423"
             cy="85.033829"
             r="2.594219"
             fill="#f9a826"
             id="circle504"
             style="stroke-width:0.43237" /><circle
             cx="566.10406"
             cy="85.033829"
             r="2.594219"
             fill="#f9a826"
             id="circle506"
             style="stroke-width:0.43237" /><circle
             cx="575.18384"
             cy="85.033829"
             r="2.594219"
             fill="#f9a826"
             id="circle508"
             style="stroke-width:0.43237" /><circle
             cx="557.02423"
             cy="134.32405"
             r="2.594219"
             fill="#f9a826"
             id="circle510"
             style="stroke-width:0.43237" /><circle
             cx="566.10406"
             cy="134.32405"
             r="2.594219"
             fill="#f9a826"
             id="circle512"
             style="stroke-width:0.43237" /><circle
             cx="575.18384"
             cy="134.32405"
             r="2.594219"
             fill="#f9a826"
             id="circle514"
             style="stroke-width:0.43237" /><circle
             cx="557.02423"
             cy="183.61418"
             r="2.594219"
             fill="#f9a826"
             id="circle516"
             style="stroke-width:0.43237" /><circle
             cx="566.10406"
             cy="183.61418"
             r="2.594219"
             fill="#f9a826"
             id="circle518"
             style="stroke-width:0.43237" /><circle
             cx="575.18384"
             cy="183.61418"
             r="2.594219"
             fill="#f9a826"
             id="circle520"
             style="stroke-width:0.43237" /><rect
             y="273.2114"
             width="177.57841"
             height="0.3999514"
             fill="#3f3d56"
             id="rect522"
             x="436.19507"
             style="stroke-width:0.199975" /><rect
             y="378.7757"
             width="290.25473"
             height="0.65372682"
             fill="#3f3d56"
             id="rect522-9"
             x="-306.09766"
             style="stroke-width:0.326863"
             transform="rotate(-89.748831)" /><rect
             y="672.37"
             width="290.25473"
             height="0.65372682"
             fill="#3f3d56"
             id="rect522-9-7"
             x="-307.66815"
             style="stroke-width:0.326863"
             transform="rotate(-89.748831)" /><rect
             x="467.07416"
             y="228.75914"
             width="113.28089"
             height="44.966465"
             fill="#3f3d56"
             id="rect494-6"
             style="stroke-width:0.43237" /><rect
             x="467.07416"
             y="247.82506"
             width="113.28089"
             height="6.9179177"
             fill="#f9a826"
             id="rect500-7"
             style="stroke-width:0.43237" /><circle
             cx="558.30414"
             cy="234.3799"
             r="2.594219"
             fill="#f9a826"
             id="circle510-7"
             style="stroke-width:0.43237" /><circle
             cx="567.38397"
             cy="234.3799"
             r="2.594219"
             fill="#f9a826"
             id="circle512-5"
             style="stroke-width:0.43237" /><circle
             cx="576.46375"
             cy="234.3799"
             r="2.594219"
             fill="#f9a826"
             id="circle514-9"
             style="stroke-width:0.43237" /><g
             id="g1193"
             transform="matrix(0.40136602,0,0,0.40136602,83.730545,44.589826)"><path
               d="m 889,450 a 287.86052,287.86052 0 0 1 -68.09,186.34 c -1.6,1.9 -3.23,3.77 -4.88995,5.63 a 290.58834,290.58834 0 0 1 -67.49,55.99 q -8.67,5.205 -17.72,9.81 c -0.61,0.31 -1.23,0.62 -1.84,0.92 -0.73,0.37 -1.47,0.73 -2.21,1.09 A 286.15918,286.15918 0 0 1 679.24,728 q -2.55,0.72 -5.11,1.4 a 288.58782,288.58782 0 0 1 -65.84,9.49 c -1.16,0.03 -2.3,0.05 -3.4,0.07 -0.39,0.01 -0.77,0.02 -1.15,0.02 -1.25,0.01 -2.49,0.02 -3.74,0.02 a 289.27116,289.27116 0 0 1 -69.54,-8.43 q -3.42,-0.84 -6.81,-1.77 a 285.47262,285.47262 0 0 1 -34.97,-12.03 q -9,-3.75 -17.68,-8.09 c -1.31,-0.66 -2.62,-1.32 -3.91,-2 -0.55,-0.27 -1.09,-0.56 -1.63,-0.84 a 290.458,290.458 0 0 1 -81.65,-64.06 c -1.6,-1.79 -3.17,-3.61 -4.72,-5.44 a 289.02532,289.02532 0 0 1 49.59,-419.1 c 1.64,-1.21 3.29,-2.41 4.96,-3.58 q 0.49494,-0.345 0.99,-0.69 a 286.75277,286.75277 0 0 1 97.1,-43.85 c 1.98,-0.49 3.96,-0.95 5.96,-1.38 a 291.79785,291.79785 0 0 1 114.68,-2.01 c 1.99,0.37 3.98,0.75 5.96,1.16 a 287.28078,287.28078 0 0 1 97.1,39.43 c 0.66,0.42 1.32,0.84 1.98,1.28 1.33,0.86 2.66,1.74 3.97,2.63 A 288.68578,288.68578 0 0 1 889,450 Z"
               transform="translate(-311,-161)"
               fill="#f2f2f2"
               id="path872" /><path
               d="m 527,599.51 -92.37,8.2 -0.99,0.09 V 213.66 q 0.49494,-0.345 0.99,-0.69 a 288.32258,288.32258 0 0 1 62.01,-32.94 l 4.72,65.1 0.43,5.96 4.67,64.56 1.44,19.86 18.93,261.7 z"
               transform="translate(-311,-161)"
               fill="#cccccc"
               id="path874" /><path
               d="m 755.43,206.32 c 0.66,0.42 1.32,0.84 1.98,1.28 v 400.2 l -1.98,-0.18 -91.37,-8.11 0.17,-2.3 18.93,-261.7 1.44,-19.86 4.67,-64.56 0.43,-5.96 4.95,-68.27 a 287.68677,287.68677 0 0 1 60.78,29.46 z"
               transform="translate(-311,-161)"
               fill="#cccccc"
               id="path876" /><path
               d="m 755.43,206.32 v 406.94 c 0,7.81 -5.38,14.16 -12,14.16 h -296.8 c -5.48,0 -10.13,-4.36 -11.54,-10.31 a 16.10772,16.10772 0 0 1 -0.46,-3.85 V 212.97 q -0.495,0.34506 -0.99,0.69 c -1.67,1.17 -3.32,2.37 -4.96,3.58 v 396.02 a 22.91864,22.91864 0 0 0 6.18,16 17.05993,17.05993 0 0 0 7.78,4.66 15.11793,15.11793 0 0 0 3.99,0.53 h 296.8 a 15.24855,15.24855 0 0 0 4,-0.53 c 7.98,-2.15 13.95,-10.59 13.95,-20.66 V 210.23 c -1.31,-0.89 -2.64,-1.77 -3.97,-2.63 -0.66,-0.44 -1.32,-0.86 -1.98,-1.28 z"
               transform="translate(-311,-161)"
               fill="#cccccc"
               id="path878" /><rect
               x="120.65518"
               y="84.133987"
               width="326.75223"
               height="5.9590101"
               fill="#cccccc"
               id="rect880" /><path
               d="m 531.73,169.12 c 1.98,-0.49 3.96,-0.95 5.96,-1.38 v 161.81 h -5.96 z"
               transform="translate(-311,-161)"
               fill="#cccccc"
               id="path882" /><path
               d="m 652.37,165.73 c 1.99,0.37 3.98,0.75 5.96,1.16 v 162.66 h -5.96 z"
               transform="translate(-311,-161)"
               fill="#cccccc"
               id="path884" /><path
               d="M 795.65,597.21 H 404.34 a 26.82,26.82 0 0 0 0,53.64 h 391.31 a 26.76039,26.76039 0 0 0 20.12,-9.11 27.096,27.096 0 0 0 3.02,-4.18 25.54045,25.54045 0 0 0 1.75,-3.56 26.80329,26.80329 0 0 0 -24.89,-36.79 z"
               transform="translate(-311,-161)"
               fill="#cccccc"
               id="path886" /><rect
               x="122.64151"
               y="154.6489"
               width="324.7659"
               height="19.863359"
               fill="#cccccc"
               id="rect888" /><path
               d="m 282.04494,148.6899 h 5.959 a 10.92484,10.92484 0 0 1 10.92484,10.92484 v 0 h -27.8087 v 0 a 10.92484,10.92484 0 0 1 10.92484,-10.92484 z"
               fill="#cccccc"
               id="path890" /><path
               d="m 820.91,636.34 a 289.004,289.004 0 0 1 -28.12,28.95 H 407.21 a 289.004,289.004 0 0 1 -28.12,-28.95 z"
               transform="translate(-311,-161)"
               fill="#3f3d56"
               id="path892" /><path
               d="m 632.28,536.07 h -64.92 a 3.17486,3.17486 0 0 0 -1.03,0.16 3.448,3.448 0 0 0 -2.43,3.3 v 102.56 h 71.85 V 539.53 a 3.46328,3.46328 0 0 0 -3.47,-3.46 z m -24.57,50.6 a 7.53127,7.53127 0 0 1 -1.56,4.6 7.665,7.665 0 0 1 -13.78,-4.6 v -11.9 a 7.67033,7.67033 0 0 1 15.34,0 z"
               transform="translate(-311,-161)"
               fill="#2f2e41"
               id="path894" /><path
               d="m 563.68,638.81 v 9.89 a 1.93971,1.93971 0 0 0 1.93,1.94 h 68.43 a 1.94622,1.94622 0 0 0 1.93,-1.94 v -9.89 z"
               transform="translate(-311,-161)"
               fill="#3f3d56"
               id="path896" /><path
               d="m 739.78,376.02 h -277.5 a 9.01147,9.01147 0 0 0 -9,8.99 v 187.26 a 9.0071,9.0071 0 0 0 9,9 h 277.5 a 9.00714,9.00714 0 0 0 9,-9 V 385.01 a 9.01151,9.01151 0 0 0 -9,-8.99 z"
               transform="translate(-311,-161)"
               fill="#3f3d56"
               id="path898" /><path
               d="M 737.46,382.52 H 464.59 a 4.82046,4.82046 0 0 0 -4.81,4.82 v 182.62 a 4.81829,4.81829 0 0 0 4.81,4.81 h 272.87 a 4.81833,4.81833 0 0 0 4.81,-4.81 V 387.34 a 4.8205,4.8205 0 0 0 -4.81,-4.82 z"
               transform="translate(-311,-161)"
               fill="#5d75f3"
               id="path900" /><path
               d="m 687.24,650.48 -2.52,-11.97 a 2.99238,2.99238 0 0 0 -1.86,-2.17 2.89431,2.89431 0 0 0 -1.06,-0.2 H 524.49 a 2.89455,2.89455 0 0 0 -1.06,0.2 2.99262,2.99262 0 0 0 -1.86,2.17 l -2.52,11.97 a 2.98724,2.98724 0 0 0 2.92,3.6 h 162.34 a 2.94839,2.94839 0 0 0 2.32,-1.11 2.98494,2.98494 0 0 0 0.61,-2.49 z"
               transform="translate(-311,-161)"
               fill="#2f2e41"
               id="path902" /><rect
               x="214.64301"
               y="477.29578"
               width="5"
               height="3"
               rx="0.48819"
               fill="#3f3d56"
               id="rect904" /><rect
               x="224.64301"
               y="477.29578"
               width="5"
               height="3"
               rx="0.48819"
               fill="#3f3d56"
               id="rect906" /><rect
               x="234.64301"
               y="477.29578"
               width="5"
               height="3"
               rx="0.48819"
               fill="#3f3d56"
               id="rect908" /><rect
               x="244.64301"
               y="477.29578"
               width="5"
               height="3"
               rx="0.48819"
               fill="#3f3d56"
               id="rect910" /><rect
               x="254.64301"
               y="477.29578"
               width="5"
               height="3"
               rx="0.48819"
               fill="#3f3d56"
               id="rect912" /><rect
               x="264.64301"
               y="477.29578"
               width="5"
               height="3"
               rx="0.48819"
               fill="#3f3d56"
               id="rect914" /><rect
               x="274.64301"
               y="477.29578"
               width="5"
               height="3"
               rx="0.48819"
               fill="#3f3d56"
               id="rect916" /><rect
               x="284.64301"
               y="477.29578"
               width="5"
               height="3"
               rx="0.48819"
               fill="#3f3d56"
               id="rect918" /><rect
               x="294.64301"
               y="477.29578"
               width="5"
               height="3"
               rx="0.48819"
               fill="#3f3d56"
               id="rect920" /><rect
               x="304.64301"
               y="477.29578"
               width="5"
               height="3"
               rx="0.48819"
               fill="#3f3d56"
               id="rect922" /><rect
               x="314.64301"
               y="477.29578"
               width="5"
               height="3"
               rx="0.48819"
               fill="#3f3d56"
               id="rect924" /><rect
               x="324.64301"
               y="477.29578"
               width="5"
               height="3"
               rx="0.48819"
               fill="#3f3d56"
               id="rect926" /><rect
               x="334.64301"
               y="477.29578"
               width="5"
               height="3"
               rx="0.48819"
               fill="#3f3d56"
               id="rect928" /><rect
               x="344.64301"
               y="477.29578"
               width="5"
               height="3"
               rx="0.48819"
               fill="#3f3d56"
               id="rect930" /><rect
               x="354.64301"
               y="477.29578"
               width="5"
               height="3"
               rx="0.48819"
               fill="#3f3d56"
               id="rect932" /><rect
               x="364.64301"
               y="477.29578"
               width="5"
               height="3"
               rx="0.48819"
               fill="#3f3d56"
               id="rect934" /><rect
               x="214.52484"
               y="482.29578"
               width="5"
               height="3"
               rx="0.48819"
               fill="#3f3d56"
               id="rect936" /><rect
               x="224.52484"
               y="482.29578"
               width="5"
               height="3"
               rx="0.48819"
               fill="#3f3d56"
               id="rect938" /><rect
               x="234.52484"
               y="482.29578"
               width="5"
               height="3"
               rx="0.48819"
               fill="#3f3d56"
               id="rect940" /><rect
               x="244.52484"
               y="482.29578"
               width="5"
               height="3"
               rx="0.48819"
               fill="#3f3d56"
               id="rect942" /><rect
               x="254.52484"
               y="482.29578"
               width="5"
               height="3"
               rx="0.48819"
               fill="#3f3d56"
               id="rect944" /><rect
               x="264.52484"
               y="482.29578"
               width="5"
               height="3"
               rx="0.48819"
               fill="#3f3d56"
               id="rect946" /><rect
               x="274.52484"
               y="482.29578"
               width="5"
               height="3"
               rx="0.48819"
               fill="#3f3d56"
               id="rect948" /><rect
               x="284.52484"
               y="482.29578"
               width="5"
               height="3"
               rx="0.48819"
               fill="#3f3d56"
               id="rect950" /><rect
               x="294.52484"
               y="482.29578"
               width="5"
               height="3"
               rx="0.48819"
               fill="#3f3d56"
               id="rect952" /><rect
               x="304.52484"
               y="482.29578"
               width="5"
               height="3"
               rx="0.48819"
               fill="#3f3d56"
               id="rect954" /><rect
               x="314.52484"
               y="482.29578"
               width="5"
               height="3"
               rx="0.48819"
               fill="#3f3d56"
               id="rect956" /><rect
               x="324.52484"
               y="482.29578"
               width="5"
               height="3"
               rx="0.48819"
               fill="#3f3d56"
               id="rect958" /><rect
               x="334.52484"
               y="482.29578"
               width="5"
               height="3"
               rx="0.48819"
               fill="#3f3d56"
               id="rect960" /><rect
               x="344.52484"
               y="482.29578"
               width="5"
               height="3"
               rx="0.48819"
               fill="#3f3d56"
               id="rect962" /><rect
               x="354.52484"
               y="482.29578"
               width="5"
               height="3"
               rx="0.48819"
               fill="#3f3d56"
               id="rect964" /><rect
               x="364.52484"
               y="482.29578"
               width="5"
               height="3"
               rx="0.48819"
               fill="#3f3d56"
               id="rect966" /><rect
               x="262.52484"
               y="488.29578"
               width="40"
               height="3"
               rx="0.48819"
               fill="#3f3d56"
               id="rect968" /><path
               d="M 723.74813,407.67669 H 468.42477 a 1.01559,1.01559 0 0 1 0,-2.03069 h 255.32336 a 1.01559,1.01559 0 0 1 0,2.03069 z"
               transform="translate(-311,-161)"
               fill="#3f3d56"
               id="path970" /><ellipse
               cx="174.80496"
               cy="233.3788"
               rx="5.9504299"
               ry="6.0830402"
               fill="#3f3d56"
               id="ellipse972" /><ellipse
               cx="195.36098"
               cy="233.3788"
               rx="5.9504299"
               ry="6.0830402"
               fill="#3f3d56"
               id="ellipse974" /><ellipse
               cx="215.91701"
               cy="233.3788"
               rx="5.9504299"
               ry="6.0830402"
               fill="#3f3d56"
               id="ellipse976" /><path
               d="m 711.37,389.8 h -14.6 a 1.1053,1.1053 0 0 0 0,2.21 h 14.6 a 1.10511,1.10511 0 0 0 0,-2.21 z"
               transform="translate(-311,-161)"
               fill="#3f3d56"
               id="path978" /><path
               d="m 711.37,393.95 h -14.6 a 1.10527,1.10527 0 0 0 0,2.21 h 14.6 a 1.10508,1.10508 0 0 0 0,-2.21 z"
               transform="translate(-311,-161)"
               fill="#3f3d56"
               id="path980" /><path
               d="m 711.37,398.1 h -14.6 a 1.1053,1.1053 0 0 0 0,2.21 h 14.6 a 1.10511,1.10511 0 0 0 0,-2.21 z"
               transform="translate(-311,-161)"
               fill="#3f3d56"
               id="path982" /><rect
               x="171.31412"
               y="270.27328"
               width="11.00609"
               height="5.7599201"
               rx="2.8799601"
               fill="#e6e6e6"
               id="rect984" /><rect
               x="231.31412"
               y="270.27328"
               width="11.00609"
               height="5.7599201"
               rx="2.8799601"
               fill="#e6e6e6"
               id="rect986" /><rect
               x="248.31412"
               y="270.27328"
               width="11.00609"
               height="5.7599201"
               rx="2.8799601"
               fill="#e6e6e6"
               id="rect988" /><rect
               x="187.63429"
               y="269.79312"
               width="38.3657"
               height="5.7599201"
               rx="2.8799601"
               fill="#e6e6e6"
               id="rect990" /><rect
               x="267.63431"
               y="269.79312"
               width="38.3657"
               height="5.7599201"
               rx="2.8799601"
               fill="#e6e6e6"
               id="rect992" /><rect
               x="187.31412"
               y="283.27328"
               width="11.00609"
               height="5.7599201"
               rx="2.8799601"
               fill="#e6e6e6"
               id="rect994" /><rect
               x="247.31412"
               y="283.27328"
               width="11.00609"
               height="5.7599201"
               rx="2.8799601"
               fill="#e6e6e6"
               id="rect996" /><rect
               x="264.31412"
               y="283.27328"
               width="11.00609"
               height="5.7599201"
               rx="2.8799601"
               fill="#e6e6e6"
               id="rect998" /><rect
               x="203.63429"
               y="282.79312"
               width="38.3657"
               height="5.7599201"
               rx="2.8799601"
               fill="#e6e6e6"
               id="rect1000" /><rect
               x="283.63431"
               y="282.79312"
               width="38.3657"
               height="5.7599201"
               rx="2.8799601"
               fill="#e6e6e6"
               id="rect1002" /><rect
               x="203.31412"
               y="296.27328"
               width="11.00609"
               height="5.7599201"
               rx="2.8799601"
               fill="#e6e6e6"
               id="rect1004" /><rect
               x="263.31412"
               y="296.27328"
               width="11.00609"
               height="5.7599201"
               rx="2.8799601"
               fill="#e6e6e6"
               id="rect1006" /><rect
               x="280.31412"
               y="296.27328"
               width="11.00609"
               height="5.7599201"
               rx="2.8799601"
               fill="#e6e6e6"
               id="rect1008" /><rect
               x="219.63429"
               y="295.79312"
               width="38.3657"
               height="5.7599201"
               rx="2.8799601"
               fill="#e6e6e6"
               id="rect1010" /><rect
               x="299.63431"
               y="295.79312"
               width="38.3657"
               height="5.7599201"
               rx="2.8799601"
               fill="#e6e6e6"
               id="rect1012" /><rect
               x="219.31412"
               y="309.27328"
               width="11.00609"
               height="5.7599201"
               rx="2.8799601"
               fill="#e6e6e6"
               id="rect1014" /><rect
               x="279.31412"
               y="309.27328"
               width="11.00609"
               height="5.7599201"
               rx="2.8799601"
               fill="#e6e6e6"
               id="rect1016" /><rect
               x="296.31412"
               y="309.27328"
               width="11.00609"
               height="5.7599201"
               rx="2.8799601"
               fill="#e6e6e6"
               id="rect1018" /><rect
               x="235.63429"
               y="308.79312"
               width="38.3657"
               height="5.7599201"
               rx="2.8799601"
               fill="#e6e6e6"
               id="rect1020" /><rect
               x="231.31412"
               y="360.9668"
               width="11.00609"
               height="5.7599201"
               rx="2.8799601"
               fill="#e6e6e6"
               id="rect1022" /><rect
               x="248.31412"
               y="360.9668"
               width="11.00609"
               height="5.7599201"
               rx="2.8799601"
               fill="#e6e6e6"
               id="rect1024" /><rect
               x="267.63431"
               y="361.44696"
               width="38.3657"
               height="5.7599201"
               rx="2.8799601"
               fill="#e6e6e6"
               id="rect1026" /><rect
               x="171.31412"
               y="360.9668"
               width="11.00609"
               height="5.7599201"
               rx="2.8799601"
               fill="#e6e6e6"
               id="rect1028" /><rect
               x="187.63429"
               y="361.44696"
               width="38.3657"
               height="5.7599201"
               rx="2.8799601"
               fill="#e6e6e6"
               id="rect1030" /><rect
               x="187.31412"
               y="347.9668"
               width="11.00609"
               height="5.7599201"
               rx="2.8799601"
               fill="#e6e6e6"
               id="rect1032" /><rect
               x="247.31412"
               y="347.9668"
               width="11.00609"
               height="5.7599201"
               rx="2.8799601"
               fill="#e6e6e6"
               id="rect1034" /><rect
               x="264.31412"
               y="347.9668"
               width="11.00609"
               height="5.7599201"
               rx="2.8799601"
               fill="#e6e6e6"
               id="rect1036" /><rect
               x="203.63429"
               y="348.44696"
               width="38.3657"
               height="5.7599201"
               rx="2.8799601"
               fill="#e6e6e6"
               id="rect1038" /><rect
               x="203.31412"
               y="334.9668"
               width="11.00609"
               height="5.7599201"
               rx="2.8799601"
               fill="#e6e6e6"
               id="rect1040" /><rect
               x="263.31412"
               y="334.9668"
               width="11.00609"
               height="5.7599201"
               rx="2.8799601"
               fill="#e6e6e6"
               id="rect1042" /><rect
               x="280.31412"
               y="334.9668"
               width="11.00609"
               height="5.7599201"
               rx="2.8799601"
               fill="#e6e6e6"
               id="rect1044" /><rect
               x="219.63429"
               y="335.44696"
               width="38.3657"
               height="5.7599201"
               rx="2.8799601"
               fill="#e6e6e6"
               id="rect1046" /><rect
               x="219.31412"
               y="321.9668"
               width="11.00609"
               height="5.7599201"
               rx="2.8799601"
               fill="#e6e6e6"
               id="rect1048" /><rect
               x="279.31412"
               y="321.9668"
               width="11.00609"
               height="5.7599201"
               rx="2.8799601"
               fill="#e6e6e6"
               id="rect1050" /><rect
               x="296.31412"
               y="321.9668"
               width="11.00609"
               height="5.7599201"
               rx="2.8799601"
               fill="#e6e6e6"
               id="rect1052" /><rect
               x="235.63429"
               y="322.44696"
               width="38.3657"
               height="5.7599201"
               rx="2.8799601"
               fill="#e6e6e6"
               id="rect1054" /><path
               d="m 726.81,709.77 c -0.61,0.31 -1.23,0.62 -1.84,0.92 -15.8,7.9 -28.43994,12.39 -45.73,17.31 -1.46,-16.3 -2.87,-44.95 -4.24,-62.71 -0.36,-4.61 -0.72,-8.48 -1.07,-11.21 a 15.1823,15.1823 0 0 0 -0.88,-4.25 l 0.06,4.25 0.15,11.21 0.87,64.11 a 288.58782,288.58782 0 0 1 -65.84,9.49 c -1.16,0.03 -2.3,0.05 -3.4,0.07 -0.39,0.01 -0.77,0.02 -1.15,0.02 -1.25,0.01 -2.49,0.02 -3.74,0.02 a 289.27116,289.27116 0 0 1 -69.54,-8.43 c 0.49,-16.13 0.98,-44.46 1.45,-65.28 0.1,-4.07 0.19,-7.86 0.29,-11.21 0.19,-7.16 0.39,-12.32 0.58,-14.05 a 4.36108,4.36108 0 0 0 -0.39,0.97 97.15388,97.15388 0 0 0 -1.89,13.08 c -0.35,3.35 -0.7,7.14 -1.05,11.21 -1.86,21.63 -3.8,51.04 -5.8,63.51 a 285.47262,285.47262 0 0 1 -34.97,-12.03 q -9,-3.75 -17.68,-8.09 c 1.1,-7.2 2.25,-15.27 3.43,-23.64 0.92,-6.49 1.87,-13.16 2.84,-19.75 1.5,-10.18 3.04,-20.16 4.6,-28.95 2.28,-12.84 4.62,-23.16 6.94,-27.9 2.2,-4.5 4.4,-8.94 6.53,-13.19 0.74,-1.49 1.48,-2.96 2.2,-4.39 0.17,-0.34 0.34,-0.67 0.51,-1 1.53,-3.01 3.01,-5.89 4.42,-8.59 1.21,-2.31 2.36005,-4.49 3.45,-6.5 2.64,-4.88 4.88,-8.77 6.54,-11.23 a 55.25656,55.25656 0 0 1 29.28,-22.21 l 0.3,-0.08 0.21,0.09 20.45,-6.28 2.99,-0.92 2.01,-0.62 7.08,-5.39 3.85,-2.93 3.61,-2.75 7.06,-5.37 43.71,2.69 8.51,20.49 19.06,6.97 0.33,-0.15 0.29,-0.12 0.3,0.08 a 55.306,55.306 0 0 1 29.28,22.21 c 0.93994,1.41 2.08,3.27 3.37,5.52 1.1,1.91 2.3,4.09 3.6,6.5 1.85,3.43005 3.87,7.30005 6.01,11.49 0.47,0.92 0.95,1.86 1.43,2.81 q 1.335,2.63993 2.71,5.38995 c 2.13,4.25 4.33,8.69 6.53,13.2 1.91,3.91 3.84,11.95 5.74,22.18 1.57,8.5 3.13,18.52 4.64,28.95 1.98,13.52 -0.13,29.71 1.66,42.15 0.11,0.79005 0.23,1.56005 0.34,2.33005 z"
               transform="translate(-311,-161)"
               fill="#3f3d56"
               id="path1056" /><circle
               cx="289.61505"
               cy="288.88824"
               r="50.836449"
               fill="#a0616a"
               id="circle1058" /><path
               d="m 684.45,382.52 a 26.60846,26.60846 0 0 0 -3.97,-6.5 c -7.72,-9.43 -21.76,-13.58 -36.17,-2.42 a 15.27875,15.27875 0 0 0 -8.35,0.48 12.91024,12.91024 0 0 0 -3.52,1.94 15.97041,15.97041 0 0 0 -4.94,6.5 15.52156,15.52156 0 0 0 -1.1,4.23 50.56537,50.56537 0 0 0 -11.23,-4.23 60.33992,60.33992 0 0 0 -29.13,0 36.54359,36.54359 0 0 0 -8.78,3.48 c -4.68,2.7 -7.37,6.11 -7.85,9.9 -6.75,0.38 -13.77,3.93 -19,9.75 -0.59,0.65 -1.16,1.33 -1.69,2.03 A 32.70853,32.70853 0 0 0 542,427.73 V 429 h 1.27 a 26.87038,26.87038 0 0 1 10.15,1.98 27.58525,27.58525 0 0 1 5.89,3.25 28.764,28.764 0 0 1 3.37,2.8 33.48321,33.48321 0 0 1 6.12,8.05 37.4595,37.4595 0 0 1 4.08,24.71 36.19955,36.19955 0 0 1 -1.52,5.76 37.58443,37.58443 0 0 1 -3.71,7.63 c -0.06,0.09 -0.11,0.18 -0.17,0.27 -0.67,1.07 -1.31,2.16 -1.91,3.26 -0.45,0.82 -0.87,1.66 -1.26,2.5 a 51.95669,51.95669 0 0 0 -2.88,7.24 53.58646,53.58646 0 0 0 -2.44,13.54 c -0.07,1.22 -0.09,2.44 -0.05,3.66 a 51.97943,51.97943 0 0 0 1.03,9.36005 c 0.09,0.42 0.18005,0.83 0.27,1.25 l 0.73,3.19 1.73,7.61 1.2,5.24 1.11,4.86 1.64,-2.35 c 0.56,-0.8 1.97,-3.26 3.86,-6.74 1.25,-2.27 2.7,-4.98 4.27,-7.94 2.18994,-4.15 4.59,-8.78 6.93994,-13.4 0.95,-1.87 1.89,-3.73 2.80005,-5.55 1.72,-3.45 3.34,-6.78 4.73,-9.74 1.28,-2.73 2.37,-5.15 3.18,-7.09 0.25,1.27 0.46,2.56 0.62,3.86 0.18,1.32 0.31,2.66 0.38,4 0.02,0.2 0.03,0.41 0.04,0.61005 l 0.04,0.82 0.01,0.24 1.06,0.14 a 93.02194,93.02194 0 0 0 18.4,0.14 h 0.01 a 74.86185,74.86185 0 0 0 23.56,-5.71 49.25718,49.25718 0 0 0 11.8,-7.24 41.3,41.3 0 0 0 4.66,-4.52 c 0.36,-0.41 0.71,-0.82 1.05,-1.24 a 41.12455,41.12455 0 0 0 5.05,-7.9 41.80164,41.80164 0 0 0 2.34,-5.76 c 3.84,-11.63 3.62,-26.14 -0.66,-43.38 a 9.923,9.923 0 0 0 3.27,-1.26 c 3.14,-1.88995 5.32,-5.63995 6,-10.22 l 1.08,0.29 a 30.104,30.104 0 0 0 10.01,-7.54 24.11545,24.11545 0 0 0 1.54,-2.03 C 687.58,398.45 687.62,389.81 684.45,382.52 Z"
               transform="translate(-311,-161)"
               fill="#2f2e41"
               id="path1060" /><polygon
               points="206.32,475.296 214.817,442.504 222.32,470.8 "
               opacity="0.2"
               id="polygon1062" /><path
               d="m 743.43,614.93 c -3.04,41.88 0.11,60.32 -16.67,94.85 A 286.15918,286.15918 0 0 1 679.24,728 q -2.55,0.72 -5.11,1.4 a 288.58782,288.58782 0 0 1 -65.84,9.49 c -1.16,0.03 -2.3,0.05 -3.4,0.07 -0.39,0.01 -0.77,0.02 -1.15,0.02 -1.25,0.01 -2.49,0.02 -3.74,0.02 a 289.27116,289.27116 0 0 1 -69.54,-8.43 q -3.42,-0.84 -6.81,-1.77 a 285.47262,285.47262 0 0 1 -34.97,-12.03 q -9,-3.75 -17.68,-8.09 c -1.31,-0.66 -2.62,-1.32 -3.91,-2 -6.63,-11.66 -10.4,-25.84 -10.48,-42.88 4.59,-29.36 276.68,-74.19 286.82,-48.87 z"
               transform="translate(-311,-161)"
               fill="#2f2e41"
               id="path1064" /><path
               d="m 743.42212,622.10217 c 0.15527,-2.59271 0.32886,-5.27093 0.53131,-8.05987 -10.14,-25.32 -282.23,19.51 -286.82,48.87 0.0126,2.69184 0.12775,5.30414 0.32129,7.85456 11.11559,-28.97829 269.60473,-71.58632 285.9674,-48.66469 z"
               transform="translate(-311,-161)"
               opacity="0.2"
               id="path1066" /><path
               d="m 474.09552,503.15162 a 6.36455,6.36455 0 0 0 -6.75274,-6.81562 5.8541,5.8541 0 0 0 -1.00507,0.12575 l -39.7621,8.98257 a 6.54762,6.54762 0 0 0 -4.20873,3.23509 8.18371,8.18371 0 0 0 -1.72738,0.25112 9.6613316,9.6613316 0 0 0 4.2714,18.84464 9.79394,9.79394 0 0 0 3.89453,-1.88439 l 13.474,37.9406 a 6.3285,6.3285 0 0 0 6.941,3.04646 l 25.84869,-5.84179 A 6.41623,6.41623 0 0 0 480,555.31982 Z m -49.78137,21.92253 a 6.91049,6.91049 0 0 1 -3.0779,-13.47385 c 0.12556,-0.0314 0.25132,0 0.37688,-0.0314 a 6.50647,6.50647 0 0 0 0.84807,3.26634 l 4.93085,8.60569 a 6.50519,6.50519 0 0 1 -3.0779,1.63326 z"
               transform="translate(-311,-161)"
               fill="#2f2e41"
               id="path1068" /><path
               d="m 467.34278,496.336 c 0.37688,5.02535 -8.22881,10.80427 -19.75539,13.09716 -10.58459,2.16714 -20.06959,0.65944 -22.73936,-3.29777 a 6.02524,6.02524 0 0 1 1.72758,-0.69107 l 39.7621,-8.98257 a 5.8541,5.8541 0 0 1 1.00507,-0.12575 z"
               transform="translate(-311,-161)"
               fill="#3f3d56"
               id="path1070" /><path
               d="m 439.84333,623.90524 22.33367,-11.16681 -18.6114,-50.25079 -4.90493,-25.342 a 19.16137,19.16137 0 0 0 -31.28219,-10.90731 v 0 a 19.16136,19.16136 0 0 0 -2.49251,26.51833 l 18.20719,22.75891 z"
               transform="translate(-311,-161)"
               fill="#a0616a"
               id="path1072" /><path
               d="m 462.177,603.43273 -29.77821,14.889 22.59854,70.80908 a 30.9768,30.9768 0 0 0 22.33567,20.7164 v 0 a 30.97681,30.97681 0 0 0 33.73743,-14.197 L 570.9953,592.93628 a 31.62026,31.62026 0 0 0 -10.19564,-42.982 v 0 a 31.62037,31.62037 0 0 0 -45.29613,12.76511 l -36.576,77.93632 z"
               transform="translate(-311,-161)"
               fill="#3f3d56"
               id="path1074" /><path
               d="m 452.9668,539.44141 a 0.49632,0.49632 0 0 1 -0.1626,-0.0274 l -6.50147,-2.23828 a 0.49923,0.49923 0 0 1 -0.20556,-0.81055 l 4.83545,-5.26464 a 0.49972,0.49972 0 1 1 0.73633,0.67578 l -4.31885,4.70215 5.77929,1.99023 a 0.49991,0.49991 0 0 1 -0.16259,0.97266 z"
               transform="translate(-311,-161)"
               fill="#5d75f3"
               id="path1076" /><path
               d="m 461.87842,537.61719 a 0.5,0.5 0 0 1 -0.34766,-0.85938 l 4.39453,-4.249 -5.90332,-2.43262 a 0.49963,0.49963 0 1 1 0.38086,-0.92383 l 6.60938,2.72364 a 0.49951,0.49951 0 0 1 0.15722,0.82129 l -4.94336,4.77929 a 0.49966,0.49966 0 0 1 -0.34765,0.14061 z"
               transform="translate(-311,-161)"
               fill="#5d75f3"
               id="path1078" /><path
               d="m 454.33154,542.5 a 0.48228,0.48228 0 0 1 -0.147,-0.0225 0.49976,0.49976 0 0 1 -0.33105,-0.625 l 4.61474,-15 a 0.50026,0.50026 0 0 1 0.95606,0.29492 l -4.61475,15 a 0.50035,0.50035 0 0 1 -0.478,0.35254 z"
               transform="translate(-311,-161)"
               fill="#5d75f3"
               id="path1080" /></g><g
             id="g1557"
             transform="matrix(0.38240605,0,0,0.38240605,717.3303,53.004896)"><rect
               x="151.55666"
               y="268"
               width="110"
               height="123"
               fill="#cccccc"
               id="rect1407" /><path
               d="m 380.72875,702.28371 -1.88975,25.83495 a 8.22428,8.22428 0 0 0 8.69988,8.80928 l 13.26993,-0.80373 a 4.19488,4.19488 0 0 0 3.8153,-5.2044 L 397.25817,701.457 Z"
               transform="translate(-172.72167,-161.05139)"
               fill="#e6e6e6"
               id="path1411" /><path
               d="m 491.72431,717.56077 c 15.6176,3.6534 26.77411,8.84633 34.103,15.87434 a 15.03539,15.03539 0 0 0 9.62359,4.1254 c 4.59653,0.24174 8.35492,-0.27349 11.17944,-1.53511 h 4.5e-4 a 4.43019,4.43019 0 0 0 2.62469,-3.65076 4.50814,4.50814 0 0 0 -1.88846,-4.16687 l -37.03954,-26.3546 -15.73318,6.294 -3.67016,3.67016 a 3.63415,3.63415 0 0 0 0.8002,5.74346 z"
               transform="translate(-172.72167,-161.05139)"
               fill="#e6e6e6"
               id="path1413" /><path
               d="m 443.66188,295.74594 -105.87329,-0.98031 c 0.26623,-15.42064 3.85407,-30.56331 11.69669,-44.11378 5.15076,-8.89946 5.03948,-18.58474 3.7982,-26.7444 -1.91555,-12.592 2.53886,-25.47548 12.43708,-33.49119 a 39.916,39.916 0 0 1 26.84266,-8.88134 l 2.0558,0.0857 a 40.00777,40.00777 0 0 1 32.87054,19.76983 33.32736,33.32736 0 0 1 3.96134,20.30073 c -0.67106,6.60129 0.93466,13.26982 4.6906,20.00186 6.47994,14.78258 7.88315,33.6988 7.52038,54.05294 z"
               transform="translate(-172.72167,-161.05139)"
               fill="#2f2e41"
               id="path1415" /><path
               d="m 514.49653,703.22772 -20.77878,5.42055 -101.1836,-220.4357 6.324,215.01515 h -20.7788 C 355.87585,602.06893 315.78882,485.32091 333.81153,448.46187 l 107.50757,-6.324 z"
               transform="translate(-172.72167,-161.05139)"
               fill="#5d75f3"
               id="path1417" /><circle
               cx="218.90906"
               cy="69.685051"
               r="28.00618"
               fill="#ffb9b9"
               id="circle1419" /><path
               d="m 416.0232,282.23167 -46.07467,-2.71028 c 4.51541,-10.36377 6.31912,-20.34363 4.51712,-29.813 h 34.33015 c -0.0778,7.27061 3.54031,19.84742 7.2274,32.52328 z"
               transform="translate(-172.72167,-161.05139)"
               fill="#ffb9b9"
               id="path1421" /><polygon
               points="272.211,289.217 171.028,296.445 181.417,117.115 199.034,112.146 218.909,116.663 238.784,106.725 251.432,111.243 "
               fill="#5d75f3"
               id="polygon1423" /><path
               d="m 360.91428,579.45849 -69.112,-15.80994 c 20.5506,-68.14818 57.57349,-224.05122 45.623,-279.61 l 36.137,-16.26165 z"
               transform="translate(-172.72167,-161.05139)"
               fill="#e6e6e6"
               id="path1425" /><path
               d="m 327.48755,382.51184 -26.19932,-16.26165 22.3434,-65.4394 a 30.87113,30.87113 0 0 1 13.49426,-16.02839 l 7.52674,-4.35758 -4.51713,65.95 z"
               transform="translate(-172.72167,-161.05139)"
               fill="#e6e6e6"
               id="path1427" /><path
               d="m 505.01057,564.552 c -21.81327,12.62013 -76.33909,19.65509 -100.28018,10.8411 -1.76169,-61.57277 -5.21664,-235.739 5.87226,-309.42306 l 39.7507,16.26165 -3.6137,48.78495 c -19.00407,41.73287 36.17963,187.08874 58.27092,233.53536 z"
               transform="translate(-172.72167,-161.05139)"
               fill="#e6e6e6"
               id="path1429" /><polygon
               points="329.127,213.33 304.734,205.199 272.211,168.158 277.632,121.18 331.837,197.068 "
               fill="#e6e6e6"
               id="polygon1431" /><path
               d="m 425.40285,409.54533 a 6.78537,6.78537 0 0 0 8.10524,5.11221 l 20.706,-4.68917 -2.99259,-13.21656 -20.70643,4.68828 a 6.77693,6.77693 0 0 0 -5.11221,8.10524 z"
               transform="translate(-172.72167,-161.05139)"
               fill="#ffb9b9"
               id="path1433" /><path
               d="m 416.0232,223.509 c -15.55574,-6.3965 -30.9192,-6.85936 -46.07467,-0.90342 l -6.324,-22.58563 h 57.8192 z"
               transform="translate(-172.72167,-161.05139)"
               fill="#2f2e41"
               id="path1435" /><path
               d="m 444.02938,394.25637 11.74452,21.6822 c 19.7541,-5.50955 36.87412,-22.87878 53.30208,-43.3644 l -4.51713,-14.4548 -28.00617,7.2274 z"
               transform="translate(-172.72167,-161.05139)"
               fill="#e6e6e6"
               id="path1437" /><path
               d="m 435.44684,349.53683 h -3.6137 c 0,-51.11057 -10.52349,-86.7288 -20.77877,-86.7288 l -0.90343,-3.6137 c 9.197,0 15.06047,14.824 18.35964,27.26023 4.47302,16.85938 6.93626,39.26237 6.93626,63.08227 z"
               transform="translate(-172.72167,-161.05139)"
               fill="#3f3d56"
               id="path1439" /><path
               d="M 352.33174,336.88888 H 348.718 c 0,-46.80915 10.59628,-75.8877 26.19933,-75.8877 l -0.90343,3.6137 c -10.79254,0 -21.68216,22.34786 -21.68216,72.274 z"
               transform="translate(-172.72167,-161.05139)"
               fill="#3f3d56"
               id="path1441" /><circle
               cx="260.91833"
               cy="189.38885"
               r="9.0342503"
               fill="#3f3d56"
               id="circle1443" /><path
               d="m 337.87694,358.57108 h -3.6137 c 0,-12.95189 7.29489,-23.48905 16.26165,-23.48905 v 3.6137 c -6.97419,0 -12.64795,8.91603 -12.64795,19.87535 z"
               transform="translate(-172.72167,-161.05139)"
               fill="#3f3d56"
               id="path1445" /><path
               d="m 366.78654,358.57108 h -3.6137 c 0,-10.95932 -5.67376,-19.87535 -12.64795,-19.87535 V 335.082 c 8.96676,0 16.26165,10.53719 16.26165,23.48908 z"
               transform="translate(-172.72167,-161.05139)"
               fill="#3f3d56"
               id="path1447" /><circle
               cx="192.25803"
               cy="198.42311"
               r="3.6136999"
               fill="#3f3d56"
               id="circle1449" /><circle
               cx="163.34842"
               cy="198.42311"
               r="3.6136999"
               fill="#3f3d56"
               id="circle1451" /><polygon
               points="164.88,236.053 118.177,165.193 140.724,169.219 192.258,242.495 "
               fill="#5d75f3"
               id="polygon1453" /><path
               d="m 286.8996,325.34727 a 1.91768,1.91768 0 0 0 -1.5735,2.971 l 48.17135,73.08788 a 1.91143,1.91143 0 0 0 1.16016,0.81035 l 22.4127,5.27321 a 1.91439,1.91439 0 0 0 2.00447,-2.9648 L 306.1856,329.32314 a 1.90335,1.90335 0 0 0 -1.22941,-0.783 l -17.69531,-3.16023 a 2.07607,2.07607 0 0 0 -0.36128,-0.0326 z"
               transform="translate(-172.72167,-161.05139)"
               fill="#3f3d56"
               id="path1455" /><path
               d="m 316.94907,377.60432 1.33881,13.48521 21.12638,-2.09711 a 6.775731,6.775731 0 0 0 -1.33837,-13.48521 z"
               transform="translate(-172.72167,-161.05139)"
               fill="#ffb9b9"
               id="path1457" /><path
               d="m 298.57839,376.04229 a 17.42694,17.42694 0 0 0 17.40637,17.31065 h 3.47387 l 2.529,-21.07565 -20.93979,-7.53839 z"
               transform="translate(-172.72167,-161.05139)"
               fill="#e6e6e6"
               id="path1459" /><rect
               x="442.55667"
               width="412"
               height="217"
               fill="#e6e6e6"
               id="rect1461"
               y="0" /><path
               d="m 627.27833,366.05139 h 387.99997 v -193 H 627.27833 Z"
               transform="translate(-172.72167,-161.05139)"
               fill="#ffffff"
               id="path1463" /><rect
               x="484.55667"
               y="40"
               width="138"
               height="138"
               fill="#3f3d56"
               id="rect1465" /><circle
               cx="589.55664"
               cy="99"
               r="4"
               fill="#5d75f3"
               id="circle1467" /><circle
               cx="574.55664"
               cy="85"
               r="4"
               fill="#5d75f3"
               id="circle1469" /><path
               d="m 745.27833,260.05139 a 7.95011,7.95011 0 0 0 -4.16785,1.181 25.12434,25.12434 0 0 0 -3.86474,-4.53583 c 0.0171,-0.21344 0.0326,-0.42731 0.0326,-0.64514 a 7.99417,7.99417 0 0 0 -13.54682,-5.7569 24.50673,24.50673 0 0 0 -6.46264,-0.0564 c 10e-4,-0.0627 0.009,-0.12366 0.009,-0.18671 a 8,8 0 1 0 -13.2594,6.01813 25.14047,25.14047 0 0 0 -3.62439,3.83362 7.99939,7.99939 0 1 0 -5.11621,14.14825 l 0.0253,-10e-4 c -0.0131,0.33258 -0.0253,0.66546 -0.0253,1.00128 a 25.045,25.045 0 0 0 0.72363,5.973 14.99382,14.99382 0 1 0 19.56885,18.57819 24.97131,24.97131 0 0 0 16.34241,-2.42426 8.00091,8.00091 0 1 0 10.492,-10.492 24.85715,24.85715 0 0 0 2.84784,-10.63617 l 0.0253,10e-4 a 8,8 0 0 0 0,-16 z"
               transform="translate(-172.72167,-161.05139)"
               fill="#5d75f3"
               id="path1471" /><rect
               x="530.55664"
               y="37"
               width="40"
               height="6"
               fill="#e6e6e6"
               id="rect1473" /><rect
               x="660.55664"
               y="40"
               width="138"
               height="138"
               fill="#3f3d56"
               id="rect1475" /><circle
               cx="755.75665"
               cy="131.8"
               r="1.8"
               fill="#5d75f3"
               id="circle1477" /><circle
               cx="749.00665"
               cy="125.5"
               r="1.8"
               fill="#5d75f3"
               id="circle1479" /><path
               d="m 920.82833,292.85139 a 3.57749,3.57749 0 0 0 -1.87553,0.53144 11.30621,11.30621 0 0 0 -1.73914,-2.04113 c 0.008,-0.096 0.0147,-0.19228 0.0147,-0.29031 a 3.59737,3.59737 0 0 0 -6.09607,-2.5906 11.02775,11.02775 0 0 0 -2.90819,-0.0254 c 6.6e-4,-0.0282 0.004,-0.0557 0.004,-0.084 a 3.6,3.6 0 1 0 -5.96673,2.70816 11.31327,11.31327 0 0 0 -1.631,1.72513 3.59972,3.59972 0 1 0 -2.30229,6.36671 l 0.0114,-5.8e-4 c -0.006,0.14966 -0.0114,0.29946 -0.0114,0.45058 a 11.27051,11.27051 0 0 0 0.32563,2.68783 6.74722,6.74722 0 1 0 8.806,8.36019 11.23714,11.23714 0 0 0 7.35409,-1.09092 3.60041,3.60041 0 1 0 4.7214,-4.7214 11.18577,11.18577 0 0 0 1.28153,-4.78628 l 0.0114,5.8e-4 a 3.6,3.6 0 0 0 0,-7.2 z"
               transform="translate(-172.72167,-161.05139)"
               fill="#5d75f3"
               id="path1481" /><circle
               cx="769.87848"
               cy="97.641708"
               r="1.8"
               fill="#5d75f3"
               id="circle1483" /><circle
               cx="774.11285"
               cy="89.436668"
               r="1.8"
               fill="#5d75f3"
               id="circle1485" /><path
               d="m 940.52643,251.32953 a 3.57751,3.57751 0 0 0 -1.01994,-1.66125 11.3064,11.3064 0 0 0 1.49326,-2.22732 c 0.0945,-0.0186 0.18907,-0.038 0.28342,-0.0646 a 3.59737,3.59737 0 0 0 0.84112,-6.57006 11.02787,11.02787 0 0 0 -0.76391,-2.80619 c 0.0273,-0.007 0.0547,-0.011 0.082,-0.0187 a 3.6,3.6 0 1 0 -4.22419,-5.00922 11.3133,11.3133 0 0 0 -2.10265,-1.10227 3.59973,3.59973 0 1 0 -6.75243,-0.49024 l 0.004,0.0108 c -0.14566,0.0349 -0.29134,0.0702 -0.4368,0.11117 a 11.27,11.27 0 0 0 -2.49892,1.042 6.74722,6.74722 0 1 0 -5.66009,10.74251 11.2371,11.2371 0 0 0 3.04357,6.783 3.60041,3.60041 0 1 0 5.82448,3.26477 11.1857,11.1857 0 0 0 4.95446,-0.0639 l 0.003,0.0111 a 3.6,3.6 0 1 0 6.93042,-1.95173 z"
               transform="translate(-172.72167,-161.05139)"
               fill="#5d75f3"
               id="path1487" /><circle
               cx="700.1618"
               cy="73.181488"
               r="1.8"
               fill="#5d75f3"
               id="circle1489" /><circle
               cx="690.95807"
               cy="73.918869"
               r="1.8"
               fill="#5d75f3"
               id="circle1491" /><path
               d="m 867.72564,239.88258 a 3.57754,3.57754 0 0 0 -0.87207,1.74343 11.306,11.306 0 0 0 -2.68,-0.0918 c -0.0657,-0.0704 -0.13212,-0.14048 -0.20451,-0.20657 a 3.59737,3.59737 0 0 0 -6.02337,2.75542 11.02762,11.02762 0 0 0 -1.97953,2.13065 c -0.0204,-0.0195 -0.0382,-0.0407 -0.0592,-0.0598 a 3.6,3.6 0 1 0 -2.02291,6.23247 11.31355,11.31355 0 0 0 0.17439,2.36765 3.59972,3.59972 0 1 0 3.14968,5.99292 l 0.007,-0.009 c 0.10655,0.10527 0.21348,0.21033 0.32508,0.31221 a 11.26967,11.26967 0 0 0 2.20457,1.57173 6.74722,6.74722 0 1 0 12.11144,-0.86672 11.23714,11.23714 0 0 0 4.15267,-6.16668 3.60041,3.60041 0 1 0 -0.30355,-6.67017 11.18565,11.18565 0 0 0 -2.67072,-4.17348 l 0.008,-0.008 a 3.6,3.6 0 1 0 -5.31735,-4.85445 z"
               transform="translate(-172.72167,-161.05139)"
               fill="#5d75f3"
               id="path1493" /><rect
               x="706.55664"
               y="37"
               width="40"
               height="6"
               fill="#e6e6e6"
               id="rect1495" /><rect
               y="575.65649"
               width="519.55664"
               height="2.24072"
               fill="#3f3d56"
               id="rect1501"
               x="0" /></g></g></g></g><text
       xml:space="preserve"
       style="font-size:70.5556px;fill:#f37041;stroke-width:0.264583"
       x="110.1682"
       y="128.62704"
       id="text1249"><tspan
         sodipodi:role="line"
         id="tspan1247"
         style="font-size:70.5556px;stroke-width:0.264583"
         x="110.1682"
         y="128.62704" /></text></g></svg>
