<?xml version="1.0" encoding="utf-8" standalone="no"?>
<!DOCTYPE svg PUBLIC "-//W3C//DTD SVG 1.1//EN"
  "http://www.w3.org/Graphics/SVG/1.1/DTD/svg11.dtd">
<!-- Created with matplotlib (https://matplotlib.org/) -->
<svg height="336.634375pt" version="1.1" viewBox="0 0 430.169375 336.634375" width="430.169375pt" xmlns="http://www.w3.org/2000/svg" xmlns:xlink="http://www.w3.org/1999/xlink">
 <metadata>
  <rdf:RDF xmlns:cc="http://creativecommons.org/ns#" xmlns:dc="http://purl.org/dc/elements/1.1/" xmlns:rdf="http://www.w3.org/1999/02/22-rdf-syntax-ns#">
   <cc:Work>
    <dc:type rdf:resource="http://purl.org/dc/dcmitype/StillImage"/>
    <dc:date>2020-12-02T09:56:26.143669</dc:date>
    <dc:format>image/svg+xml</dc:format>
    <dc:creator>
     <cc:Agent>
      <dc:title>Matplotlib v3.3.2, https://matplotlib.org/</dc:title>
     </cc:Agent>
    </dc:creator>
   </cc:Work>
  </rdf:RDF>
 </metadata>
 <defs>
  <style type="text/css">*{stroke-linecap:butt;stroke-linejoin:round;}</style>
 </defs>
 <g id="figure_1">
  <g id="patch_1">
   <path d="M 0 336.634375 
L 430.169375 336.634375 
L 430.169375 0 
L 0 0 
z
" style="fill:none;"/>
  </g>
  <g id="axes_1">
   <g id="patch_2">
    <path d="M 146.964063 306.278125 
L 410.324062 306.278125 
L 410.324062 15.118125 
L 146.964063 15.118125 
z
" style="fill:none;"/>
   </g>
   <g id="patch_3">
    <path clip-path="url(#p61b0fed95f)" d="M 146.964063 302.638625 
L 149.126296 302.638625 
L 149.126296 298.999125 
L 146.964063 298.999125 
z
" style="fill:#1f77b4;"/>
   </g>
   <g id="patch_4">
    <path clip-path="url(#p61b0fed95f)" d="M 146.964063 288.080625 
L 149.126296 288.080625 
L 149.126296 284.441125 
L 146.964063 284.441125 
z
" style="fill:#1f77b4;"/>
   </g>
   <g id="patch_5">
    <path clip-path="url(#p61b0fed95f)" d="M 146.964063 273.522625 
L 149.126296 273.522625 
L 149.126296 269.883125 
L 146.964063 269.883125 
z
" style="fill:#1f77b4;"/>
   </g>
   <g id="patch_6">
    <path clip-path="url(#p61b0fed95f)" d="M 146.964063 258.964625 
L 149.126296 258.964625 
L 149.126296 255.325125 
L 146.964063 255.325125 
z
" style="fill:#1f77b4;"/>
   </g>
   <g id="patch_7">
    <path clip-path="url(#p61b0fed95f)" d="M 146.964063 244.406625 
L 149.126296 244.406625 
L 149.126296 240.767125 
L 146.964063 240.767125 
z
" style="fill:#1f77b4;"/>
   </g>
   <g id="patch_8">
    <path clip-path="url(#p61b0fed95f)" d="M 146.964063 229.848625 
L 172.910861 229.848625 
L 172.910861 226.209125 
L 146.964063 226.209125 
z
" style="fill:#1f77b4;"/>
   </g>
   <g id="patch_9">
    <path clip-path="url(#p61b0fed95f)" d="M 146.964063 215.290625 
L 175.073094 215.290625 
L 175.073094 211.651125 
L 146.964063 211.651125 
z
" style="fill:#1f77b4;"/>
   </g>
   <g id="patch_10">
    <path clip-path="url(#p61b0fed95f)" d="M 146.964063 200.732625 
L 181.559793 200.732625 
L 181.559793 197.093125 
L 146.964063 197.093125 
z
" style="fill:#1f77b4;"/>
   </g>
   <g id="patch_11">
    <path clip-path="url(#p61b0fed95f)" d="M 146.964063 186.174625 
L 188.046493 186.174625 
L 188.046493 182.535125 
L 146.964063 182.535125 
z
" style="fill:#1f77b4;"/>
   </g>
   <g id="patch_12">
    <path clip-path="url(#p61b0fed95f)" d="M 146.964063 171.616625 
L 190.208726 171.616625 
L 190.208726 167.977125 
L 146.964063 167.977125 
z
" style="fill:#1f77b4;"/>
   </g>
   <g id="patch_13">
    <path clip-path="url(#p61b0fed95f)" d="M 146.964063 157.058625 
L 194.533192 157.058625 
L 194.533192 153.419125 
L 146.964063 153.419125 
z
" style="fill:#1f77b4;"/>
   </g>
   <g id="patch_14">
    <path clip-path="url(#p61b0fed95f)" d="M 146.964063 142.500625 
L 207.506591 142.500625 
L 207.506591 138.861125 
L 146.964063 138.861125 
z
" style="fill:#1f77b4;"/>
   </g>
   <g id="patch_15">
    <path clip-path="url(#p61b0fed95f)" d="M 146.964063 127.942625 
L 211.831058 127.942625 
L 211.831058 124.303125 
L 146.964063 124.303125 
z
" style="fill:#1f77b4;"/>
   </g>
   <g id="patch_16">
    <path clip-path="url(#p61b0fed95f)" d="M 146.964063 113.384625 
L 229.128923 113.384625 
L 229.128923 109.745125 
L 146.964063 109.745125 
z
" style="fill:#1f77b4;"/>
   </g>
   <g id="patch_17">
    <path clip-path="url(#p61b0fed95f)" d="M 146.964063 98.826625 
L 231.291156 98.826625 
L 231.291156 95.187125 
L 146.964063 95.187125 
z
" style="fill:#1f77b4;"/>
   </g>
   <g id="patch_18">
    <path clip-path="url(#p61b0fed95f)" d="M 146.964063 84.268625 
L 283.184752 84.268625 
L 283.184752 80.629125 
L 146.964063 80.629125 
z
" style="fill:#1f77b4;"/>
   </g>
   <g id="patch_19">
    <path clip-path="url(#p61b0fed95f)" d="M 146.964063 69.710625 
L 345.889514 69.710625 
L 345.889514 66.071125 
L 146.964063 66.071125 
z
" style="fill:#1f77b4;"/>
   </g>
   <g id="patch_20">
    <path clip-path="url(#p61b0fed95f)" d="M 146.964063 55.152625 
L 373.998545 55.152625 
L 373.998545 51.513125 
L 146.964063 51.513125 
z
" style="fill:#1f77b4;"/>
   </g>
   <g id="patch_21">
    <path clip-path="url(#p61b0fed95f)" d="M 146.964063 40.594625 
L 373.998545 40.594625 
L 373.998545 36.955125 
L 146.964063 36.955125 
z
" style="fill:#1f77b4;"/>
   </g>
   <g id="patch_22">
    <path clip-path="url(#p61b0fed95f)" d="M 146.964063 26.036625 
L 397.78311 26.036625 
L 397.78311 22.397125 
L 146.964063 22.397125 
z
" style="fill:#1f77b4;"/>
   </g>
   <g id="patch_23">
    <path clip-path="url(#p61b0fed95f)" d="M 146.964063 298.999125 
L 152.989958 298.999125 
L 152.989958 295.359625 
L 146.964063 295.359625 
z
" style="fill:#ff7f0e;"/>
   </g>
   <g id="patch_24">
    <path clip-path="url(#p61b0fed95f)" d="M 146.964063 284.441125 
L 152.989958 284.441125 
L 152.989958 280.801625 
L 146.964063 280.801625 
z
" style="fill:#ff7f0e;"/>
   </g>
   <g id="patch_25">
    <path clip-path="url(#p61b0fed95f)" d="M 146.964063 269.883125 
L 146.964063 269.883125 
L 146.964063 266.243625 
L 146.964063 266.243625 
z
" style="fill:#ff7f0e;"/>
   </g>
   <g id="patch_26">
    <path clip-path="url(#p61b0fed95f)" d="M 146.964063 255.325125 
L 152.989958 255.325125 
L 152.989958 251.685625 
L 146.964063 251.685625 
z
" style="fill:#ff7f0e;"/>
   </g>
   <g id="patch_27">
    <path clip-path="url(#p61b0fed95f)" d="M 146.964063 240.767125 
L 152.989958 240.767125 
L 152.989958 237.127625 
L 146.964063 237.127625 
z
" style="fill:#ff7f0e;"/>
   </g>
   <g id="patch_28">
    <path clip-path="url(#p61b0fed95f)" d="M 146.964063 226.209125 
L 183.119437 226.209125 
L 183.119437 222.569625 
L 146.964063 222.569625 
z
" style="fill:#ff7f0e;"/>
   </g>
   <g id="patch_29">
    <path clip-path="url(#p61b0fed95f)" d="M 146.964063 211.651125 
L 177.093541 211.651125 
L 177.093541 208.011625 
L 146.964063 208.011625 
z
" style="fill:#ff7f0e;"/>
   </g>
   <g id="patch_30">
    <path clip-path="url(#p61b0fed95f)" d="M 146.964063 197.093125 
L 171.067645 197.093125 
L 171.067645 193.453625 
L 146.964063 193.453625 
z
" style="fill:#ff7f0e;"/>
   </g>
   <g id="patch_31">
    <path clip-path="url(#p61b0fed95f)" d="M 146.964063 182.535125 
L 189.145333 182.535125 
L 189.145333 178.895625 
L 146.964063 178.895625 
z
" style="fill:#ff7f0e;"/>
   </g>
   <g id="patch_32">
    <path clip-path="url(#p61b0fed95f)" d="M 146.964063 167.977125 
L 177.093541 167.977125 
L 177.093541 164.337625 
L 146.964063 164.337625 
z
" style="fill:#ff7f0e;"/>
   </g>
   <g id="patch_33">
    <path clip-path="url(#p61b0fed95f)" d="M 146.964063 153.419125 
L 165.04175 153.419125 
L 165.04175 149.779625 
L 146.964063 149.779625 
z
" style="fill:#ff7f0e;"/>
   </g>
   <g id="patch_34">
    <path clip-path="url(#p61b0fed95f)" d="M 146.964063 138.861125 
L 201.197124 138.861125 
L 201.197124 135.221625 
L 146.964063 135.221625 
z
" style="fill:#ff7f0e;"/>
   </g>
   <g id="patch_35">
    <path clip-path="url(#p61b0fed95f)" d="M 146.964063 124.303125 
L 201.197124 124.303125 
L 201.197124 120.663625 
L 146.964063 120.663625 
z
" style="fill:#ff7f0e;"/>
   </g>
   <g id="patch_36">
    <path clip-path="url(#p61b0fed95f)" d="M 146.964063 109.745125 
L 213.248915 109.745125 
L 213.248915 106.105625 
L 146.964063 106.105625 
z
" style="fill:#ff7f0e;"/>
   </g>
   <g id="patch_37">
    <path clip-path="url(#p61b0fed95f)" d="M 146.964063 95.187125 
L 207.22302 95.187125 
L 207.22302 91.547625 
L 146.964063 91.547625 
z
" style="fill:#ff7f0e;"/>
   </g>
   <g id="patch_38">
    <path clip-path="url(#p61b0fed95f)" d="M 146.964063 80.629125 
L 261.456081 80.629125 
L 261.456081 76.989625 
L 146.964063 76.989625 
z
" style="fill:#ff7f0e;"/>
   </g>
   <g id="patch_39">
    <path clip-path="url(#p61b0fed95f)" d="M 146.964063 66.071125 
L 333.76683 66.071125 
L 333.76683 62.431625 
L 146.964063 62.431625 
z
" style="fill:#ff7f0e;"/>
   </g>
   <g id="patch_40">
    <path clip-path="url(#p61b0fed95f)" d="M 146.964063 51.513125 
L 345.818621 51.513125 
L 345.818621 47.873625 
L 146.964063 47.873625 
z
" style="fill:#ff7f0e;"/>
   </g>
   <g id="patch_41">
    <path clip-path="url(#p61b0fed95f)" d="M 146.964063 36.955125 
L 345.818621 36.955125 
L 345.818621 33.315625 
L 146.964063 33.315625 
z
" style="fill:#ff7f0e;"/>
   </g>
   <g id="patch_42">
    <path clip-path="url(#p61b0fed95f)" d="M 146.964063 22.397125 
L 387.999891 22.397125 
L 387.999891 18.757625 
L 146.964063 18.757625 
z
" style="fill:#ff7f0e;"/>
   </g>
   <g id="matplotlib.axis_1">
    <g id="xtick_1">
     <g id="line2d_1">
      <defs>
       <path d="M 0 0 
L 0 3.5 
" id="mb829e6f59b" style="stroke:#000000;stroke-width:0.8;"/>
      </defs>
      <g>
       <use style="stroke:#000000;stroke-width:0.8;" x="146.964063" xlink:href="#mb829e6f59b" y="306.278125"/>
      </g>
     </g>
     <g id="text_1">
      <!-- 0 -->
      <g transform="translate(143.782813 320.876563)scale(0.1 -0.1)">
       <defs>
        <path d="M 31.78125 66.40625 
Q 24.171875 66.40625 20.328125 58.90625 
Q 16.5 51.421875 16.5 36.375 
Q 16.5 21.390625 20.328125 13.890625 
Q 24.171875 6.390625 31.78125 6.390625 
Q 39.453125 6.390625 43.28125 13.890625 
Q 47.125 21.390625 47.125 36.375 
Q 47.125 51.421875 43.28125 58.90625 
Q 39.453125 66.40625 31.78125 66.40625 
z
M 31.78125 74.21875 
Q 44.046875 74.21875 50.515625 64.515625 
Q 56.984375 54.828125 56.984375 36.375 
Q 56.984375 17.96875 50.515625 8.265625 
Q 44.046875 -1.421875 31.78125 -1.421875 
Q 19.53125 -1.421875 13.0625 8.265625 
Q 6.59375 17.96875 6.59375 36.375 
Q 6.59375 54.828125 13.0625 64.515625 
Q 19.53125 74.21875 31.78125 74.21875 
z
" id="DejaVuSans-48"/>
       </defs>
       <use xlink:href="#DejaVuSans-48"/>
      </g>
     </g>
    </g>
    <g id="xtick_2">
     <g id="line2d_2">
      <g>
       <use style="stroke:#000000;stroke-width:0.8;" x="183.722026" xlink:href="#mb829e6f59b" y="306.278125"/>
      </g>
     </g>
     <g id="text_2">
      <!-- 10 -->
      <g transform="translate(177.359526 320.876563)scale(0.1 -0.1)">
       <defs>
        <path d="M 12.40625 8.296875 
L 28.515625 8.296875 
L 28.515625 63.921875 
L 10.984375 60.40625 
L 10.984375 69.390625 
L 28.421875 72.90625 
L 38.28125 72.90625 
L 38.28125 8.296875 
L 54.390625 8.296875 
L 54.390625 0 
L 12.40625 0 
z
" id="DejaVuSans-49"/>
       </defs>
       <use xlink:href="#DejaVuSans-49"/>
       <use x="63.623047" xlink:href="#DejaVuSans-48"/>
      </g>
     </g>
    </g>
    <g id="xtick_3">
     <g id="line2d_3">
      <g>
       <use style="stroke:#000000;stroke-width:0.8;" x="220.47999" xlink:href="#mb829e6f59b" y="306.278125"/>
      </g>
     </g>
     <g id="text_3">
      <!-- 20 -->
      <g transform="translate(214.11749 320.876563)scale(0.1 -0.1)">
       <defs>
        <path d="M 19.1875 8.296875 
L 53.609375 8.296875 
L 53.609375 0 
L 7.328125 0 
L 7.328125 8.296875 
Q 12.9375 14.109375 22.625 23.890625 
Q 32.328125 33.6875 34.8125 36.53125 
Q 39.546875 41.84375 41.421875 45.53125 
Q 43.3125 49.21875 43.3125 52.78125 
Q 43.3125 58.59375 39.234375 62.25 
Q 35.15625 65.921875 28.609375 65.921875 
Q 23.96875 65.921875 18.8125 64.3125 
Q 13.671875 62.703125 7.8125 59.421875 
L 7.8125 69.390625 
Q 13.765625 71.78125 18.9375 73 
Q 24.125 74.21875 28.421875 74.21875 
Q 39.75 74.21875 46.484375 68.546875 
Q 53.21875 62.890625 53.21875 53.421875 
Q 53.21875 48.921875 51.53125 44.890625 
Q 49.859375 40.875 45.40625 35.40625 
Q 44.1875 33.984375 37.640625 27.21875 
Q 31.109375 20.453125 19.1875 8.296875 
z
" id="DejaVuSans-50"/>
       </defs>
       <use xlink:href="#DejaVuSans-50"/>
       <use x="63.623047" xlink:href="#DejaVuSans-48"/>
      </g>
     </g>
    </g>
    <g id="xtick_4">
     <g id="line2d_4">
      <g>
       <use style="stroke:#000000;stroke-width:0.8;" x="257.237954" xlink:href="#mb829e6f59b" y="306.278125"/>
      </g>
     </g>
     <g id="text_4">
      <!-- 30 -->
      <g transform="translate(250.875454 320.876563)scale(0.1 -0.1)">
       <defs>
        <path d="M 40.578125 39.3125 
Q 47.65625 37.796875 51.625 33 
Q 55.609375 28.21875 55.609375 21.1875 
Q 55.609375 10.40625 48.1875 4.484375 
Q 40.765625 -1.421875 27.09375 -1.421875 
Q 22.515625 -1.421875 17.65625 -0.515625 
Q 12.796875 0.390625 7.625 2.203125 
L 7.625 11.71875 
Q 11.71875 9.328125 16.59375 8.109375 
Q 21.484375 6.890625 26.8125 6.890625 
Q 36.078125 6.890625 40.9375 10.546875 
Q 45.796875 14.203125 45.796875 21.1875 
Q 45.796875 27.640625 41.28125 31.265625 
Q 36.765625 34.90625 28.71875 34.90625 
L 20.21875 34.90625 
L 20.21875 43.015625 
L 29.109375 43.015625 
Q 36.375 43.015625 40.234375 45.921875 
Q 44.09375 48.828125 44.09375 54.296875 
Q 44.09375 59.90625 40.109375 62.90625 
Q 36.140625 65.921875 28.71875 65.921875 
Q 24.65625 65.921875 20.015625 65.03125 
Q 15.375 64.15625 9.8125 62.3125 
L 9.8125 71.09375 
Q 15.4375 72.65625 20.34375 73.4375 
Q 25.25 74.21875 29.59375 74.21875 
Q 40.828125 74.21875 47.359375 69.109375 
Q 53.90625 64.015625 53.90625 55.328125 
Q 53.90625 49.265625 50.4375 45.09375 
Q 46.96875 40.921875 40.578125 39.3125 
z
" id="DejaVuSans-51"/>
       </defs>
       <use xlink:href="#DejaVuSans-51"/>
       <use x="63.623047" xlink:href="#DejaVuSans-48"/>
      </g>
     </g>
    </g>
    <g id="xtick_5">
     <g id="line2d_5">
      <g>
       <use style="stroke:#000000;stroke-width:0.8;" x="293.995918" xlink:href="#mb829e6f59b" y="306.278125"/>
      </g>
     </g>
     <g id="text_5">
      <!-- 40 -->
      <g transform="translate(287.633418 320.876563)scale(0.1 -0.1)">
       <defs>
        <path d="M 37.796875 64.3125 
L 12.890625 25.390625 
L 37.796875 25.390625 
z
M 35.203125 72.90625 
L 47.609375 72.90625 
L 47.609375 25.390625 
L 58.015625 25.390625 
L 58.015625 17.1875 
L 47.609375 17.1875 
L 47.609375 0 
L 37.796875 0 
L 37.796875 17.1875 
L 4.890625 17.1875 
L 4.890625 26.703125 
z
" id="DejaVuSans-52"/>
       </defs>
       <use xlink:href="#DejaVuSans-52"/>
       <use x="63.623047" xlink:href="#DejaVuSans-48"/>
      </g>
     </g>
    </g>
    <g id="xtick_6">
     <g id="line2d_6">
      <g>
       <use style="stroke:#000000;stroke-width:0.8;" x="330.753882" xlink:href="#mb829e6f59b" y="306.278125"/>
      </g>
     </g>
     <g id="text_6">
      <!-- 50 -->
      <g transform="translate(324.391382 320.876563)scale(0.1 -0.1)">
       <defs>
        <path d="M 10.796875 72.90625 
L 49.515625 72.90625 
L 49.515625 64.59375 
L 19.828125 64.59375 
L 19.828125 46.734375 
Q 21.96875 47.46875 24.109375 47.828125 
Q 26.265625 48.1875 28.421875 48.1875 
Q 40.625 48.1875 47.75 41.5 
Q 54.890625 34.8125 54.890625 23.390625 
Q 54.890625 11.625 47.5625 5.09375 
Q 40.234375 -1.421875 26.90625 -1.421875 
Q 22.3125 -1.421875 17.546875 -0.640625 
Q 12.796875 0.140625 7.71875 1.703125 
L 7.71875 11.625 
Q 12.109375 9.234375 16.796875 8.0625 
Q 21.484375 6.890625 26.703125 6.890625 
Q 35.15625 6.890625 40.078125 11.328125 
Q 45.015625 15.765625 45.015625 23.390625 
Q 45.015625 31 40.078125 35.4375 
Q 35.15625 39.890625 26.703125 39.890625 
Q 22.75 39.890625 18.8125 39.015625 
Q 14.890625 38.140625 10.796875 36.28125 
z
" id="DejaVuSans-53"/>
       </defs>
       <use xlink:href="#DejaVuSans-53"/>
       <use x="63.623047" xlink:href="#DejaVuSans-48"/>
      </g>
     </g>
    </g>
    <g id="xtick_7">
     <g id="line2d_7">
      <g>
       <use style="stroke:#000000;stroke-width:0.8;" x="367.511846" xlink:href="#mb829e6f59b" y="306.278125"/>
      </g>
     </g>
     <g id="text_7">
      <!-- 60 -->
      <g transform="translate(361.149346 320.876563)scale(0.1 -0.1)">
       <defs>
        <path d="M 33.015625 40.375 
Q 26.375 40.375 22.484375 35.828125 
Q 18.609375 31.296875 18.609375 23.390625 
Q 18.609375 15.53125 22.484375 10.953125 
Q 26.375 6.390625 33.015625 6.390625 
Q 39.65625 6.390625 43.53125 10.953125 
Q 47.40625 15.53125 47.40625 23.390625 
Q 47.40625 31.296875 43.53125 35.828125 
Q 39.65625 40.375 33.015625 40.375 
z
M 52.59375 71.296875 
L 52.59375 62.3125 
Q 48.875 64.0625 45.09375 64.984375 
Q 41.3125 65.921875 37.59375 65.921875 
Q 27.828125 65.921875 22.671875 59.328125 
Q 17.53125 52.734375 16.796875 39.40625 
Q 19.671875 43.65625 24.015625 45.921875 
Q 28.375 48.1875 33.59375 48.1875 
Q 44.578125 48.1875 50.953125 41.515625 
Q 57.328125 34.859375 57.328125 23.390625 
Q 57.328125 12.15625 50.6875 5.359375 
Q 44.046875 -1.421875 33.015625 -1.421875 
Q 20.359375 -1.421875 13.671875 8.265625 
Q 6.984375 17.96875 6.984375 36.375 
Q 6.984375 53.65625 15.1875 63.9375 
Q 23.390625 74.21875 37.203125 74.21875 
Q 40.921875 74.21875 44.703125 73.484375 
Q 48.484375 72.75 52.59375 71.296875 
z
" id="DejaVuSans-54"/>
       </defs>
       <use xlink:href="#DejaVuSans-54"/>
       <use x="63.623047" xlink:href="#DejaVuSans-48"/>
      </g>
     </g>
    </g>
    <g id="xtick_8">
     <g id="line2d_8">
      <g>
       <use style="stroke:#000000;stroke-width:0.8;" x="404.26981" xlink:href="#mb829e6f59b" y="306.278125"/>
      </g>
     </g>
     <g id="text_8">
      <!-- 70 -->
      <g transform="translate(397.90731 320.876563)scale(0.1 -0.1)">
       <defs>
        <path d="M 8.203125 72.90625 
L 55.078125 72.90625 
L 55.078125 68.703125 
L 28.609375 0 
L 18.3125 0 
L 43.21875 64.59375 
L 8.203125 64.59375 
z
" id="DejaVuSans-55"/>
       </defs>
       <use xlink:href="#DejaVuSans-55"/>
       <use x="63.623047" xlink:href="#DejaVuSans-48"/>
      </g>
     </g>
    </g>
    <g id="text_9">
     <!-- Percent of respondents -->
     <g transform="translate(220.827656 334.554688)scale(0.1 -0.1)">
      <defs>
       <path d="M 19.671875 64.796875 
L 19.671875 37.40625 
L 32.078125 37.40625 
Q 38.96875 37.40625 42.71875 40.96875 
Q 46.484375 44.53125 46.484375 51.125 
Q 46.484375 57.671875 42.71875 61.234375 
Q 38.96875 64.796875 32.078125 64.796875 
z
M 9.8125 72.90625 
L 32.078125 72.90625 
Q 44.34375 72.90625 50.609375 67.359375 
Q 56.890625 61.8125 56.890625 51.125 
Q 56.890625 40.328125 50.609375 34.8125 
Q 44.34375 29.296875 32.078125 29.296875 
L 19.671875 29.296875 
L 19.671875 0 
L 9.8125 0 
z
" id="DejaVuSans-80"/>
       <path d="M 56.203125 29.59375 
L 56.203125 25.203125 
L 14.890625 25.203125 
Q 15.484375 15.921875 20.484375 11.0625 
Q 25.484375 6.203125 34.421875 6.203125 
Q 39.59375 6.203125 44.453125 7.46875 
Q 49.3125 8.734375 54.109375 11.28125 
L 54.109375 2.78125 
Q 49.265625 0.734375 44.1875 -0.34375 
Q 39.109375 -1.421875 33.890625 -1.421875 
Q 20.796875 -1.421875 13.15625 6.1875 
Q 5.515625 13.8125 5.515625 26.8125 
Q 5.515625 40.234375 12.765625 48.109375 
Q 20.015625 56 32.328125 56 
Q 43.359375 56 49.78125 48.890625 
Q 56.203125 41.796875 56.203125 29.59375 
z
M 47.21875 32.234375 
Q 47.125 39.59375 43.09375 43.984375 
Q 39.0625 48.390625 32.421875 48.390625 
Q 24.90625 48.390625 20.390625 44.140625 
Q 15.875 39.890625 15.1875 32.171875 
z
" id="DejaVuSans-101"/>
       <path d="M 41.109375 46.296875 
Q 39.59375 47.171875 37.8125 47.578125 
Q 36.03125 48 33.890625 48 
Q 26.265625 48 22.1875 43.046875 
Q 18.109375 38.09375 18.109375 28.8125 
L 18.109375 0 
L 9.078125 0 
L 9.078125 54.6875 
L 18.109375 54.6875 
L 18.109375 46.1875 
Q 20.953125 51.171875 25.484375 53.578125 
Q 30.03125 56 36.53125 56 
Q 37.453125 56 38.578125 55.875 
Q 39.703125 55.765625 41.0625 55.515625 
z
" id="DejaVuSans-114"/>
       <path d="M 48.78125 52.59375 
L 48.78125 44.1875 
Q 44.96875 46.296875 41.140625 47.34375 
Q 37.3125 48.390625 33.40625 48.390625 
Q 24.65625 48.390625 19.8125 42.84375 
Q 14.984375 37.3125 14.984375 27.296875 
Q 14.984375 17.28125 19.8125 11.734375 
Q 24.65625 6.203125 33.40625 6.203125 
Q 37.3125 6.203125 41.140625 7.25 
Q 44.96875 8.296875 48.78125 10.40625 
L 48.78125 2.09375 
Q 45.015625 0.34375 40.984375 -0.53125 
Q 36.96875 -1.421875 32.421875 -1.421875 
Q 20.0625 -1.421875 12.78125 6.34375 
Q 5.515625 14.109375 5.515625 27.296875 
Q 5.515625 40.671875 12.859375 48.328125 
Q 20.21875 56 33.015625 56 
Q 37.15625 56 41.109375 55.140625 
Q 45.0625 54.296875 48.78125 52.59375 
z
" id="DejaVuSans-99"/>
       <path d="M 54.890625 33.015625 
L 54.890625 0 
L 45.90625 0 
L 45.90625 32.71875 
Q 45.90625 40.484375 42.875 44.328125 
Q 39.84375 48.1875 33.796875 48.1875 
Q 26.515625 48.1875 22.3125 43.546875 
Q 18.109375 38.921875 18.109375 30.90625 
L 18.109375 0 
L 9.078125 0 
L 9.078125 54.6875 
L 18.109375 54.6875 
L 18.109375 46.1875 
Q 21.34375 51.125 25.703125 53.5625 
Q 30.078125 56 35.796875 56 
Q 45.21875 56 50.046875 50.171875 
Q 54.890625 44.34375 54.890625 33.015625 
z
" id="DejaVuSans-110"/>
       <path d="M 18.3125 70.21875 
L 18.3125 54.6875 
L 36.8125 54.6875 
L 36.8125 47.703125 
L 18.3125 47.703125 
L 18.3125 18.015625 
Q 18.3125 11.328125 20.140625 9.421875 
Q 21.96875 7.515625 27.59375 7.515625 
L 36.8125 7.515625 
L 36.8125 0 
L 27.59375 0 
Q 17.1875 0 13.234375 3.875 
Q 9.28125 7.765625 9.28125 18.015625 
L 9.28125 47.703125 
L 2.6875 47.703125 
L 2.6875 54.6875 
L 9.28125 54.6875 
L 9.28125 70.21875 
z
" id="DejaVuSans-116"/>
       <path id="DejaVuSans-32"/>
       <path d="M 30.609375 48.390625 
Q 23.390625 48.390625 19.1875 42.75 
Q 14.984375 37.109375 14.984375 27.296875 
Q 14.984375 17.484375 19.15625 11.84375 
Q 23.34375 6.203125 30.609375 6.203125 
Q 37.796875 6.203125 41.984375 11.859375 
Q 46.1875 17.53125 46.1875 27.296875 
Q 46.1875 37.015625 41.984375 42.703125 
Q 37.796875 48.390625 30.609375 48.390625 
z
M 30.609375 56 
Q 42.328125 56 49.015625 48.375 
Q 55.71875 40.765625 55.71875 27.296875 
Q 55.71875 13.875 49.015625 6.21875 
Q 42.328125 -1.421875 30.609375 -1.421875 
Q 18.84375 -1.421875 12.171875 6.21875 
Q 5.515625 13.875 5.515625 27.296875 
Q 5.515625 40.765625 12.171875 48.375 
Q 18.84375 56 30.609375 56 
z
" id="DejaVuSans-111"/>
       <path d="M 37.109375 75.984375 
L 37.109375 68.5 
L 28.515625 68.5 
Q 23.6875 68.5 21.796875 66.546875 
Q 19.921875 64.59375 19.921875 59.515625 
L 19.921875 54.6875 
L 34.71875 54.6875 
L 34.71875 47.703125 
L 19.921875 47.703125 
L 19.921875 0 
L 10.890625 0 
L 10.890625 47.703125 
L 2.296875 47.703125 
L 2.296875 54.6875 
L 10.890625 54.6875 
L 10.890625 58.5 
Q 10.890625 67.625 15.140625 71.796875 
Q 19.390625 75.984375 28.609375 75.984375 
z
" id="DejaVuSans-102"/>
       <path d="M 44.28125 53.078125 
L 44.28125 44.578125 
Q 40.484375 46.53125 36.375 47.5 
Q 32.28125 48.484375 27.875 48.484375 
Q 21.1875 48.484375 17.84375 46.4375 
Q 14.5 44.390625 14.5 40.28125 
Q 14.5 37.15625 16.890625 35.375 
Q 19.28125 33.59375 26.515625 31.984375 
L 29.59375 31.296875 
Q 39.15625 29.25 43.1875 25.515625 
Q 47.21875 21.78125 47.21875 15.09375 
Q 47.21875 7.46875 41.1875 3.015625 
Q 35.15625 -1.421875 24.609375 -1.421875 
Q 20.21875 -1.421875 15.453125 -0.5625 
Q 10.6875 0.296875 5.421875 2 
L 5.421875 11.28125 
Q 10.40625 8.6875 15.234375 7.390625 
Q 20.0625 6.109375 24.8125 6.109375 
Q 31.15625 6.109375 34.5625 8.28125 
Q 37.984375 10.453125 37.984375 14.40625 
Q 37.984375 18.0625 35.515625 20.015625 
Q 33.0625 21.96875 24.703125 23.78125 
L 21.578125 24.515625 
Q 13.234375 26.265625 9.515625 29.90625 
Q 5.8125 33.546875 5.8125 39.890625 
Q 5.8125 47.609375 11.28125 51.796875 
Q 16.75 56 26.8125 56 
Q 31.78125 56 36.171875 55.265625 
Q 40.578125 54.546875 44.28125 53.078125 
z
" id="DejaVuSans-115"/>
       <path d="M 18.109375 8.203125 
L 18.109375 -20.796875 
L 9.078125 -20.796875 
L 9.078125 54.6875 
L 18.109375 54.6875 
L 18.109375 46.390625 
Q 20.953125 51.265625 25.265625 53.625 
Q 29.59375 56 35.59375 56 
Q 45.5625 56 51.78125 48.09375 
Q 58.015625 40.1875 58.015625 27.296875 
Q 58.015625 14.40625 51.78125 6.484375 
Q 45.5625 -1.421875 35.59375 -1.421875 
Q 29.59375 -1.421875 25.265625 0.953125 
Q 20.953125 3.328125 18.109375 8.203125 
z
M 48.6875 27.296875 
Q 48.6875 37.203125 44.609375 42.84375 
Q 40.53125 48.484375 33.40625 48.484375 
Q 26.265625 48.484375 22.1875 42.84375 
Q 18.109375 37.203125 18.109375 27.296875 
Q 18.109375 17.390625 22.1875 11.75 
Q 26.265625 6.109375 33.40625 6.109375 
Q 40.53125 6.109375 44.609375 11.75 
Q 48.6875 17.390625 48.6875 27.296875 
z
" id="DejaVuSans-112"/>
       <path d="M 45.40625 46.390625 
L 45.40625 75.984375 
L 54.390625 75.984375 
L 54.390625 0 
L 45.40625 0 
L 45.40625 8.203125 
Q 42.578125 3.328125 38.25 0.953125 
Q 33.9375 -1.421875 27.875 -1.421875 
Q 17.96875 -1.421875 11.734375 6.484375 
Q 5.515625 14.40625 5.515625 27.296875 
Q 5.515625 40.1875 11.734375 48.09375 
Q 17.96875 56 27.875 56 
Q 33.9375 56 38.25 53.625 
Q 42.578125 51.265625 45.40625 46.390625 
z
M 14.796875 27.296875 
Q 14.796875 17.390625 18.875 11.75 
Q 22.953125 6.109375 30.078125 6.109375 
Q 37.203125 6.109375 41.296875 11.75 
Q 45.40625 17.390625 45.40625 27.296875 
Q 45.40625 37.203125 41.296875 42.84375 
Q 37.203125 48.484375 30.078125 48.484375 
Q 22.953125 48.484375 18.875 42.84375 
Q 14.796875 37.203125 14.796875 27.296875 
z
" id="DejaVuSans-100"/>
      </defs>
      <use xlink:href="#DejaVuSans-80"/>
      <use x="56.677734" xlink:href="#DejaVuSans-101"/>
      <use x="118.201172" xlink:href="#DejaVuSans-114"/>
      <use x="157.064453" xlink:href="#DejaVuSans-99"/>
      <use x="212.044922" xlink:href="#DejaVuSans-101"/>
      <use x="273.568359" xlink:href="#DejaVuSans-110"/>
      <use x="336.947266" xlink:href="#DejaVuSans-116"/>
      <use x="376.15625" xlink:href="#DejaVuSans-32"/>
      <use x="407.943359" xlink:href="#DejaVuSans-111"/>
      <use x="469.125" xlink:href="#DejaVuSans-102"/>
      <use x="504.330078" xlink:href="#DejaVuSans-32"/>
      <use x="536.117188" xlink:href="#DejaVuSans-114"/>
      <use x="574.980469" xlink:href="#DejaVuSans-101"/>
      <use x="636.503906" xlink:href="#DejaVuSans-115"/>
      <use x="688.603516" xlink:href="#DejaVuSans-112"/>
      <use x="752.080078" xlink:href="#DejaVuSans-111"/>
      <use x="813.261719" xlink:href="#DejaVuSans-110"/>
      <use x="876.640625" xlink:href="#DejaVuSans-100"/>
      <use x="940.117188" xlink:href="#DejaVuSans-101"/>
      <use x="1001.640625" xlink:href="#DejaVuSans-110"/>
      <use x="1065.019531" xlink:href="#DejaVuSans-116"/>
      <use x="1104.228516" xlink:href="#DejaVuSans-115"/>
     </g>
    </g>
   </g>
   <g id="matplotlib.axis_2">
    <g id="ytick_1">
     <g id="line2d_9">
      <defs>
       <path d="M 0 0 
L -3.5 0 
" id="m02e688306f" style="stroke:#000000;stroke-width:0.8;"/>
      </defs>
      <g>
       <use style="stroke:#000000;stroke-width:0.8;" x="146.964063" xlink:href="#m02e688306f" y="298.999125"/>
      </g>
     </g>
     <g id="text_10">
      <!-- spack dev-build -->
      <g transform="translate(61.454688 302.798344)scale(0.1 -0.1)">
       <defs>
        <path d="M 34.28125 27.484375 
Q 23.390625 27.484375 19.1875 25 
Q 14.984375 22.515625 14.984375 16.5 
Q 14.984375 11.71875 18.140625 8.90625 
Q 21.296875 6.109375 26.703125 6.109375 
Q 34.1875 6.109375 38.703125 11.40625 
Q 43.21875 16.703125 43.21875 25.484375 
L 43.21875 27.484375 
z
M 52.203125 31.203125 
L 52.203125 0 
L 43.21875 0 
L 43.21875 8.296875 
Q 40.140625 3.328125 35.546875 0.953125 
Q 30.953125 -1.421875 24.3125 -1.421875 
Q 15.921875 -1.421875 10.953125 3.296875 
Q 6 8.015625 6 15.921875 
Q 6 25.140625 12.171875 29.828125 
Q 18.359375 34.515625 30.609375 34.515625 
L 43.21875 34.515625 
L 43.21875 35.40625 
Q 43.21875 41.609375 39.140625 45 
Q 35.0625 48.390625 27.6875 48.390625 
Q 23 48.390625 18.546875 47.265625 
Q 14.109375 46.140625 10.015625 43.890625 
L 10.015625 52.203125 
Q 14.9375 54.109375 19.578125 55.046875 
Q 24.21875 56 28.609375 56 
Q 40.484375 56 46.34375 49.84375 
Q 52.203125 43.703125 52.203125 31.203125 
z
" id="DejaVuSans-97"/>
        <path d="M 9.078125 75.984375 
L 18.109375 75.984375 
L 18.109375 31.109375 
L 44.921875 54.6875 
L 56.390625 54.6875 
L 27.390625 29.109375 
L 57.625 0 
L 45.90625 0 
L 18.109375 26.703125 
L 18.109375 0 
L 9.078125 0 
z
" id="DejaVuSans-107"/>
        <path d="M 2.984375 54.6875 
L 12.5 54.6875 
L 29.59375 8.796875 
L 46.6875 54.6875 
L 56.203125 54.6875 
L 35.6875 0 
L 23.484375 0 
z
" id="DejaVuSans-118"/>
        <path d="M 4.890625 31.390625 
L 31.203125 31.390625 
L 31.203125 23.390625 
L 4.890625 23.390625 
z
" id="DejaVuSans-45"/>
        <path d="M 48.6875 27.296875 
Q 48.6875 37.203125 44.609375 42.84375 
Q 40.53125 48.484375 33.40625 48.484375 
Q 26.265625 48.484375 22.1875 42.84375 
Q 18.109375 37.203125 18.109375 27.296875 
Q 18.109375 17.390625 22.1875 11.75 
Q 26.265625 6.109375 33.40625 6.109375 
Q 40.53125 6.109375 44.609375 11.75 
Q 48.6875 17.390625 48.6875 27.296875 
z
M 18.109375 46.390625 
Q 20.953125 51.265625 25.265625 53.625 
Q 29.59375 56 35.59375 56 
Q 45.5625 56 51.78125 48.09375 
Q 58.015625 40.1875 58.015625 27.296875 
Q 58.015625 14.40625 51.78125 6.484375 
Q 45.5625 -1.421875 35.59375 -1.421875 
Q 29.59375 -1.421875 25.265625 0.953125 
Q 20.953125 3.328125 18.109375 8.203125 
L 18.109375 0 
L 9.078125 0 
L 9.078125 75.984375 
L 18.109375 75.984375 
z
" id="DejaVuSans-98"/>
        <path d="M 8.5 21.578125 
L 8.5 54.6875 
L 17.484375 54.6875 
L 17.484375 21.921875 
Q 17.484375 14.15625 20.5 10.265625 
Q 23.53125 6.390625 29.59375 6.390625 
Q 36.859375 6.390625 41.078125 11.03125 
Q 45.3125 15.671875 45.3125 23.6875 
L 45.3125 54.6875 
L 54.296875 54.6875 
L 54.296875 0 
L 45.3125 0 
L 45.3125 8.40625 
Q 42.046875 3.421875 37.71875 1 
Q 33.40625 -1.421875 27.6875 -1.421875 
Q 18.265625 -1.421875 13.375 4.4375 
Q 8.5 10.296875 8.5 21.578125 
z
M 31.109375 56 
z
" id="DejaVuSans-117"/>
        <path d="M 9.421875 54.6875 
L 18.40625 54.6875 
L 18.40625 0 
L 9.421875 0 
z
M 9.421875 75.984375 
L 18.40625 75.984375 
L 18.40625 64.59375 
L 9.421875 64.59375 
z
" id="DejaVuSans-105"/>
        <path d="M 9.421875 75.984375 
L 18.40625 75.984375 
L 18.40625 0 
L 9.421875 0 
z
" id="DejaVuSans-108"/>
       </defs>
       <use xlink:href="#DejaVuSans-115"/>
       <use x="52.099609" xlink:href="#DejaVuSans-112"/>
       <use x="115.576172" xlink:href="#DejaVuSans-97"/>
       <use x="176.855469" xlink:href="#DejaVuSans-99"/>
       <use x="231.835938" xlink:href="#DejaVuSans-107"/>
       <use x="289.746094" xlink:href="#DejaVuSans-32"/>
       <use x="321.533203" xlink:href="#DejaVuSans-100"/>
       <use x="385.009766" xlink:href="#DejaVuSans-101"/>
       <use x="446.533203" xlink:href="#DejaVuSans-118"/>
       <use x="503.087891" xlink:href="#DejaVuSans-45"/>
       <use x="539.171875" xlink:href="#DejaVuSans-98"/>
       <use x="602.648438" xlink:href="#DejaVuSans-117"/>
       <use x="666.027344" xlink:href="#DejaVuSans-105"/>
       <use x="693.810547" xlink:href="#DejaVuSans-108"/>
       <use x="721.59375" xlink:href="#DejaVuSans-100"/>
      </g>
     </g>
    </g>
    <g id="ytick_2">
     <g id="line2d_10">
      <g>
       <use style="stroke:#000000;stroke-width:0.8;" x="146.964063" xlink:href="#m02e688306f" y="284.441125"/>
      </g>
     </g>
     <g id="text_11">
      <!-- none -->
      <g transform="translate(115.017188 288.240344)scale(0.1 -0.1)">
       <use xlink:href="#DejaVuSans-110"/>
       <use x="63.378906" xlink:href="#DejaVuSans-111"/>
       <use x="124.560547" xlink:href="#DejaVuSans-110"/>
       <use x="187.939453" xlink:href="#DejaVuSans-101"/>
      </g>
     </g>
    </g>
    <g id="ytick_3">
     <g id="line2d_11">
      <g>
       <use style="stroke:#000000;stroke-width:0.8;" x="146.964063" xlink:href="#m02e688306f" y="269.883125"/>
      </g>
     </g>
     <g id="text_12">
      <!-- json output of spec and find -->
      <g transform="translate(0 273.682344)scale(0.1 -0.1)">
       <defs>
        <path d="M 9.421875 54.6875 
L 18.40625 54.6875 
L 18.40625 -0.984375 
Q 18.40625 -11.421875 14.421875 -16.109375 
Q 10.453125 -20.796875 1.609375 -20.796875 
L -1.8125 -20.796875 
L -1.8125 -13.1875 
L 0.59375 -13.1875 
Q 5.71875 -13.1875 7.5625 -10.8125 
Q 9.421875 -8.453125 9.421875 -0.984375 
z
M 9.421875 75.984375 
L 18.40625 75.984375 
L 18.40625 64.59375 
L 9.421875 64.59375 
z
" id="DejaVuSans-106"/>
       </defs>
       <use xlink:href="#DejaVuSans-106"/>
       <use x="27.783203" xlink:href="#DejaVuSans-115"/>
       <use x="79.882812" xlink:href="#DejaVuSans-111"/>
       <use x="141.064453" xlink:href="#DejaVuSans-110"/>
       <use x="204.443359" xlink:href="#DejaVuSans-32"/>
       <use x="236.230469" xlink:href="#DejaVuSans-111"/>
       <use x="297.412109" xlink:href="#DejaVuSans-117"/>
       <use x="360.791016" xlink:href="#DejaVuSans-116"/>
       <use x="400" xlink:href="#DejaVuSans-112"/>
       <use x="463.476562" xlink:href="#DejaVuSans-117"/>
       <use x="526.855469" xlink:href="#DejaVuSans-116"/>
       <use x="566.064453" xlink:href="#DejaVuSans-32"/>
       <use x="597.851562" xlink:href="#DejaVuSans-111"/>
       <use x="659.033203" xlink:href="#DejaVuSans-102"/>
       <use x="694.238281" xlink:href="#DejaVuSans-32"/>
       <use x="726.025391" xlink:href="#DejaVuSans-115"/>
       <use x="778.125" xlink:href="#DejaVuSans-112"/>
       <use x="841.601562" xlink:href="#DejaVuSans-101"/>
       <use x="903.125" xlink:href="#DejaVuSans-99"/>
       <use x="958.105469" xlink:href="#DejaVuSans-32"/>
       <use x="989.892578" xlink:href="#DejaVuSans-97"/>
       <use x="1051.171875" xlink:href="#DejaVuSans-110"/>
       <use x="1114.550781" xlink:href="#DejaVuSans-100"/>
       <use x="1178.027344" xlink:href="#DejaVuSans-32"/>
       <use x="1209.814453" xlink:href="#DejaVuSans-102"/>
       <use x="1245.019531" xlink:href="#DejaVuSans-105"/>
       <use x="1272.802734" xlink:href="#DejaVuSans-110"/>
       <use x="1336.181641" xlink:href="#DejaVuSans-100"/>
      </g>
     </g>
    </g>
    <g id="ytick_4">
     <g id="line2d_12">
      <g>
       <use style="stroke:#000000;stroke-width:0.8;" x="146.964063" xlink:href="#m02e688306f" y="255.325125"/>
      </g>
     </g>
     <g id="text_13">
      <!-- Not sure. -->
      <g transform="translate(94.501563 259.124344)scale(0.1 -0.1)">
       <defs>
        <path d="M 9.8125 72.90625 
L 23.09375 72.90625 
L 55.421875 11.921875 
L 55.421875 72.90625 
L 64.984375 72.90625 
L 64.984375 0 
L 51.703125 0 
L 19.390625 60.984375 
L 19.390625 0 
L 9.8125 0 
z
" id="DejaVuSans-78"/>
        <path d="M 10.6875 12.40625 
L 21 12.40625 
L 21 0 
L 10.6875 0 
z
" id="DejaVuSans-46"/>
       </defs>
       <use xlink:href="#DejaVuSans-78"/>
       <use x="74.804688" xlink:href="#DejaVuSans-111"/>
       <use x="135.986328" xlink:href="#DejaVuSans-116"/>
       <use x="175.195312" xlink:href="#DejaVuSans-32"/>
       <use x="206.982422" xlink:href="#DejaVuSans-115"/>
       <use x="259.082031" xlink:href="#DejaVuSans-117"/>
       <use x="322.460938" xlink:href="#DejaVuSans-114"/>
       <use x="361.324219" xlink:href="#DejaVuSans-101"/>
       <use x="422.847656" xlink:href="#DejaVuSans-46"/>
      </g>
     </g>
    </g>
    <g id="ytick_5">
     <g id="line2d_13">
      <g>
       <use style="stroke:#000000;stroke-width:0.8;" x="146.964063" xlink:href="#m02e688306f" y="240.767125"/>
      </g>
     </g>
     <g id="text_14">
      <!-- Repositories -->
      <g transform="translate(78.567188 244.566344)scale(0.1 -0.1)">
       <defs>
        <path d="M 44.390625 34.1875 
Q 47.5625 33.109375 50.5625 29.59375 
Q 53.5625 26.078125 56.59375 19.921875 
L 66.609375 0 
L 56 0 
L 46.6875 18.703125 
Q 43.0625 26.03125 39.671875 28.421875 
Q 36.28125 30.8125 30.421875 30.8125 
L 19.671875 30.8125 
L 19.671875 0 
L 9.8125 0 
L 9.8125 72.90625 
L 32.078125 72.90625 
Q 44.578125 72.90625 50.734375 67.671875 
Q 56.890625 62.453125 56.890625 51.90625 
Q 56.890625 45.015625 53.6875 40.46875 
Q 50.484375 35.9375 44.390625 34.1875 
z
M 19.671875 64.796875 
L 19.671875 38.921875 
L 32.078125 38.921875 
Q 39.203125 38.921875 42.84375 42.21875 
Q 46.484375 45.515625 46.484375 51.90625 
Q 46.484375 58.296875 42.84375 61.546875 
Q 39.203125 64.796875 32.078125 64.796875 
z
" id="DejaVuSans-82"/>
       </defs>
       <use xlink:href="#DejaVuSans-82"/>
       <use x="64.982422" xlink:href="#DejaVuSans-101"/>
       <use x="126.505859" xlink:href="#DejaVuSans-112"/>
       <use x="189.982422" xlink:href="#DejaVuSans-111"/>
       <use x="251.164062" xlink:href="#DejaVuSans-115"/>
       <use x="303.263672" xlink:href="#DejaVuSans-105"/>
       <use x="331.046875" xlink:href="#DejaVuSans-116"/>
       <use x="370.255859" xlink:href="#DejaVuSans-111"/>
       <use x="431.4375" xlink:href="#DejaVuSans-114"/>
       <use x="472.550781" xlink:href="#DejaVuSans-105"/>
       <use x="500.333984" xlink:href="#DejaVuSans-101"/>
       <use x="561.857422" xlink:href="#DejaVuSans-115"/>
      </g>
     </g>
    </g>
    <g id="ytick_6">
     <g id="line2d_14">
      <g>
       <use style="stroke:#000000;stroke-width:0.8;" x="146.964063" xlink:href="#m02e688306f" y="226.209125"/>
      </g>
     </g>
     <g id="text_15">
      <!-- spack ci -->
      <g transform="translate(99.534375 230.008344)scale(0.1 -0.1)">
       <use xlink:href="#DejaVuSans-115"/>
       <use x="52.099609" xlink:href="#DejaVuSans-112"/>
       <use x="115.576172" xlink:href="#DejaVuSans-97"/>
       <use x="176.855469" xlink:href="#DejaVuSans-99"/>
       <use x="231.835938" xlink:href="#DejaVuSans-107"/>
       <use x="289.746094" xlink:href="#DejaVuSans-32"/>
       <use x="321.533203" xlink:href="#DejaVuSans-99"/>
       <use x="376.513672" xlink:href="#DejaVuSans-105"/>
      </g>
     </g>
    </g>
    <g id="ytick_7">
     <g id="line2d_15">
      <g>
       <use style="stroke:#000000;stroke-width:0.8;" x="146.964063" xlink:href="#m02e688306f" y="211.651125"/>
      </g>
     </g>
     <g id="text_16">
      <!-- Command Extensions -->
      <g transform="translate(31.0875 215.450344)scale(0.1 -0.1)">
       <defs>
        <path d="M 64.40625 67.28125 
L 64.40625 56.890625 
Q 59.421875 61.53125 53.78125 63.8125 
Q 48.140625 66.109375 41.796875 66.109375 
Q 29.296875 66.109375 22.65625 58.46875 
Q 16.015625 50.828125 16.015625 36.375 
Q 16.015625 21.96875 22.65625 14.328125 
Q 29.296875 6.6875 41.796875 6.6875 
Q 48.140625 6.6875 53.78125 8.984375 
Q 59.421875 11.28125 64.40625 15.921875 
L 64.40625 5.609375 
Q 59.234375 2.09375 53.4375 0.328125 
Q 47.65625 -1.421875 41.21875 -1.421875 
Q 24.65625 -1.421875 15.125 8.703125 
Q 5.609375 18.84375 5.609375 36.375 
Q 5.609375 53.953125 15.125 64.078125 
Q 24.65625 74.21875 41.21875 74.21875 
Q 47.75 74.21875 53.53125 72.484375 
Q 59.328125 70.75 64.40625 67.28125 
z
" id="DejaVuSans-67"/>
        <path d="M 52 44.1875 
Q 55.375 50.25 60.0625 53.125 
Q 64.75 56 71.09375 56 
Q 79.640625 56 84.28125 50.015625 
Q 88.921875 44.046875 88.921875 33.015625 
L 88.921875 0 
L 79.890625 0 
L 79.890625 32.71875 
Q 79.890625 40.578125 77.09375 44.375 
Q 74.3125 48.1875 68.609375 48.1875 
Q 61.625 48.1875 57.5625 43.546875 
Q 53.515625 38.921875 53.515625 30.90625 
L 53.515625 0 
L 44.484375 0 
L 44.484375 32.71875 
Q 44.484375 40.625 41.703125 44.40625 
Q 38.921875 48.1875 33.109375 48.1875 
Q 26.21875 48.1875 22.15625 43.53125 
Q 18.109375 38.875 18.109375 30.90625 
L 18.109375 0 
L 9.078125 0 
L 9.078125 54.6875 
L 18.109375 54.6875 
L 18.109375 46.1875 
Q 21.1875 51.21875 25.484375 53.609375 
Q 29.78125 56 35.6875 56 
Q 41.65625 56 45.828125 52.96875 
Q 50 49.953125 52 44.1875 
z
" id="DejaVuSans-109"/>
        <path d="M 9.8125 72.90625 
L 55.90625 72.90625 
L 55.90625 64.59375 
L 19.671875 64.59375 
L 19.671875 43.015625 
L 54.390625 43.015625 
L 54.390625 34.71875 
L 19.671875 34.71875 
L 19.671875 8.296875 
L 56.78125 8.296875 
L 56.78125 0 
L 9.8125 0 
z
" id="DejaVuSans-69"/>
        <path d="M 54.890625 54.6875 
L 35.109375 28.078125 
L 55.90625 0 
L 45.3125 0 
L 29.390625 21.484375 
L 13.484375 0 
L 2.875 0 
L 24.125 28.609375 
L 4.6875 54.6875 
L 15.28125 54.6875 
L 29.78125 35.203125 
L 44.28125 54.6875 
z
" id="DejaVuSans-120"/>
       </defs>
       <use xlink:href="#DejaVuSans-67"/>
       <use x="69.824219" xlink:href="#DejaVuSans-111"/>
       <use x="131.005859" xlink:href="#DejaVuSans-109"/>
       <use x="228.417969" xlink:href="#DejaVuSans-109"/>
       <use x="325.830078" xlink:href="#DejaVuSans-97"/>
       <use x="387.109375" xlink:href="#DejaVuSans-110"/>
       <use x="450.488281" xlink:href="#DejaVuSans-100"/>
       <use x="513.964844" xlink:href="#DejaVuSans-32"/>
       <use x="545.751953" xlink:href="#DejaVuSans-69"/>
       <use x="608.935547" xlink:href="#DejaVuSans-120"/>
       <use x="668.115234" xlink:href="#DejaVuSans-116"/>
       <use x="707.324219" xlink:href="#DejaVuSans-101"/>
       <use x="768.847656" xlink:href="#DejaVuSans-110"/>
       <use x="832.226562" xlink:href="#DejaVuSans-115"/>
       <use x="884.326172" xlink:href="#DejaVuSans-105"/>
       <use x="912.109375" xlink:href="#DejaVuSans-111"/>
       <use x="973.291016" xlink:href="#DejaVuSans-110"/>
       <use x="1036.669922" xlink:href="#DejaVuSans-115"/>
      </g>
     </g>
    </g>
    <g id="ytick_8">
     <g id="line2d_16">
      <g>
       <use style="stroke:#000000;stroke-width:0.8;" x="146.964063" xlink:href="#m02e688306f" y="197.093125"/>
      </g>
     </g>
     <g id="text_17">
      <!-- Python extensions -->
      <g transform="translate(48.1625 200.892344)scale(0.1 -0.1)">
       <defs>
        <path d="M 32.171875 -5.078125 
Q 28.375 -14.84375 24.75 -17.8125 
Q 21.140625 -20.796875 15.09375 -20.796875 
L 7.90625 -20.796875 
L 7.90625 -13.28125 
L 13.1875 -13.28125 
Q 16.890625 -13.28125 18.9375 -11.515625 
Q 21 -9.765625 23.484375 -3.21875 
L 25.09375 0.875 
L 2.984375 54.6875 
L 12.5 54.6875 
L 29.59375 11.921875 
L 46.6875 54.6875 
L 56.203125 54.6875 
z
" id="DejaVuSans-121"/>
        <path d="M 54.890625 33.015625 
L 54.890625 0 
L 45.90625 0 
L 45.90625 32.71875 
Q 45.90625 40.484375 42.875 44.328125 
Q 39.84375 48.1875 33.796875 48.1875 
Q 26.515625 48.1875 22.3125 43.546875 
Q 18.109375 38.921875 18.109375 30.90625 
L 18.109375 0 
L 9.078125 0 
L 9.078125 75.984375 
L 18.109375 75.984375 
L 18.109375 46.1875 
Q 21.34375 51.125 25.703125 53.5625 
Q 30.078125 56 35.796875 56 
Q 45.21875 56 50.046875 50.171875 
Q 54.890625 44.34375 54.890625 33.015625 
z
" id="DejaVuSans-104"/>
       </defs>
       <use xlink:href="#DejaVuSans-80"/>
       <use x="60.302734" xlink:href="#DejaVuSans-121"/>
       <use x="119.482422" xlink:href="#DejaVuSans-116"/>
       <use x="158.691406" xlink:href="#DejaVuSans-104"/>
       <use x="222.070312" xlink:href="#DejaVuSans-111"/>
       <use x="283.251953" xlink:href="#DejaVuSans-110"/>
       <use x="346.630859" xlink:href="#DejaVuSans-32"/>
       <use x="378.417969" xlink:href="#DejaVuSans-101"/>
       <use x="438.191406" xlink:href="#DejaVuSans-120"/>
       <use x="497.371094" xlink:href="#DejaVuSans-116"/>
       <use x="536.580078" xlink:href="#DejaVuSans-101"/>
       <use x="598.103516" xlink:href="#DejaVuSans-110"/>
       <use x="661.482422" xlink:href="#DejaVuSans-115"/>
       <use x="713.582031" xlink:href="#DejaVuSans-105"/>
       <use x="741.365234" xlink:href="#DejaVuSans-111"/>
       <use x="802.546875" xlink:href="#DejaVuSans-110"/>
       <use x="865.925781" xlink:href="#DejaVuSans-115"/>
      </g>
     </g>
    </g>
    <g id="ytick_9">
     <g id="line2d_17">
      <g>
       <use style="stroke:#000000;stroke-width:0.8;" x="146.964063" xlink:href="#m02e688306f" y="182.535125"/>
      </g>
     </g>
     <g id="text_18">
      <!-- Distributed Builds -->
      <g transform="translate(50.86875 186.334344)scale(0.1 -0.1)">
       <defs>
        <path d="M 19.671875 64.796875 
L 19.671875 8.109375 
L 31.59375 8.109375 
Q 46.6875 8.109375 53.6875 14.9375 
Q 60.6875 21.78125 60.6875 36.53125 
Q 60.6875 51.171875 53.6875 57.984375 
Q 46.6875 64.796875 31.59375 64.796875 
z
M 9.8125 72.90625 
L 30.078125 72.90625 
Q 51.265625 72.90625 61.171875 64.09375 
Q 71.09375 55.28125 71.09375 36.53125 
Q 71.09375 17.671875 61.125 8.828125 
Q 51.171875 0 30.078125 0 
L 9.8125 0 
z
" id="DejaVuSans-68"/>
        <path d="M 19.671875 34.8125 
L 19.671875 8.109375 
L 35.5 8.109375 
Q 43.453125 8.109375 47.28125 11.40625 
Q 51.125 14.703125 51.125 21.484375 
Q 51.125 28.328125 47.28125 31.5625 
Q 43.453125 34.8125 35.5 34.8125 
z
M 19.671875 64.796875 
L 19.671875 42.828125 
L 34.28125 42.828125 
Q 41.5 42.828125 45.03125 45.53125 
Q 48.578125 48.25 48.578125 53.8125 
Q 48.578125 59.328125 45.03125 62.0625 
Q 41.5 64.796875 34.28125 64.796875 
z
M 9.8125 72.90625 
L 35.015625 72.90625 
Q 46.296875 72.90625 52.390625 68.21875 
Q 58.5 63.53125 58.5 54.890625 
Q 58.5 48.1875 55.375 44.234375 
Q 52.25 40.28125 46.1875 39.3125 
Q 53.46875 37.75 57.5 32.78125 
Q 61.53125 27.828125 61.53125 20.40625 
Q 61.53125 10.640625 54.890625 5.3125 
Q 48.25 0 35.984375 0 
L 9.8125 0 
z
" id="DejaVuSans-66"/>
       </defs>
       <use xlink:href="#DejaVuSans-68"/>
       <use x="77.001953" xlink:href="#DejaVuSans-105"/>
       <use x="104.785156" xlink:href="#DejaVuSans-115"/>
       <use x="156.884766" xlink:href="#DejaVuSans-116"/>
       <use x="196.09375" xlink:href="#DejaVuSans-114"/>
       <use x="237.207031" xlink:href="#DejaVuSans-105"/>
       <use x="264.990234" xlink:href="#DejaVuSans-98"/>
       <use x="328.466797" xlink:href="#DejaVuSans-117"/>
       <use x="391.845703" xlink:href="#DejaVuSans-116"/>
       <use x="431.054688" xlink:href="#DejaVuSans-101"/>
       <use x="492.578125" xlink:href="#DejaVuSans-100"/>
       <use x="556.054688" xlink:href="#DejaVuSans-32"/>
       <use x="587.841797" xlink:href="#DejaVuSans-66"/>
       <use x="656.445312" xlink:href="#DejaVuSans-117"/>
       <use x="719.824219" xlink:href="#DejaVuSans-105"/>
       <use x="747.607422" xlink:href="#DejaVuSans-108"/>
       <use x="775.390625" xlink:href="#DejaVuSans-100"/>
       <use x="838.867188" xlink:href="#DejaVuSans-115"/>
      </g>
     </g>
    </g>
    <g id="ytick_10">
     <g id="line2d_18">
      <g>
       <use style="stroke:#000000;stroke-width:0.8;" x="146.964063" xlink:href="#m02e688306f" y="167.977125"/>
      </g>
     </g>
     <g id="text_19">
      <!-- spack-python -->
      <g transform="translate(72.4 171.776344)scale(0.1 -0.1)">
       <use xlink:href="#DejaVuSans-115"/>
       <use x="52.099609" xlink:href="#DejaVuSans-112"/>
       <use x="115.576172" xlink:href="#DejaVuSans-97"/>
       <use x="176.855469" xlink:href="#DejaVuSans-99"/>
       <use x="231.835938" xlink:href="#DejaVuSans-107"/>
       <use x="289.746094" xlink:href="#DejaVuSans-45"/>
       <use x="325.830078" xlink:href="#DejaVuSans-112"/>
       <use x="389.306641" xlink:href="#DejaVuSans-121"/>
       <use x="448.486328" xlink:href="#DejaVuSans-116"/>
       <use x="487.695312" xlink:href="#DejaVuSans-104"/>
       <use x="551.074219" xlink:href="#DejaVuSans-111"/>
       <use x="612.255859" xlink:href="#DejaVuSans-110"/>
      </g>
     </g>
    </g>
    <g id="ytick_11">
     <g id="line2d_19">
      <g>
       <use style="stroke:#000000;stroke-width:0.8;" x="146.964063" xlink:href="#m02e688306f" y="153.419125"/>
      </g>
     </g>
     <g id="text_20">
      <!-- spack containerize -->
      <g transform="translate(46.248438 157.218344)scale(0.1 -0.1)">
       <defs>
        <path d="M 5.515625 54.6875 
L 48.1875 54.6875 
L 48.1875 46.484375 
L 14.40625 7.171875 
L 48.1875 7.171875 
L 48.1875 0 
L 4.296875 0 
L 4.296875 8.203125 
L 38.09375 47.515625 
L 5.515625 47.515625 
z
" id="DejaVuSans-122"/>
       </defs>
       <use xlink:href="#DejaVuSans-115"/>
       <use x="52.099609" xlink:href="#DejaVuSans-112"/>
       <use x="115.576172" xlink:href="#DejaVuSans-97"/>
       <use x="176.855469" xlink:href="#DejaVuSans-99"/>
       <use x="231.835938" xlink:href="#DejaVuSans-107"/>
       <use x="289.746094" xlink:href="#DejaVuSans-32"/>
       <use x="321.533203" xlink:href="#DejaVuSans-99"/>
       <use x="376.513672" xlink:href="#DejaVuSans-111"/>
       <use x="437.695312" xlink:href="#DejaVuSans-110"/>
       <use x="501.074219" xlink:href="#DejaVuSans-116"/>
       <use x="540.283203" xlink:href="#DejaVuSans-97"/>
       <use x="601.5625" xlink:href="#DejaVuSans-105"/>
       <use x="629.345703" xlink:href="#DejaVuSans-110"/>
       <use x="692.724609" xlink:href="#DejaVuSans-101"/>
       <use x="754.248047" xlink:href="#DejaVuSans-114"/>
       <use x="795.361328" xlink:href="#DejaVuSans-105"/>
       <use x="823.144531" xlink:href="#DejaVuSans-122"/>
       <use x="875.634766" xlink:href="#DejaVuSans-101"/>
      </g>
     </g>
    </g>
    <g id="ytick_12">
     <g id="line2d_20">
      <g>
       <use style="stroke:#000000;stroke-width:0.8;" x="146.964063" xlink:href="#m02e688306f" y="138.861125"/>
      </g>
     </g>
     <g id="text_21">
      <!-- Binary Caches -->
      <g transform="translate(68.342188 142.660344)scale(0.1 -0.1)">
       <use xlink:href="#DejaVuSans-66"/>
       <use x="68.603516" xlink:href="#DejaVuSans-105"/>
       <use x="96.386719" xlink:href="#DejaVuSans-110"/>
       <use x="159.765625" xlink:href="#DejaVuSans-97"/>
       <use x="221.044922" xlink:href="#DejaVuSans-114"/>
       <use x="262.158203" xlink:href="#DejaVuSans-121"/>
       <use x="321.337891" xlink:href="#DejaVuSans-32"/>
       <use x="353.125" xlink:href="#DejaVuSans-67"/>
       <use x="422.949219" xlink:href="#DejaVuSans-97"/>
       <use x="484.228516" xlink:href="#DejaVuSans-99"/>
       <use x="539.208984" xlink:href="#DejaVuSans-104"/>
       <use x="602.587891" xlink:href="#DejaVuSans-101"/>
       <use x="664.111328" xlink:href="#DejaVuSans-115"/>
      </g>
     </g>
    </g>
    <g id="ytick_13">
     <g id="line2d_21">
      <g>
       <use style="stroke:#000000;stroke-width:0.8;" x="146.964063" xlink:href="#m02e688306f" y="124.303125"/>
      </g>
     </g>
     <g id="text_22">
      <!-- Stacks -->
      <g transform="translate(107.06875 128.102344)scale(0.1 -0.1)">
       <defs>
        <path d="M 53.515625 70.515625 
L 53.515625 60.890625 
Q 47.90625 63.578125 42.921875 64.890625 
Q 37.9375 66.21875 33.296875 66.21875 
Q 25.25 66.21875 20.875 63.09375 
Q 16.5 59.96875 16.5 54.203125 
Q 16.5 49.359375 19.40625 46.890625 
Q 22.3125 44.4375 30.421875 42.921875 
L 36.375 41.703125 
Q 47.40625 39.59375 52.65625 34.296875 
Q 57.90625 29 57.90625 20.125 
Q 57.90625 9.515625 50.796875 4.046875 
Q 43.703125 -1.421875 29.984375 -1.421875 
Q 24.8125 -1.421875 18.96875 -0.25 
Q 13.140625 0.921875 6.890625 3.21875 
L 6.890625 13.375 
Q 12.890625 10.015625 18.65625 8.296875 
Q 24.421875 6.59375 29.984375 6.59375 
Q 38.421875 6.59375 43.015625 9.90625 
Q 47.609375 13.234375 47.609375 19.390625 
Q 47.609375 24.75 44.3125 27.78125 
Q 41.015625 30.8125 33.5 32.328125 
L 27.484375 33.5 
Q 16.453125 35.6875 11.515625 40.375 
Q 6.59375 45.0625 6.59375 53.421875 
Q 6.59375 63.09375 13.40625 68.65625 
Q 20.21875 74.21875 32.171875 74.21875 
Q 37.3125 74.21875 42.625 73.28125 
Q 47.953125 72.359375 53.515625 70.515625 
z
" id="DejaVuSans-83"/>
       </defs>
       <use xlink:href="#DejaVuSans-83"/>
       <use x="63.476562" xlink:href="#DejaVuSans-116"/>
       <use x="102.685547" xlink:href="#DejaVuSans-97"/>
       <use x="163.964844" xlink:href="#DejaVuSans-99"/>
       <use x="218.945312" xlink:href="#DejaVuSans-107"/>
       <use x="276.855469" xlink:href="#DejaVuSans-115"/>
      </g>
     </g>
    </g>
    <g id="ytick_14">
     <g id="line2d_22">
      <g>
       <use style="stroke:#000000;stroke-width:0.8;" x="146.964063" xlink:href="#m02e688306f" y="109.745125"/>
      </g>
     </g>
     <g id="text_23">
      <!-- spack external find -->
      <g transform="translate(44.498438 113.544344)scale(0.1 -0.1)">
       <use xlink:href="#DejaVuSans-115"/>
       <use x="52.099609" xlink:href="#DejaVuSans-112"/>
       <use x="115.576172" xlink:href="#DejaVuSans-97"/>
       <use x="176.855469" xlink:href="#DejaVuSans-99"/>
       <use x="231.835938" xlink:href="#DejaVuSans-107"/>
       <use x="289.746094" xlink:href="#DejaVuSans-32"/>
       <use x="321.533203" xlink:href="#DejaVuSans-101"/>
       <use x="381.306641" xlink:href="#DejaVuSans-120"/>
       <use x="440.486328" xlink:href="#DejaVuSans-116"/>
       <use x="479.695312" xlink:href="#DejaVuSans-101"/>
       <use x="541.21875" xlink:href="#DejaVuSans-114"/>
       <use x="580.582031" xlink:href="#DejaVuSans-110"/>
       <use x="643.960938" xlink:href="#DejaVuSans-97"/>
       <use x="705.240234" xlink:href="#DejaVuSans-108"/>
       <use x="733.023438" xlink:href="#DejaVuSans-32"/>
       <use x="764.810547" xlink:href="#DejaVuSans-102"/>
       <use x="800.015625" xlink:href="#DejaVuSans-105"/>
       <use x="827.798828" xlink:href="#DejaVuSans-110"/>
       <use x="891.177734" xlink:href="#DejaVuSans-100"/>
      </g>
     </g>
    </g>
    <g id="ytick_15">
     <g id="line2d_23">
      <g>
       <use style="stroke:#000000;stroke-width:0.8;" x="146.964063" xlink:href="#m02e688306f" y="95.187125"/>
      </g>
     </g>
     <g id="text_24">
      <!-- Chaining -->
      <g transform="translate(95.935938 98.986344)scale(0.1 -0.1)">
       <defs>
        <path d="M 45.40625 27.984375 
Q 45.40625 37.75 41.375 43.109375 
Q 37.359375 48.484375 30.078125 48.484375 
Q 22.859375 48.484375 18.828125 43.109375 
Q 14.796875 37.75 14.796875 27.984375 
Q 14.796875 18.265625 18.828125 12.890625 
Q 22.859375 7.515625 30.078125 7.515625 
Q 37.359375 7.515625 41.375 12.890625 
Q 45.40625 18.265625 45.40625 27.984375 
z
M 54.390625 6.78125 
Q 54.390625 -7.171875 48.1875 -13.984375 
Q 42 -20.796875 29.203125 -20.796875 
Q 24.46875 -20.796875 20.265625 -20.09375 
Q 16.0625 -19.390625 12.109375 -17.921875 
L 12.109375 -9.1875 
Q 16.0625 -11.328125 19.921875 -12.34375 
Q 23.78125 -13.375 27.78125 -13.375 
Q 36.625 -13.375 41.015625 -8.765625 
Q 45.40625 -4.15625 45.40625 5.171875 
L 45.40625 9.625 
Q 42.625 4.78125 38.28125 2.390625 
Q 33.9375 0 27.875 0 
Q 17.828125 0 11.671875 7.65625 
Q 5.515625 15.328125 5.515625 27.984375 
Q 5.515625 40.671875 11.671875 48.328125 
Q 17.828125 56 27.875 56 
Q 33.9375 56 38.28125 53.609375 
Q 42.625 51.21875 45.40625 46.390625 
L 45.40625 54.6875 
L 54.390625 54.6875 
z
" id="DejaVuSans-103"/>
       </defs>
       <use xlink:href="#DejaVuSans-67"/>
       <use x="69.824219" xlink:href="#DejaVuSans-104"/>
       <use x="133.203125" xlink:href="#DejaVuSans-97"/>
       <use x="194.482422" xlink:href="#DejaVuSans-105"/>
       <use x="222.265625" xlink:href="#DejaVuSans-110"/>
       <use x="285.644531" xlink:href="#DejaVuSans-105"/>
       <use x="313.427734" xlink:href="#DejaVuSans-110"/>
       <use x="376.806641" xlink:href="#DejaVuSans-103"/>
      </g>
     </g>
    </g>
    <g id="ytick_16">
     <g id="line2d_24">
      <g>
       <use style="stroke:#000000;stroke-width:0.8;" x="146.964063" xlink:href="#m02e688306f" y="80.629125"/>
      </g>
     </g>
     <g id="text_25">
      <!-- build-env -->
      <g transform="translate(93.35625 84.428344)scale(0.1 -0.1)">
       <use xlink:href="#DejaVuSans-98"/>
       <use x="63.476562" xlink:href="#DejaVuSans-117"/>
       <use x="126.855469" xlink:href="#DejaVuSans-105"/>
       <use x="154.638672" xlink:href="#DejaVuSans-108"/>
       <use x="182.421875" xlink:href="#DejaVuSans-100"/>
       <use x="245.898438" xlink:href="#DejaVuSans-45"/>
       <use x="281.982422" xlink:href="#DejaVuSans-101"/>
       <use x="343.505859" xlink:href="#DejaVuSans-110"/>
       <use x="406.884766" xlink:href="#DejaVuSans-118"/>
      </g>
     </g>
    </g>
    <g id="ytick_17">
     <g id="line2d_25">
      <g>
       <use style="stroke:#000000;stroke-width:0.8;" x="146.964063" xlink:href="#m02e688306f" y="66.071125"/>
      </g>
     </g>
     <g id="text_26">
      <!-- Concretization preferences -->
      <g transform="translate(5.28125 69.870344)scale(0.1 -0.1)">
       <use xlink:href="#DejaVuSans-67"/>
       <use x="69.824219" xlink:href="#DejaVuSans-111"/>
       <use x="131.005859" xlink:href="#DejaVuSans-110"/>
       <use x="194.384766" xlink:href="#DejaVuSans-99"/>
       <use x="249.365234" xlink:href="#DejaVuSans-114"/>
       <use x="288.228516" xlink:href="#DejaVuSans-101"/>
       <use x="349.751953" xlink:href="#DejaVuSans-116"/>
       <use x="388.960938" xlink:href="#DejaVuSans-105"/>
       <use x="416.744141" xlink:href="#DejaVuSans-122"/>
       <use x="469.234375" xlink:href="#DejaVuSans-97"/>
       <use x="530.513672" xlink:href="#DejaVuSans-116"/>
       <use x="569.722656" xlink:href="#DejaVuSans-105"/>
       <use x="597.505859" xlink:href="#DejaVuSans-111"/>
       <use x="658.6875" xlink:href="#DejaVuSans-110"/>
       <use x="722.066406" xlink:href="#DejaVuSans-32"/>
       <use x="753.853516" xlink:href="#DejaVuSans-112"/>
       <use x="817.330078" xlink:href="#DejaVuSans-114"/>
       <use x="856.193359" xlink:href="#DejaVuSans-101"/>
       <use x="917.716797" xlink:href="#DejaVuSans-102"/>
       <use x="952.921875" xlink:href="#DejaVuSans-101"/>
       <use x="1014.445312" xlink:href="#DejaVuSans-114"/>
       <use x="1053.308594" xlink:href="#DejaVuSans-101"/>
       <use x="1114.832031" xlink:href="#DejaVuSans-110"/>
       <use x="1178.210938" xlink:href="#DejaVuSans-99"/>
       <use x="1233.191406" xlink:href="#DejaVuSans-101"/>
       <use x="1294.714844" xlink:href="#DejaVuSans-115"/>
      </g>
     </g>
    </g>
    <g id="ytick_18">
     <g id="line2d_26">
      <g>
       <use style="stroke:#000000;stroke-width:0.8;" x="146.964063" xlink:href="#m02e688306f" y="51.513125"/>
      </g>
     </g>
     <g id="text_27">
      <!-- External packages -->
      <g transform="translate(47.865625 55.312344)scale(0.1 -0.1)">
       <use xlink:href="#DejaVuSans-69"/>
       <use x="63.183594" xlink:href="#DejaVuSans-120"/>
       <use x="122.363281" xlink:href="#DejaVuSans-116"/>
       <use x="161.572266" xlink:href="#DejaVuSans-101"/>
       <use x="223.095703" xlink:href="#DejaVuSans-114"/>
       <use x="262.458984" xlink:href="#DejaVuSans-110"/>
       <use x="325.837891" xlink:href="#DejaVuSans-97"/>
       <use x="387.117188" xlink:href="#DejaVuSans-108"/>
       <use x="414.900391" xlink:href="#DejaVuSans-32"/>
       <use x="446.6875" xlink:href="#DejaVuSans-112"/>
       <use x="510.164062" xlink:href="#DejaVuSans-97"/>
       <use x="571.443359" xlink:href="#DejaVuSans-99"/>
       <use x="626.423828" xlink:href="#DejaVuSans-107"/>
       <use x="682.583984" xlink:href="#DejaVuSans-97"/>
       <use x="743.863281" xlink:href="#DejaVuSans-103"/>
       <use x="807.339844" xlink:href="#DejaVuSans-101"/>
       <use x="868.863281" xlink:href="#DejaVuSans-115"/>
      </g>
     </g>
    </g>
    <g id="ytick_19">
     <g id="line2d_27">
      <g>
       <use style="stroke:#000000;stroke-width:0.8;" x="146.964063" xlink:href="#m02e688306f" y="36.955125"/>
      </g>
     </g>
     <g id="text_28">
      <!-- Module generation -->
      <g transform="translate(46.035938 40.754344)scale(0.1 -0.1)">
       <defs>
        <path d="M 9.8125 72.90625 
L 24.515625 72.90625 
L 43.109375 23.296875 
L 61.8125 72.90625 
L 76.515625 72.90625 
L 76.515625 0 
L 66.890625 0 
L 66.890625 64.015625 
L 48.09375 14.015625 
L 38.1875 14.015625 
L 19.390625 64.015625 
L 19.390625 0 
L 9.8125 0 
z
" id="DejaVuSans-77"/>
       </defs>
       <use xlink:href="#DejaVuSans-77"/>
       <use x="86.279297" xlink:href="#DejaVuSans-111"/>
       <use x="147.460938" xlink:href="#DejaVuSans-100"/>
       <use x="210.9375" xlink:href="#DejaVuSans-117"/>
       <use x="274.316406" xlink:href="#DejaVuSans-108"/>
       <use x="302.099609" xlink:href="#DejaVuSans-101"/>
       <use x="363.623047" xlink:href="#DejaVuSans-32"/>
       <use x="395.410156" xlink:href="#DejaVuSans-103"/>
       <use x="458.886719" xlink:href="#DejaVuSans-101"/>
       <use x="520.410156" xlink:href="#DejaVuSans-110"/>
       <use x="583.789062" xlink:href="#DejaVuSans-101"/>
       <use x="645.3125" xlink:href="#DejaVuSans-114"/>
       <use x="686.425781" xlink:href="#DejaVuSans-97"/>
       <use x="747.705078" xlink:href="#DejaVuSans-116"/>
       <use x="786.914062" xlink:href="#DejaVuSans-105"/>
       <use x="814.697266" xlink:href="#DejaVuSans-111"/>
       <use x="875.878906" xlink:href="#DejaVuSans-110"/>
      </g>
     </g>
    </g>
    <g id="ytick_20">
     <g id="line2d_28">
      <g>
       <use style="stroke:#000000;stroke-width:0.8;" x="146.964063" xlink:href="#m02e688306f" y="22.397125"/>
      </g>
     </g>
     <g id="text_29">
      <!-- Environments -->
      <g transform="translate(70.907813 26.196344)scale(0.1 -0.1)">
       <use xlink:href="#DejaVuSans-69"/>
       <use x="63.183594" xlink:href="#DejaVuSans-110"/>
       <use x="126.5625" xlink:href="#DejaVuSans-118"/>
       <use x="185.742188" xlink:href="#DejaVuSans-105"/>
       <use x="213.525391" xlink:href="#DejaVuSans-114"/>
       <use x="252.388672" xlink:href="#DejaVuSans-111"/>
       <use x="313.570312" xlink:href="#DejaVuSans-110"/>
       <use x="376.949219" xlink:href="#DejaVuSans-109"/>
       <use x="474.361328" xlink:href="#DejaVuSans-101"/>
       <use x="535.884766" xlink:href="#DejaVuSans-110"/>
       <use x="599.263672" xlink:href="#DejaVuSans-116"/>
       <use x="638.472656" xlink:href="#DejaVuSans-115"/>
      </g>
     </g>
    </g>
   </g>
   <g id="patch_43">
    <path d="M 146.964063 306.278125 
L 146.964063 15.118125 
" style="fill:none;stroke:#000000;stroke-linecap:square;stroke-linejoin:miter;stroke-width:0.8;"/>
   </g>
   <g id="patch_44">
    <path d="M 410.324062 306.278125 
L 410.324062 15.118125 
" style="fill:none;stroke:#000000;stroke-linecap:square;stroke-linejoin:miter;stroke-width:0.8;"/>
   </g>
   <g id="patch_45">
    <path d="M 146.964063 306.278125 
L 410.324062 306.278125 
" style="fill:none;stroke:#000000;stroke-linecap:square;stroke-linejoin:miter;stroke-width:0.8;"/>
   </g>
   <g id="patch_46">
    <path d="M 146.964063 15.118125 
L 410.324062 15.118125 
" style="fill:none;stroke:#000000;stroke-linecap:square;stroke-linejoin:miter;stroke-width:0.8;"/>
   </g>
   <g id="text_30">
    <!-- Which of the following Spack features do you use? -->
    <g transform="translate(127.11875 9.118125)scale(0.12 -0.12)">
     <defs>
      <path d="M 3.328125 72.90625 
L 13.28125 72.90625 
L 28.609375 11.28125 
L 43.890625 72.90625 
L 54.984375 72.90625 
L 70.3125 11.28125 
L 85.59375 72.90625 
L 95.609375 72.90625 
L 77.296875 0 
L 64.890625 0 
L 49.515625 63.28125 
L 33.984375 0 
L 21.578125 0 
z
" id="DejaVuSans-87"/>
      <path d="M 4.203125 54.6875 
L 13.1875 54.6875 
L 24.421875 12.015625 
L 35.59375 54.6875 
L 46.1875 54.6875 
L 57.421875 12.015625 
L 68.609375 54.6875 
L 77.59375 54.6875 
L 63.28125 0 
L 52.6875 0 
L 40.921875 44.828125 
L 29.109375 0 
L 18.5 0 
z
" id="DejaVuSans-119"/>
      <path d="M 19.09375 12.40625 
L 29 12.40625 
L 29 0 
L 19.09375 0 
z
M 28.71875 19.578125 
L 19.390625 19.578125 
L 19.390625 27.09375 
Q 19.390625 32.03125 20.75 35.203125 
Q 22.125 38.375 26.515625 42.578125 
L 30.90625 46.921875 
Q 33.6875 49.515625 34.9375 51.8125 
Q 36.1875 54.109375 36.1875 56.5 
Q 36.1875 60.84375 32.984375 63.53125 
Q 29.78125 66.21875 24.515625 66.21875 
Q 20.65625 66.21875 16.28125 64.5 
Q 11.921875 62.796875 7.171875 59.515625 
L 7.171875 68.703125 
Q 11.765625 71.484375 16.46875 72.84375 
Q 21.1875 74.21875 26.21875 74.21875 
Q 35.203125 74.21875 40.640625 69.484375 
Q 46.09375 64.75 46.09375 56.984375 
Q 46.09375 53.265625 44.328125 49.921875 
Q 42.578125 46.578125 38.1875 42.390625 
L 33.890625 38.1875 
Q 31.59375 35.890625 30.640625 34.59375 
Q 29.6875 33.296875 29.296875 32.078125 
Q 29 31.0625 28.859375 29.59375 
Q 28.71875 28.125 28.71875 25.59375 
z
" id="DejaVuSans-63"/>
     </defs>
     <use xlink:href="#DejaVuSans-87"/>
     <use x="98.876953" xlink:href="#DejaVuSans-104"/>
     <use x="162.255859" xlink:href="#DejaVuSans-105"/>
     <use x="190.039062" xlink:href="#DejaVuSans-99"/>
     <use x="245.019531" xlink:href="#DejaVuSans-104"/>
     <use x="308.398438" xlink:href="#DejaVuSans-32"/>
     <use x="340.185547" xlink:href="#DejaVuSans-111"/>
     <use x="401.367188" xlink:href="#DejaVuSans-102"/>
     <use x="436.572266" xlink:href="#DejaVuSans-32"/>
     <use x="468.359375" xlink:href="#DejaVuSans-116"/>
     <use x="507.568359" xlink:href="#DejaVuSans-104"/>
     <use x="570.947266" xlink:href="#DejaVuSans-101"/>
     <use x="632.470703" xlink:href="#DejaVuSans-32"/>
     <use x="664.257812" xlink:href="#DejaVuSans-102"/>
     <use x="699.462891" xlink:href="#DejaVuSans-111"/>
     <use x="760.644531" xlink:href="#DejaVuSans-108"/>
     <use x="788.427734" xlink:href="#DejaVuSans-108"/>
     <use x="816.210938" xlink:href="#DejaVuSans-111"/>
     <use x="877.392578" xlink:href="#DejaVuSans-119"/>
     <use x="959.179688" xlink:href="#DejaVuSans-105"/>
     <use x="986.962891" xlink:href="#DejaVuSans-110"/>
     <use x="1050.341797" xlink:href="#DejaVuSans-103"/>
     <use x="1113.818359" xlink:href="#DejaVuSans-32"/>
     <use x="1145.605469" xlink:href="#DejaVuSans-83"/>
     <use x="1209.082031" xlink:href="#DejaVuSans-112"/>
     <use x="1272.558594" xlink:href="#DejaVuSans-97"/>
     <use x="1333.837891" xlink:href="#DejaVuSans-99"/>
     <use x="1388.818359" xlink:href="#DejaVuSans-107"/>
     <use x="1446.728516" xlink:href="#DejaVuSans-32"/>
     <use x="1478.515625" xlink:href="#DejaVuSans-102"/>
     <use x="1513.720703" xlink:href="#DejaVuSans-101"/>
     <use x="1575.244141" xlink:href="#DejaVuSans-97"/>
     <use x="1636.523438" xlink:href="#DejaVuSans-116"/>
     <use x="1675.732422" xlink:href="#DejaVuSans-117"/>
     <use x="1739.111328" xlink:href="#DejaVuSans-114"/>
     <use x="1777.974609" xlink:href="#DejaVuSans-101"/>
     <use x="1839.498047" xlink:href="#DejaVuSans-115"/>
     <use x="1891.597656" xlink:href="#DejaVuSans-32"/>
     <use x="1923.384766" xlink:href="#DejaVuSans-100"/>
     <use x="1986.861328" xlink:href="#DejaVuSans-111"/>
     <use x="2048.042969" xlink:href="#DejaVuSans-32"/>
     <use x="2079.830078" xlink:href="#DejaVuSans-121"/>
     <use x="2139.009766" xlink:href="#DejaVuSans-111"/>
     <use x="2200.191406" xlink:href="#DejaVuSans-117"/>
     <use x="2263.570312" xlink:href="#DejaVuSans-32"/>
     <use x="2295.357422" xlink:href="#DejaVuSans-117"/>
     <use x="2358.736328" xlink:href="#DejaVuSans-115"/>
     <use x="2410.835938" xlink:href="#DejaVuSans-101"/>
     <use x="2472.359375" xlink:href="#DejaVuSans-63"/>
    </g>
   </g>
   <g id="legend_1">
    <g id="patch_47">
     <path d="M 342.726562 275.36875 
L 366.726562 275.36875 
L 366.726562 266.96875 
L 342.726562 266.96875 
z
" style="fill:#1f77b4;"/>
    </g>
    <g id="text_31">
     <!-- All -->
     <g transform="translate(376.326562 275.36875)scale(0.12 -0.12)">
      <defs>
       <path d="M 34.1875 63.1875 
L 20.796875 26.90625 
L 47.609375 26.90625 
z
M 28.609375 72.90625 
L 39.796875 72.90625 
L 67.578125 0 
L 57.328125 0 
L 50.6875 18.703125 
L 17.828125 18.703125 
L 11.1875 0 
L 0.78125 0 
z
" id="DejaVuSans-65"/>
      </defs>
      <use xlink:href="#DejaVuSans-65"/>
      <use x="68.408203" xlink:href="#DejaVuSans-108"/>
      <use x="96.191406" xlink:href="#DejaVuSans-108"/>
     </g>
    </g>
    <g id="patch_48">
     <path d="M 342.726562 292.9825 
L 366.726562 292.9825 
L 366.726562 284.5825 
L 342.726562 284.5825 
z
" style="fill:#ff7f0e;"/>
    </g>
    <g id="text_32">
     <!-- ECP -->
     <g transform="translate(376.326562 292.9825)scale(0.12 -0.12)">
      <use xlink:href="#DejaVuSans-69"/>
      <use x="63.183594" xlink:href="#DejaVuSans-67"/>
      <use x="133.007812" xlink:href="#DejaVuSans-80"/>
     </g>
    </g>
   </g>
  </g>
 </g>
 <defs>
  <clipPath id="p61b0fed95f">
   <rect height="291.16" width="263.36" x="146.964063" y="15.118125"/>
  </clipPath>
 </defs>
</svg>
