<?xml version="1.0" encoding="utf-8" standalone="no"?>
<!DOCTYPE svg PUBLIC "-//W3C//DTD SVG 1.1//EN"
  "http://www.w3.org/Graphics/SVG/1.1/DTD/svg11.dtd">
<!-- Created with matplotlib (https://matplotlib.org/) -->
<svg height="435.8625pt" version="1.1" viewBox="0 0 554.4 435.8625" width="554.4pt" xmlns="http://www.w3.org/2000/svg" xmlns:xlink="http://www.w3.org/1999/xlink">
 <metadata>
  <rdf:RDF xmlns:cc="http://creativecommons.org/ns#" xmlns:dc="http://purl.org/dc/elements/1.1/" xmlns:rdf="http://www.w3.org/1999/02/22-rdf-syntax-ns#">
   <cc:Work>
    <dc:type rdf:resource="http://purl.org/dc/dcmitype/StillImage"/>
    <dc:date>2020-12-02T09:56:20.825874</dc:date>
    <dc:format>image/svg+xml</dc:format>
    <dc:creator>
     <cc:Agent>
      <dc:title>Matplotlib v3.3.2, https://matplotlib.org/</dc:title>
     </cc:Agent>
    </dc:creator>
   </cc:Work>
  </rdf:RDF>
 </metadata>
 <defs>
  <style type="text/css">*{stroke-linecap:butt;stroke-linejoin:round;}</style>
 </defs>
 <g id="figure_1">
  <g id="patch_1">
   <path d="M 0 435.8625 
L 554.4 435.8625 
L 554.4 0 
L 0 0 
z
" style="fill:none;"/>
  </g>
  <g id="axes_1">
   <g id="patch_2">
    <path d="M 242.018811 179.906751 
C 242.018811 161.050804 237.113365 142.515261 227.78616 126.127766 
C 218.458956 109.740271 205.026972 96.057743 188.814631 86.429309 
C 172.602291 76.800875 154.160559 71.553751 135.307832 71.205314 
C 116.455105 70.856878 97.83208 75.418971 81.275027 84.441761 
C 64.717974 93.46455 50.789575 106.641403 40.863199 122.673053 
C 30.936824 138.704703 25.349813 157.046324 24.65306 175.889394 
C 23.956306 194.732463 28.173488 213.436611 36.888781 230.157567 
C 45.604075 246.878524 58.521297 261.048038 74.366782 271.268965 
L 133.298811 179.906751 
L 242.018811 179.906751 
z
" style="fill:#1f77b4;"/>
   </g>
   <g id="patch_3">
    <path d="M 75.288155 281.212158 
C 83.178185 286.301522 91.694356 290.347439 100.623871 293.248812 
C 109.553385 296.150186 118.821243 297.882648 128.195864 298.402907 
L 134.220184 189.849943 
L 75.288155 281.212158 
z
" style="fill:#ff7f0e;"/>
   </g>
   <g id="patch_4">
    <path d="M 130.676413 298.609666 
C 138.038271 299.018224 145.422633 298.676823 152.71539 297.590739 
C 160.008147 296.504655 167.17154 294.679511 174.094876 292.14351 
L 136.700733 190.056702 
L 130.676413 298.609666 
z
" style="fill:#2ca02c;"/>
   </g>
   <g id="patch_5">
    <path d="M 175.717178 291.632916 
C 179.491264 290.250477 183.185786 288.659814 186.783725 286.868252 
C 190.381665 285.07669 193.877488 283.086986 197.255092 280.908304 
L 138.323035 189.546107 
L 175.717178 291.632916 
z
" style="fill:#d62728;"/>
   </g>
   <g id="patch_6">
    <path d="M 198.266039 280.256205 
C 201.643643 278.077524 204.897832 275.713216 208.013618 273.174172 
C 211.129403 270.635128 214.101992 267.925254 216.917692 265.057033 
L 139.333982 188.894008 
L 198.266039 280.256205 
z
" style="fill:#9467bd;"/>
   </g>
   <g id="patch_7">
    <path d="M 217.69772 264.277005 
C 220.043953 261.887007 222.278496 259.38987 224.394199 256.793585 
C 226.509902 254.1973 228.504506 251.504638 230.371629 248.724215 
L 140.114009 188.11398 
L 217.69772 264.277005 
z
" style="fill:#8c564b;"/>
   </g>
   <g id="patch_8">
    <path d="M 230.831492 248.066025 
C 231.951638 246.397961 233.025327 244.699166 234.051323 242.971596 
C 235.077318 241.244026 236.055225 239.488346 236.983917 237.706578 
L 140.573873 187.45579 
L 230.831492 248.066025 
z
" style="fill:#e377c2;"/>
   </g>
   <g id="patch_9">
    <path d="M 237.220097 237.263486 
C 237.839203 236.075684 238.436305 234.876541 239.011097 233.666672 
C 239.585889 232.456804 240.138273 231.236416 240.667966 230.006135 
L 140.810052 187.012699 
L 237.220097 237.263486 
z
" style="fill:#7f7f7f;"/>
   </g>
   <g id="patch_10">
    <path d="M 240.826833 229.637145 
C 241.356526 228.406863 241.863437 227.166897 242.347308 225.917883 
C 242.831178 224.668869 243.291925 223.411019 243.729312 222.144977 
L 140.968919 186.643709 
L 240.826833 229.637145 
z
" style="fill:#bcbd22;"/>
   </g>
   <g id="patch_11">
    <path d="M 243.830336 221.861084 
C 244.049025 221.228077 244.26186 220.593063 244.468815 219.956123 
C 244.675769 219.319183 244.876833 218.680344 245.071982 218.039688 
L 141.069944 186.359815 
L 243.830336 221.861084 
z
" style="fill:#17becf;"/>
   </g>
   <g id="patch_12">
    <path d="M 245.130523 217.847504 
C 245.325672 217.206848 245.514897 216.564403 245.698174 215.920251 
C 245.881451 215.276098 246.058772 214.630266 246.230115 213.982837 
L 141.128484 186.167631 
L 245.130523 217.847504 
z
" style="fill:#1f77b4;"/>
   </g>
   <g id="patch_13">
    <path d="M 246.281514 213.788621 
C 246.452857 213.141192 246.618213 212.492193 246.777563 211.841708 
C 246.936912 211.191223 247.090248 210.53928 247.23755 209.885962 
L 141.179884 185.973415 
L 246.281514 213.788621 
z
" style="fill:#ff7f0e;"/>
   </g>
   <g id="patch_14">
    <path d="M 247.281738 209.689979 
C 247.42904 209.03666 247.570302 208.381995 247.705506 207.726066 
C 247.84071 207.070137 247.969851 206.412973 248.092911 205.754658 
L 141.224072 185.777432 
L 247.281738 209.689979 
z
" style="fill:#2ca02c;"/>
   </g>
   <g id="patch_15">
    <path d="M 248.129827 205.557176 
C 248.252887 204.898861 248.369862 204.239423 248.480736 203.578946 
C 248.591611 202.918469 248.69638 202.256982 248.79503 201.594569 
L 141.260987 185.57995 
L 248.129827 205.557176 
z
" style="fill:#d62728;"/>
   </g>
   <g id="patch_16">
    <path d="M 248.824624 201.395858 
C 248.923274 200.733445 249.015802 200.070135 249.102195 199.406012 
C 249.188588 198.741889 249.268842 198.076982 249.342948 197.411377 
L 141.290581 185.381239 
L 248.824624 201.395858 
z
" style="fill:#9467bd;"/>
   </g>
   <g id="patch_17">
    <path d="M 249.365179 197.211708 
C 249.439285 196.546102 249.507239 195.879826 249.569033 195.212964 
C 249.630826 194.546103 249.686457 193.878684 249.735917 193.210795 
L 141.312811 185.18157 
L 249.365179 197.211708 
z
" style="fill:#8c564b;"/>
   </g>
   <g id="patch_18">
    <path d="M 249.750754 193.010441 
C 249.800215 192.342551 249.843502 191.674219 249.880612 191.005529 
C 249.917722 190.33684 249.948653 189.667822 249.9734 188.998561 
L 141.327648 184.981216 
L 249.750754 193.010441 
z
" style="fill:#e377c2;"/>
   </g>
   <g id="patch_19">
    <path d="M 249.980823 188.797795 
C 250.00557 188.128534 250.024133 187.459059 250.036508 186.789455 
C 250.048884 186.119851 250.055072 185.450147 250.055072 184.780428 
L 141.335072 184.78045 
L 249.980823 188.797795 
z
" style="fill:#7f7f7f;"/>
   </g>
   <g id="matplotlib.axis_1"/>
   <g id="matplotlib.axis_2"/>
   <g id="text_1">
    <!-- 65.9% -->
    <g style="fill:#ffffff;" transform="translate(77.82185 116.392508)scale(0.12 -0.12)">
     <defs>
      <path d="M 33.015625 40.375 
Q 26.375 40.375 22.484375 35.828125 
Q 18.609375 31.296875 18.609375 23.390625 
Q 18.609375 15.53125 22.484375 10.953125 
Q 26.375 6.390625 33.015625 6.390625 
Q 39.65625 6.390625 43.53125 10.953125 
Q 47.40625 15.53125 47.40625 23.390625 
Q 47.40625 31.296875 43.53125 35.828125 
Q 39.65625 40.375 33.015625 40.375 
z
M 52.59375 71.296875 
L 52.59375 62.3125 
Q 48.875 64.0625 45.09375 64.984375 
Q 41.3125 65.921875 37.59375 65.921875 
Q 27.828125 65.921875 22.671875 59.328125 
Q 17.53125 52.734375 16.796875 39.40625 
Q 19.671875 43.65625 24.015625 45.921875 
Q 28.375 48.1875 33.59375 48.1875 
Q 44.578125 48.1875 50.953125 41.515625 
Q 57.328125 34.859375 57.328125 23.390625 
Q 57.328125 12.15625 50.6875 5.359375 
Q 44.046875 -1.421875 33.015625 -1.421875 
Q 20.359375 -1.421875 13.671875 8.265625 
Q 6.984375 17.96875 6.984375 36.375 
Q 6.984375 53.65625 15.1875 63.9375 
Q 23.390625 74.21875 37.203125 74.21875 
Q 40.921875 74.21875 44.703125 73.484375 
Q 48.484375 72.75 52.59375 71.296875 
z
" id="DejaVuSans-54"/>
      <path d="M 10.796875 72.90625 
L 49.515625 72.90625 
L 49.515625 64.59375 
L 19.828125 64.59375 
L 19.828125 46.734375 
Q 21.96875 47.46875 24.109375 47.828125 
Q 26.265625 48.1875 28.421875 48.1875 
Q 40.625 48.1875 47.75 41.5 
Q 54.890625 34.8125 54.890625 23.390625 
Q 54.890625 11.625 47.5625 5.09375 
Q 40.234375 -1.421875 26.90625 -1.421875 
Q 22.3125 -1.421875 17.546875 -0.640625 
Q 12.796875 0.140625 7.71875 1.703125 
L 7.71875 11.625 
Q 12.109375 9.234375 16.796875 8.0625 
Q 21.484375 6.890625 26.703125 6.890625 
Q 35.15625 6.890625 40.078125 11.328125 
Q 45.015625 15.765625 45.015625 23.390625 
Q 45.015625 31 40.078125 35.4375 
Q 35.15625 39.890625 26.703125 39.890625 
Q 22.75 39.890625 18.8125 39.015625 
Q 14.890625 38.140625 10.796875 36.28125 
z
" id="DejaVuSans-53"/>
      <path d="M 10.6875 12.40625 
L 21 12.40625 
L 21 0 
L 10.6875 0 
z
" id="DejaVuSans-46"/>
      <path d="M 10.984375 1.515625 
L 10.984375 10.5 
Q 14.703125 8.734375 18.5 7.8125 
Q 22.3125 6.890625 25.984375 6.890625 
Q 35.75 6.890625 40.890625 13.453125 
Q 46.046875 20.015625 46.78125 33.40625 
Q 43.953125 29.203125 39.59375 26.953125 
Q 35.25 24.703125 29.984375 24.703125 
Q 19.046875 24.703125 12.671875 31.3125 
Q 6.296875 37.9375 6.296875 49.421875 
Q 6.296875 60.640625 12.9375 67.421875 
Q 19.578125 74.21875 30.609375 74.21875 
Q 43.265625 74.21875 49.921875 64.515625 
Q 56.59375 54.828125 56.59375 36.375 
Q 56.59375 19.140625 48.40625 8.859375 
Q 40.234375 -1.421875 26.421875 -1.421875 
Q 22.703125 -1.421875 18.890625 -0.6875 
Q 15.09375 0.046875 10.984375 1.515625 
z
M 30.609375 32.421875 
Q 37.25 32.421875 41.125 36.953125 
Q 45.015625 41.5 45.015625 49.421875 
Q 45.015625 57.28125 41.125 61.84375 
Q 37.25 66.40625 30.609375 66.40625 
Q 23.96875 66.40625 20.09375 61.84375 
Q 16.21875 57.28125 16.21875 49.421875 
Q 16.21875 41.5 20.09375 36.953125 
Q 23.96875 32.421875 30.609375 32.421875 
z
" id="DejaVuSans-57"/>
      <path d="M 72.703125 32.078125 
Q 68.453125 32.078125 66.03125 28.46875 
Q 63.625 24.859375 63.625 18.40625 
Q 63.625 12.0625 66.03125 8.421875 
Q 68.453125 4.78125 72.703125 4.78125 
Q 76.859375 4.78125 79.265625 8.421875 
Q 81.6875 12.0625 81.6875 18.40625 
Q 81.6875 24.8125 79.265625 28.4375 
Q 76.859375 32.078125 72.703125 32.078125 
z
M 72.703125 38.28125 
Q 80.421875 38.28125 84.953125 32.90625 
Q 89.5 27.546875 89.5 18.40625 
Q 89.5 9.28125 84.9375 3.921875 
Q 80.375 -1.421875 72.703125 -1.421875 
Q 64.890625 -1.421875 60.34375 3.921875 
Q 55.8125 9.28125 55.8125 18.40625 
Q 55.8125 27.59375 60.375 32.9375 
Q 64.9375 38.28125 72.703125 38.28125 
z
M 22.3125 68.015625 
Q 18.109375 68.015625 15.6875 64.375 
Q 13.28125 60.75 13.28125 54.390625 
Q 13.28125 47.953125 15.671875 44.328125 
Q 18.0625 40.71875 22.3125 40.71875 
Q 26.5625 40.71875 28.96875 44.328125 
Q 31.390625 47.953125 31.390625 54.390625 
Q 31.390625 60.6875 28.953125 64.34375 
Q 26.515625 68.015625 22.3125 68.015625 
z
M 66.40625 74.21875 
L 74.21875 74.21875 
L 28.609375 -1.421875 
L 20.796875 -1.421875 
z
M 22.3125 74.21875 
Q 30.03125 74.21875 34.609375 68.875 
Q 39.203125 63.53125 39.203125 54.390625 
Q 39.203125 45.171875 34.640625 39.84375 
Q 30.078125 34.515625 22.3125 34.515625 
Q 14.546875 34.515625 10.03125 39.859375 
Q 5.515625 45.21875 5.515625 54.390625 
Q 5.515625 63.484375 10.046875 68.84375 
Q 14.59375 74.21875 22.3125 74.21875 
z
" id="DejaVuSans-37"/>
     </defs>
     <use xlink:href="#DejaVuSans-54"/>
     <use x="63.623047" xlink:href="#DejaVuSans-53"/>
     <use x="127.246094" xlink:href="#DejaVuSans-46"/>
     <use x="159.033203" xlink:href="#DejaVuSans-57"/>
     <use x="222.65625" xlink:href="#DejaVuSans-37"/>
    </g>
   </g>
   <g id="text_2">
    <!-- 8.2% -->
    <g style="fill:#ffffff;" transform="translate(95.459952 265.540402)scale(0.12 -0.12)">
     <defs>
      <path d="M 31.78125 34.625 
Q 24.75 34.625 20.71875 30.859375 
Q 16.703125 27.09375 16.703125 20.515625 
Q 16.703125 13.921875 20.71875 10.15625 
Q 24.75 6.390625 31.78125 6.390625 
Q 38.8125 6.390625 42.859375 10.171875 
Q 46.921875 13.96875 46.921875 20.515625 
Q 46.921875 27.09375 42.890625 30.859375 
Q 38.875 34.625 31.78125 34.625 
z
M 21.921875 38.8125 
Q 15.578125 40.375 12.03125 44.71875 
Q 8.5 49.078125 8.5 55.328125 
Q 8.5 64.0625 14.71875 69.140625 
Q 20.953125 74.21875 31.78125 74.21875 
Q 42.671875 74.21875 48.875 69.140625 
Q 55.078125 64.0625 55.078125 55.328125 
Q 55.078125 49.078125 51.53125 44.71875 
Q 48 40.375 41.703125 38.8125 
Q 48.828125 37.15625 52.796875 32.3125 
Q 56.78125 27.484375 56.78125 20.515625 
Q 56.78125 9.90625 50.3125 4.234375 
Q 43.84375 -1.421875 31.78125 -1.421875 
Q 19.734375 -1.421875 13.25 4.234375 
Q 6.78125 9.90625 6.78125 20.515625 
Q 6.78125 27.484375 10.78125 32.3125 
Q 14.796875 37.15625 21.921875 38.8125 
z
M 18.3125 54.390625 
Q 18.3125 48.734375 21.84375 45.5625 
Q 25.390625 42.390625 31.78125 42.390625 
Q 38.140625 42.390625 41.71875 45.5625 
Q 45.3125 48.734375 45.3125 54.390625 
Q 45.3125 60.0625 41.71875 63.234375 
Q 38.140625 66.40625 31.78125 66.40625 
Q 25.390625 66.40625 21.84375 63.234375 
Q 18.3125 60.0625 18.3125 54.390625 
z
" id="DejaVuSans-56"/>
      <path d="M 19.1875 8.296875 
L 53.609375 8.296875 
L 53.609375 0 
L 7.328125 0 
L 7.328125 8.296875 
Q 12.9375 14.109375 22.625 23.890625 
Q 32.328125 33.6875 34.8125 36.53125 
Q 39.546875 41.84375 41.421875 45.53125 
Q 43.3125 49.21875 43.3125 52.78125 
Q 43.3125 58.59375 39.234375 62.25 
Q 35.15625 65.921875 28.609375 65.921875 
Q 23.96875 65.921875 18.8125 64.3125 
Q 13.671875 62.703125 7.8125 59.421875 
L 7.8125 69.390625 
Q 13.765625 71.78125 18.9375 73 
Q 24.125 74.21875 28.421875 74.21875 
Q 39.75 74.21875 46.484375 68.546875 
Q 53.21875 62.890625 53.21875 53.421875 
Q 53.21875 48.921875 51.53125 44.890625 
Q 49.859375 40.875 45.40625 35.40625 
Q 44.1875 33.984375 37.640625 27.21875 
Q 31.109375 20.453125 19.1875 8.296875 
z
" id="DejaVuSans-50"/>
     </defs>
     <use xlink:href="#DejaVuSans-56"/>
     <use x="63.623047" xlink:href="#DejaVuSans-46"/>
     <use x="95.410156" xlink:href="#DejaVuSans-50"/>
     <use x="159.033203" xlink:href="#DejaVuSans-37"/>
    </g>
   </g>
   <g id="text_3">
    <!-- 6.5% -->
    <g style="fill:#ffffff;" transform="translate(132.66818 268.641778)scale(0.12 -0.12)">
     <use xlink:href="#DejaVuSans-54"/>
     <use x="63.623047" xlink:href="#DejaVuSans-46"/>
     <use x="95.410156" xlink:href="#DejaVuSans-53"/>
     <use x="159.033203" xlink:href="#DejaVuSans-37"/>
    </g>
   </g>
   <g id="text_4">
    <!-- All -->
    <g transform="translate(128.461875 42.78)scale(0.12 -0.12)">
     <defs>
      <path d="M 34.1875 63.1875 
L 20.796875 26.90625 
L 47.609375 26.90625 
z
M 28.609375 72.90625 
L 39.796875 72.90625 
L 67.578125 0 
L 57.328125 0 
L 50.6875 18.703125 
L 17.828125 18.703125 
L 11.1875 0 
L 0.78125 0 
z
" id="DejaVuSans-65"/>
      <path d="M 9.421875 75.984375 
L 18.40625 75.984375 
L 18.40625 0 
L 9.421875 0 
z
" id="DejaVuSans-108"/>
     </defs>
     <use xlink:href="#DejaVuSans-65"/>
     <use x="68.408203" xlink:href="#DejaVuSans-108"/>
     <use x="96.191406" xlink:href="#DejaVuSans-108"/>
    </g>
   </g>
   <g id="legend_1">
    <g id="patch_20">
     <path d="M 10.8 340.498125 
L 34.8 340.498125 
L 34.8 332.098125 
L 10.8 332.098125 
z
" style="fill:#1f77b4;"/>
    </g>
    <g id="text_5">
     <!-- United States -->
     <g transform="translate(44.4 340.498125)scale(0.12 -0.12)">
      <defs>
       <path d="M 8.6875 72.90625 
L 18.609375 72.90625 
L 18.609375 28.609375 
Q 18.609375 16.890625 22.84375 11.734375 
Q 27.09375 6.59375 36.625 6.59375 
Q 46.09375 6.59375 50.34375 11.734375 
Q 54.59375 16.890625 54.59375 28.609375 
L 54.59375 72.90625 
L 64.5 72.90625 
L 64.5 27.390625 
Q 64.5 13.140625 57.4375 5.859375 
Q 50.390625 -1.421875 36.625 -1.421875 
Q 22.796875 -1.421875 15.734375 5.859375 
Q 8.6875 13.140625 8.6875 27.390625 
z
" id="DejaVuSans-85"/>
       <path d="M 54.890625 33.015625 
L 54.890625 0 
L 45.90625 0 
L 45.90625 32.71875 
Q 45.90625 40.484375 42.875 44.328125 
Q 39.84375 48.1875 33.796875 48.1875 
Q 26.515625 48.1875 22.3125 43.546875 
Q 18.109375 38.921875 18.109375 30.90625 
L 18.109375 0 
L 9.078125 0 
L 9.078125 54.6875 
L 18.109375 54.6875 
L 18.109375 46.1875 
Q 21.34375 51.125 25.703125 53.5625 
Q 30.078125 56 35.796875 56 
Q 45.21875 56 50.046875 50.171875 
Q 54.890625 44.34375 54.890625 33.015625 
z
" id="DejaVuSans-110"/>
       <path d="M 9.421875 54.6875 
L 18.40625 54.6875 
L 18.40625 0 
L 9.421875 0 
z
M 9.421875 75.984375 
L 18.40625 75.984375 
L 18.40625 64.59375 
L 9.421875 64.59375 
z
" id="DejaVuSans-105"/>
       <path d="M 18.3125 70.21875 
L 18.3125 54.6875 
L 36.8125 54.6875 
L 36.8125 47.703125 
L 18.3125 47.703125 
L 18.3125 18.015625 
Q 18.3125 11.328125 20.140625 9.421875 
Q 21.96875 7.515625 27.59375 7.515625 
L 36.8125 7.515625 
L 36.8125 0 
L 27.59375 0 
Q 17.1875 0 13.234375 3.875 
Q 9.28125 7.765625 9.28125 18.015625 
L 9.28125 47.703125 
L 2.6875 47.703125 
L 2.6875 54.6875 
L 9.28125 54.6875 
L 9.28125 70.21875 
z
" id="DejaVuSans-116"/>
       <path d="M 56.203125 29.59375 
L 56.203125 25.203125 
L 14.890625 25.203125 
Q 15.484375 15.921875 20.484375 11.0625 
Q 25.484375 6.203125 34.421875 6.203125 
Q 39.59375 6.203125 44.453125 7.46875 
Q 49.3125 8.734375 54.109375 11.28125 
L 54.109375 2.78125 
Q 49.265625 0.734375 44.1875 -0.34375 
Q 39.109375 -1.421875 33.890625 -1.421875 
Q 20.796875 -1.421875 13.15625 6.1875 
Q 5.515625 13.8125 5.515625 26.8125 
Q 5.515625 40.234375 12.765625 48.109375 
Q 20.015625 56 32.328125 56 
Q 43.359375 56 49.78125 48.890625 
Q 56.203125 41.796875 56.203125 29.59375 
z
M 47.21875 32.234375 
Q 47.125 39.59375 43.09375 43.984375 
Q 39.0625 48.390625 32.421875 48.390625 
Q 24.90625 48.390625 20.390625 44.140625 
Q 15.875 39.890625 15.1875 32.171875 
z
" id="DejaVuSans-101"/>
       <path d="M 45.40625 46.390625 
L 45.40625 75.984375 
L 54.390625 75.984375 
L 54.390625 0 
L 45.40625 0 
L 45.40625 8.203125 
Q 42.578125 3.328125 38.25 0.953125 
Q 33.9375 -1.421875 27.875 -1.421875 
Q 17.96875 -1.421875 11.734375 6.484375 
Q 5.515625 14.40625 5.515625 27.296875 
Q 5.515625 40.1875 11.734375 48.09375 
Q 17.96875 56 27.875 56 
Q 33.9375 56 38.25 53.625 
Q 42.578125 51.265625 45.40625 46.390625 
z
M 14.796875 27.296875 
Q 14.796875 17.390625 18.875 11.75 
Q 22.953125 6.109375 30.078125 6.109375 
Q 37.203125 6.109375 41.296875 11.75 
Q 45.40625 17.390625 45.40625 27.296875 
Q 45.40625 37.203125 41.296875 42.84375 
Q 37.203125 48.484375 30.078125 48.484375 
Q 22.953125 48.484375 18.875 42.84375 
Q 14.796875 37.203125 14.796875 27.296875 
z
" id="DejaVuSans-100"/>
       <path id="DejaVuSans-32"/>
       <path d="M 53.515625 70.515625 
L 53.515625 60.890625 
Q 47.90625 63.578125 42.921875 64.890625 
Q 37.9375 66.21875 33.296875 66.21875 
Q 25.25 66.21875 20.875 63.09375 
Q 16.5 59.96875 16.5 54.203125 
Q 16.5 49.359375 19.40625 46.890625 
Q 22.3125 44.4375 30.421875 42.921875 
L 36.375 41.703125 
Q 47.40625 39.59375 52.65625 34.296875 
Q 57.90625 29 57.90625 20.125 
Q 57.90625 9.515625 50.796875 4.046875 
Q 43.703125 -1.421875 29.984375 -1.421875 
Q 24.8125 -1.421875 18.96875 -0.25 
Q 13.140625 0.921875 6.890625 3.21875 
L 6.890625 13.375 
Q 12.890625 10.015625 18.65625 8.296875 
Q 24.421875 6.59375 29.984375 6.59375 
Q 38.421875 6.59375 43.015625 9.90625 
Q 47.609375 13.234375 47.609375 19.390625 
Q 47.609375 24.75 44.3125 27.78125 
Q 41.015625 30.8125 33.5 32.328125 
L 27.484375 33.5 
Q 16.453125 35.6875 11.515625 40.375 
Q 6.59375 45.0625 6.59375 53.421875 
Q 6.59375 63.09375 13.40625 68.65625 
Q 20.21875 74.21875 32.171875 74.21875 
Q 37.3125 74.21875 42.625 73.28125 
Q 47.953125 72.359375 53.515625 70.515625 
z
" id="DejaVuSans-83"/>
       <path d="M 34.28125 27.484375 
Q 23.390625 27.484375 19.1875 25 
Q 14.984375 22.515625 14.984375 16.5 
Q 14.984375 11.71875 18.140625 8.90625 
Q 21.296875 6.109375 26.703125 6.109375 
Q 34.1875 6.109375 38.703125 11.40625 
Q 43.21875 16.703125 43.21875 25.484375 
L 43.21875 27.484375 
z
M 52.203125 31.203125 
L 52.203125 0 
L 43.21875 0 
L 43.21875 8.296875 
Q 40.140625 3.328125 35.546875 0.953125 
Q 30.953125 -1.421875 24.3125 -1.421875 
Q 15.921875 -1.421875 10.953125 3.296875 
Q 6 8.015625 6 15.921875 
Q 6 25.140625 12.171875 29.828125 
Q 18.359375 34.515625 30.609375 34.515625 
L 43.21875 34.515625 
L 43.21875 35.40625 
Q 43.21875 41.609375 39.140625 45 
Q 35.0625 48.390625 27.6875 48.390625 
Q 23 48.390625 18.546875 47.265625 
Q 14.109375 46.140625 10.015625 43.890625 
L 10.015625 52.203125 
Q 14.9375 54.109375 19.578125 55.046875 
Q 24.21875 56 28.609375 56 
Q 40.484375 56 46.34375 49.84375 
Q 52.203125 43.703125 52.203125 31.203125 
z
" id="DejaVuSans-97"/>
       <path d="M 44.28125 53.078125 
L 44.28125 44.578125 
Q 40.484375 46.53125 36.375 47.5 
Q 32.28125 48.484375 27.875 48.484375 
Q 21.1875 48.484375 17.84375 46.4375 
Q 14.5 44.390625 14.5 40.28125 
Q 14.5 37.15625 16.890625 35.375 
Q 19.28125 33.59375 26.515625 31.984375 
L 29.59375 31.296875 
Q 39.15625 29.25 43.1875 25.515625 
Q 47.21875 21.78125 47.21875 15.09375 
Q 47.21875 7.46875 41.1875 3.015625 
Q 35.15625 -1.421875 24.609375 -1.421875 
Q 20.21875 -1.421875 15.453125 -0.5625 
Q 10.6875 0.296875 5.421875 2 
L 5.421875 11.28125 
Q 10.40625 8.6875 15.234375 7.390625 
Q 20.0625 6.109375 24.8125 6.109375 
Q 31.15625 6.109375 34.5625 8.28125 
Q 37.984375 10.453125 37.984375 14.40625 
Q 37.984375 18.0625 35.515625 20.015625 
Q 33.0625 21.96875 24.703125 23.78125 
L 21.578125 24.515625 
Q 13.234375 26.265625 9.515625 29.90625 
Q 5.8125 33.546875 5.8125 39.890625 
Q 5.8125 47.609375 11.28125 51.796875 
Q 16.75 56 26.8125 56 
Q 31.78125 56 36.171875 55.265625 
Q 40.578125 54.546875 44.28125 53.078125 
z
" id="DejaVuSans-115"/>
      </defs>
      <use xlink:href="#DejaVuSans-85"/>
      <use x="73.193359" xlink:href="#DejaVuSans-110"/>
      <use x="136.572266" xlink:href="#DejaVuSans-105"/>
      <use x="164.355469" xlink:href="#DejaVuSans-116"/>
      <use x="203.564453" xlink:href="#DejaVuSans-101"/>
      <use x="265.087891" xlink:href="#DejaVuSans-100"/>
      <use x="328.564453" xlink:href="#DejaVuSans-32"/>
      <use x="360.351562" xlink:href="#DejaVuSans-83"/>
      <use x="423.828125" xlink:href="#DejaVuSans-116"/>
      <use x="463.037109" xlink:href="#DejaVuSans-97"/>
      <use x="524.316406" xlink:href="#DejaVuSans-116"/>
      <use x="563.525391" xlink:href="#DejaVuSans-101"/>
      <use x="625.048828" xlink:href="#DejaVuSans-115"/>
     </g>
    </g>
    <g id="patch_21">
     <path d="M 10.8 358.111875 
L 34.8 358.111875 
L 34.8 349.711875 
L 10.8 349.711875 
z
" style="fill:#ff7f0e;"/>
    </g>
    <g id="text_6">
     <!-- Germany -->
     <g transform="translate(44.4 358.111875)scale(0.12 -0.12)">
      <defs>
       <path d="M 59.515625 10.40625 
L 59.515625 29.984375 
L 43.40625 29.984375 
L 43.40625 38.09375 
L 69.28125 38.09375 
L 69.28125 6.78125 
Q 63.578125 2.734375 56.6875 0.65625 
Q 49.8125 -1.421875 42 -1.421875 
Q 24.90625 -1.421875 15.25 8.5625 
Q 5.609375 18.5625 5.609375 36.375 
Q 5.609375 54.25 15.25 64.234375 
Q 24.90625 74.21875 42 74.21875 
Q 49.125 74.21875 55.546875 72.453125 
Q 61.96875 70.703125 67.390625 67.28125 
L 67.390625 56.78125 
Q 61.921875 61.421875 55.765625 63.765625 
Q 49.609375 66.109375 42.828125 66.109375 
Q 29.4375 66.109375 22.71875 58.640625 
Q 16.015625 51.171875 16.015625 36.375 
Q 16.015625 21.625 22.71875 14.15625 
Q 29.4375 6.6875 42.828125 6.6875 
Q 48.046875 6.6875 52.140625 7.59375 
Q 56.25 8.5 59.515625 10.40625 
z
" id="DejaVuSans-71"/>
       <path d="M 41.109375 46.296875 
Q 39.59375 47.171875 37.8125 47.578125 
Q 36.03125 48 33.890625 48 
Q 26.265625 48 22.1875 43.046875 
Q 18.109375 38.09375 18.109375 28.8125 
L 18.109375 0 
L 9.078125 0 
L 9.078125 54.6875 
L 18.109375 54.6875 
L 18.109375 46.1875 
Q 20.953125 51.171875 25.484375 53.578125 
Q 30.03125 56 36.53125 56 
Q 37.453125 56 38.578125 55.875 
Q 39.703125 55.765625 41.0625 55.515625 
z
" id="DejaVuSans-114"/>
       <path d="M 52 44.1875 
Q 55.375 50.25 60.0625 53.125 
Q 64.75 56 71.09375 56 
Q 79.640625 56 84.28125 50.015625 
Q 88.921875 44.046875 88.921875 33.015625 
L 88.921875 0 
L 79.890625 0 
L 79.890625 32.71875 
Q 79.890625 40.578125 77.09375 44.375 
Q 74.3125 48.1875 68.609375 48.1875 
Q 61.625 48.1875 57.5625 43.546875 
Q 53.515625 38.921875 53.515625 30.90625 
L 53.515625 0 
L 44.484375 0 
L 44.484375 32.71875 
Q 44.484375 40.625 41.703125 44.40625 
Q 38.921875 48.1875 33.109375 48.1875 
Q 26.21875 48.1875 22.15625 43.53125 
Q 18.109375 38.875 18.109375 30.90625 
L 18.109375 0 
L 9.078125 0 
L 9.078125 54.6875 
L 18.109375 54.6875 
L 18.109375 46.1875 
Q 21.1875 51.21875 25.484375 53.609375 
Q 29.78125 56 35.6875 56 
Q 41.65625 56 45.828125 52.96875 
Q 50 49.953125 52 44.1875 
z
" id="DejaVuSans-109"/>
       <path d="M 32.171875 -5.078125 
Q 28.375 -14.84375 24.75 -17.8125 
Q 21.140625 -20.796875 15.09375 -20.796875 
L 7.90625 -20.796875 
L 7.90625 -13.28125 
L 13.1875 -13.28125 
Q 16.890625 -13.28125 18.9375 -11.515625 
Q 21 -9.765625 23.484375 -3.21875 
L 25.09375 0.875 
L 2.984375 54.6875 
L 12.5 54.6875 
L 29.59375 11.921875 
L 46.6875 54.6875 
L 56.203125 54.6875 
z
" id="DejaVuSans-121"/>
      </defs>
      <use xlink:href="#DejaVuSans-71"/>
      <use x="77.490234" xlink:href="#DejaVuSans-101"/>
      <use x="139.013672" xlink:href="#DejaVuSans-114"/>
      <use x="178.376953" xlink:href="#DejaVuSans-109"/>
      <use x="275.789062" xlink:href="#DejaVuSans-97"/>
      <use x="337.068359" xlink:href="#DejaVuSans-110"/>
      <use x="400.447266" xlink:href="#DejaVuSans-121"/>
     </g>
    </g>
    <g id="patch_22">
     <path d="M 10.8 375.725625 
L 34.8 375.725625 
L 34.8 367.325625 
L 10.8 367.325625 
z
" style="fill:#2ca02c;"/>
    </g>
    <g id="text_7">
     <!-- Switzerland -->
     <g transform="translate(44.4 375.725625)scale(0.12 -0.12)">
      <defs>
       <path d="M 4.203125 54.6875 
L 13.1875 54.6875 
L 24.421875 12.015625 
L 35.59375 54.6875 
L 46.1875 54.6875 
L 57.421875 12.015625 
L 68.609375 54.6875 
L 77.59375 54.6875 
L 63.28125 0 
L 52.6875 0 
L 40.921875 44.828125 
L 29.109375 0 
L 18.5 0 
z
" id="DejaVuSans-119"/>
       <path d="M 5.515625 54.6875 
L 48.1875 54.6875 
L 48.1875 46.484375 
L 14.40625 7.171875 
L 48.1875 7.171875 
L 48.1875 0 
L 4.296875 0 
L 4.296875 8.203125 
L 38.09375 47.515625 
L 5.515625 47.515625 
z
" id="DejaVuSans-122"/>
      </defs>
      <use xlink:href="#DejaVuSans-83"/>
      <use x="63.476562" xlink:href="#DejaVuSans-119"/>
      <use x="145.263672" xlink:href="#DejaVuSans-105"/>
      <use x="173.046875" xlink:href="#DejaVuSans-116"/>
      <use x="212.255859" xlink:href="#DejaVuSans-122"/>
      <use x="264.746094" xlink:href="#DejaVuSans-101"/>
      <use x="326.269531" xlink:href="#DejaVuSans-114"/>
      <use x="367.382812" xlink:href="#DejaVuSans-108"/>
      <use x="395.166016" xlink:href="#DejaVuSans-97"/>
      <use x="456.445312" xlink:href="#DejaVuSans-110"/>
      <use x="519.824219" xlink:href="#DejaVuSans-100"/>
     </g>
    </g>
    <g id="patch_23">
     <path d="M 10.8 393.339375 
L 34.8 393.339375 
L 34.8 384.939375 
L 10.8 384.939375 
z
" style="fill:#d62728;"/>
    </g>
    <g id="text_8">
     <!-- United Kingdom -->
     <g transform="translate(44.4 393.339375)scale(0.12 -0.12)">
      <defs>
       <path d="M 9.8125 72.90625 
L 19.671875 72.90625 
L 19.671875 42.09375 
L 52.390625 72.90625 
L 65.09375 72.90625 
L 28.90625 38.921875 
L 67.671875 0 
L 54.6875 0 
L 19.671875 35.109375 
L 19.671875 0 
L 9.8125 0 
z
" id="DejaVuSans-75"/>
       <path d="M 45.40625 27.984375 
Q 45.40625 37.75 41.375 43.109375 
Q 37.359375 48.484375 30.078125 48.484375 
Q 22.859375 48.484375 18.828125 43.109375 
Q 14.796875 37.75 14.796875 27.984375 
Q 14.796875 18.265625 18.828125 12.890625 
Q 22.859375 7.515625 30.078125 7.515625 
Q 37.359375 7.515625 41.375 12.890625 
Q 45.40625 18.265625 45.40625 27.984375 
z
M 54.390625 6.78125 
Q 54.390625 -7.171875 48.1875 -13.984375 
Q 42 -20.796875 29.203125 -20.796875 
Q 24.46875 -20.796875 20.265625 -20.09375 
Q 16.0625 -19.390625 12.109375 -17.921875 
L 12.109375 -9.1875 
Q 16.0625 -11.328125 19.921875 -12.34375 
Q 23.78125 -13.375 27.78125 -13.375 
Q 36.625 -13.375 41.015625 -8.765625 
Q 45.40625 -4.15625 45.40625 5.171875 
L 45.40625 9.625 
Q 42.625 4.78125 38.28125 2.390625 
Q 33.9375 0 27.875 0 
Q 17.828125 0 11.671875 7.65625 
Q 5.515625 15.328125 5.515625 27.984375 
Q 5.515625 40.671875 11.671875 48.328125 
Q 17.828125 56 27.875 56 
Q 33.9375 56 38.28125 53.609375 
Q 42.625 51.21875 45.40625 46.390625 
L 45.40625 54.6875 
L 54.390625 54.6875 
z
" id="DejaVuSans-103"/>
       <path d="M 30.609375 48.390625 
Q 23.390625 48.390625 19.1875 42.75 
Q 14.984375 37.109375 14.984375 27.296875 
Q 14.984375 17.484375 19.15625 11.84375 
Q 23.34375 6.203125 30.609375 6.203125 
Q 37.796875 6.203125 41.984375 11.859375 
Q 46.1875 17.53125 46.1875 27.296875 
Q 46.1875 37.015625 41.984375 42.703125 
Q 37.796875 48.390625 30.609375 48.390625 
z
M 30.609375 56 
Q 42.328125 56 49.015625 48.375 
Q 55.71875 40.765625 55.71875 27.296875 
Q 55.71875 13.875 49.015625 6.21875 
Q 42.328125 -1.421875 30.609375 -1.421875 
Q 18.84375 -1.421875 12.171875 6.21875 
Q 5.515625 13.875 5.515625 27.296875 
Q 5.515625 40.765625 12.171875 48.375 
Q 18.84375 56 30.609375 56 
z
" id="DejaVuSans-111"/>
      </defs>
      <use xlink:href="#DejaVuSans-85"/>
      <use x="73.193359" xlink:href="#DejaVuSans-110"/>
      <use x="136.572266" xlink:href="#DejaVuSans-105"/>
      <use x="164.355469" xlink:href="#DejaVuSans-116"/>
      <use x="203.564453" xlink:href="#DejaVuSans-101"/>
      <use x="265.087891" xlink:href="#DejaVuSans-100"/>
      <use x="328.564453" xlink:href="#DejaVuSans-32"/>
      <use x="360.351562" xlink:href="#DejaVuSans-75"/>
      <use x="425.927734" xlink:href="#DejaVuSans-105"/>
      <use x="453.710938" xlink:href="#DejaVuSans-110"/>
      <use x="517.089844" xlink:href="#DejaVuSans-103"/>
      <use x="580.566406" xlink:href="#DejaVuSans-100"/>
      <use x="644.042969" xlink:href="#DejaVuSans-111"/>
      <use x="705.224609" xlink:href="#DejaVuSans-109"/>
     </g>
    </g>
    <g id="patch_24">
     <path d="M 10.8 410.953125 
L 34.8 410.953125 
L 34.8 402.553125 
L 10.8 402.553125 
z
" style="fill:#9467bd;"/>
    </g>
    <g id="text_9">
     <!-- Japan -->
     <g transform="translate(44.4 410.953125)scale(0.12 -0.12)">
      <defs>
       <path d="M 9.8125 72.90625 
L 19.671875 72.90625 
L 19.671875 5.078125 
Q 19.671875 -8.109375 14.671875 -14.0625 
Q 9.671875 -20.015625 -1.421875 -20.015625 
L -5.171875 -20.015625 
L -5.171875 -11.71875 
L -2.09375 -11.71875 
Q 4.4375 -11.71875 7.125 -8.046875 
Q 9.8125 -4.390625 9.8125 5.078125 
z
" id="DejaVuSans-74"/>
       <path d="M 18.109375 8.203125 
L 18.109375 -20.796875 
L 9.078125 -20.796875 
L 9.078125 54.6875 
L 18.109375 54.6875 
L 18.109375 46.390625 
Q 20.953125 51.265625 25.265625 53.625 
Q 29.59375 56 35.59375 56 
Q 45.5625 56 51.78125 48.09375 
Q 58.015625 40.1875 58.015625 27.296875 
Q 58.015625 14.40625 51.78125 6.484375 
Q 45.5625 -1.421875 35.59375 -1.421875 
Q 29.59375 -1.421875 25.265625 0.953125 
Q 20.953125 3.328125 18.109375 8.203125 
z
M 48.6875 27.296875 
Q 48.6875 37.203125 44.609375 42.84375 
Q 40.53125 48.484375 33.40625 48.484375 
Q 26.265625 48.484375 22.1875 42.84375 
Q 18.109375 37.203125 18.109375 27.296875 
Q 18.109375 17.390625 22.1875 11.75 
Q 26.265625 6.109375 33.40625 6.109375 
Q 40.53125 6.109375 44.609375 11.75 
Q 48.6875 17.390625 48.6875 27.296875 
z
" id="DejaVuSans-112"/>
      </defs>
      <use xlink:href="#DejaVuSans-74"/>
      <use x="29.492188" xlink:href="#DejaVuSans-97"/>
      <use x="90.771484" xlink:href="#DejaVuSans-112"/>
      <use x="154.248047" xlink:href="#DejaVuSans-97"/>
      <use x="215.527344" xlink:href="#DejaVuSans-110"/>
     </g>
    </g>
    <g id="patch_25">
     <path d="M 10.8 428.566875 
L 34.8 428.566875 
L 34.8 420.166875 
L 10.8 420.166875 
z
" style="fill:#8c564b;"/>
    </g>
    <g id="text_10">
     <!-- Italy -->
     <g transform="translate(44.4 428.566875)scale(0.12 -0.12)">
      <defs>
       <path d="M 9.8125 72.90625 
L 19.671875 72.90625 
L 19.671875 0 
L 9.8125 0 
z
" id="DejaVuSans-73"/>
      </defs>
      <use xlink:href="#DejaVuSans-73"/>
      <use x="29.492188" xlink:href="#DejaVuSans-116"/>
      <use x="68.701172" xlink:href="#DejaVuSans-97"/>
      <use x="129.980469" xlink:href="#DejaVuSans-108"/>
      <use x="157.763672" xlink:href="#DejaVuSans-121"/>
     </g>
    </g>
    <g id="patch_26">
     <path d="M 164.716875 340.498125 
L 188.716875 340.498125 
L 188.716875 332.098125 
L 164.716875 332.098125 
z
" style="fill:#e377c2;"/>
    </g>
    <g id="text_11">
     <!-- France -->
     <g transform="translate(198.316875 340.498125)scale(0.12 -0.12)">
      <defs>
       <path d="M 9.8125 72.90625 
L 51.703125 72.90625 
L 51.703125 64.59375 
L 19.671875 64.59375 
L 19.671875 43.109375 
L 48.578125 43.109375 
L 48.578125 34.8125 
L 19.671875 34.8125 
L 19.671875 0 
L 9.8125 0 
z
" id="DejaVuSans-70"/>
       <path d="M 48.78125 52.59375 
L 48.78125 44.1875 
Q 44.96875 46.296875 41.140625 47.34375 
Q 37.3125 48.390625 33.40625 48.390625 
Q 24.65625 48.390625 19.8125 42.84375 
Q 14.984375 37.3125 14.984375 27.296875 
Q 14.984375 17.28125 19.8125 11.734375 
Q 24.65625 6.203125 33.40625 6.203125 
Q 37.3125 6.203125 41.140625 7.25 
Q 44.96875 8.296875 48.78125 10.40625 
L 48.78125 2.09375 
Q 45.015625 0.34375 40.984375 -0.53125 
Q 36.96875 -1.421875 32.421875 -1.421875 
Q 20.0625 -1.421875 12.78125 6.34375 
Q 5.515625 14.109375 5.515625 27.296875 
Q 5.515625 40.671875 12.859375 48.328125 
Q 20.21875 56 33.015625 56 
Q 37.15625 56 41.109375 55.140625 
Q 45.0625 54.296875 48.78125 52.59375 
z
" id="DejaVuSans-99"/>
      </defs>
      <use xlink:href="#DejaVuSans-70"/>
      <use x="50.269531" xlink:href="#DejaVuSans-114"/>
      <use x="91.382812" xlink:href="#DejaVuSans-97"/>
      <use x="152.662109" xlink:href="#DejaVuSans-110"/>
      <use x="216.041016" xlink:href="#DejaVuSans-99"/>
      <use x="271.021484" xlink:href="#DejaVuSans-101"/>
     </g>
    </g>
    <g id="patch_27">
     <path d="M 164.716875 358.111875 
L 188.716875 358.111875 
L 188.716875 349.711875 
L 164.716875 349.711875 
z
" style="fill:#7f7f7f;"/>
    </g>
    <g id="text_12">
     <!-- Czech Republic -->
     <g transform="translate(198.316875 358.111875)scale(0.12 -0.12)">
      <defs>
       <path d="M 64.40625 67.28125 
L 64.40625 56.890625 
Q 59.421875 61.53125 53.78125 63.8125 
Q 48.140625 66.109375 41.796875 66.109375 
Q 29.296875 66.109375 22.65625 58.46875 
Q 16.015625 50.828125 16.015625 36.375 
Q 16.015625 21.96875 22.65625 14.328125 
Q 29.296875 6.6875 41.796875 6.6875 
Q 48.140625 6.6875 53.78125 8.984375 
Q 59.421875 11.28125 64.40625 15.921875 
L 64.40625 5.609375 
Q 59.234375 2.09375 53.4375 0.328125 
Q 47.65625 -1.421875 41.21875 -1.421875 
Q 24.65625 -1.421875 15.125 8.703125 
Q 5.609375 18.84375 5.609375 36.375 
Q 5.609375 53.953125 15.125 64.078125 
Q 24.65625 74.21875 41.21875 74.21875 
Q 47.75 74.21875 53.53125 72.484375 
Q 59.328125 70.75 64.40625 67.28125 
z
" id="DejaVuSans-67"/>
       <path d="M 54.890625 33.015625 
L 54.890625 0 
L 45.90625 0 
L 45.90625 32.71875 
Q 45.90625 40.484375 42.875 44.328125 
Q 39.84375 48.1875 33.796875 48.1875 
Q 26.515625 48.1875 22.3125 43.546875 
Q 18.109375 38.921875 18.109375 30.90625 
L 18.109375 0 
L 9.078125 0 
L 9.078125 75.984375 
L 18.109375 75.984375 
L 18.109375 46.1875 
Q 21.34375 51.125 25.703125 53.5625 
Q 30.078125 56 35.796875 56 
Q 45.21875 56 50.046875 50.171875 
Q 54.890625 44.34375 54.890625 33.015625 
z
" id="DejaVuSans-104"/>
       <path d="M 44.390625 34.1875 
Q 47.5625 33.109375 50.5625 29.59375 
Q 53.5625 26.078125 56.59375 19.921875 
L 66.609375 0 
L 56 0 
L 46.6875 18.703125 
Q 43.0625 26.03125 39.671875 28.421875 
Q 36.28125 30.8125 30.421875 30.8125 
L 19.671875 30.8125 
L 19.671875 0 
L 9.8125 0 
L 9.8125 72.90625 
L 32.078125 72.90625 
Q 44.578125 72.90625 50.734375 67.671875 
Q 56.890625 62.453125 56.890625 51.90625 
Q 56.890625 45.015625 53.6875 40.46875 
Q 50.484375 35.9375 44.390625 34.1875 
z
M 19.671875 64.796875 
L 19.671875 38.921875 
L 32.078125 38.921875 
Q 39.203125 38.921875 42.84375 42.21875 
Q 46.484375 45.515625 46.484375 51.90625 
Q 46.484375 58.296875 42.84375 61.546875 
Q 39.203125 64.796875 32.078125 64.796875 
z
" id="DejaVuSans-82"/>
       <path d="M 8.5 21.578125 
L 8.5 54.6875 
L 17.484375 54.6875 
L 17.484375 21.921875 
Q 17.484375 14.15625 20.5 10.265625 
Q 23.53125 6.390625 29.59375 6.390625 
Q 36.859375 6.390625 41.078125 11.03125 
Q 45.3125 15.671875 45.3125 23.6875 
L 45.3125 54.6875 
L 54.296875 54.6875 
L 54.296875 0 
L 45.3125 0 
L 45.3125 8.40625 
Q 42.046875 3.421875 37.71875 1 
Q 33.40625 -1.421875 27.6875 -1.421875 
Q 18.265625 -1.421875 13.375 4.4375 
Q 8.5 10.296875 8.5 21.578125 
z
M 31.109375 56 
z
" id="DejaVuSans-117"/>
       <path d="M 48.6875 27.296875 
Q 48.6875 37.203125 44.609375 42.84375 
Q 40.53125 48.484375 33.40625 48.484375 
Q 26.265625 48.484375 22.1875 42.84375 
Q 18.109375 37.203125 18.109375 27.296875 
Q 18.109375 17.390625 22.1875 11.75 
Q 26.265625 6.109375 33.40625 6.109375 
Q 40.53125 6.109375 44.609375 11.75 
Q 48.6875 17.390625 48.6875 27.296875 
z
M 18.109375 46.390625 
Q 20.953125 51.265625 25.265625 53.625 
Q 29.59375 56 35.59375 56 
Q 45.5625 56 51.78125 48.09375 
Q 58.015625 40.1875 58.015625 27.296875 
Q 58.015625 14.40625 51.78125 6.484375 
Q 45.5625 -1.421875 35.59375 -1.421875 
Q 29.59375 -1.421875 25.265625 0.953125 
Q 20.953125 3.328125 18.109375 8.203125 
L 18.109375 0 
L 9.078125 0 
L 9.078125 75.984375 
L 18.109375 75.984375 
z
" id="DejaVuSans-98"/>
      </defs>
      <use xlink:href="#DejaVuSans-67"/>
      <use x="69.824219" xlink:href="#DejaVuSans-122"/>
      <use x="122.314453" xlink:href="#DejaVuSans-101"/>
      <use x="183.837891" xlink:href="#DejaVuSans-99"/>
      <use x="238.818359" xlink:href="#DejaVuSans-104"/>
      <use x="302.197266" xlink:href="#DejaVuSans-32"/>
      <use x="333.984375" xlink:href="#DejaVuSans-82"/>
      <use x="398.966797" xlink:href="#DejaVuSans-101"/>
      <use x="460.490234" xlink:href="#DejaVuSans-112"/>
      <use x="523.966797" xlink:href="#DejaVuSans-117"/>
      <use x="587.345703" xlink:href="#DejaVuSans-98"/>
      <use x="650.822266" xlink:href="#DejaVuSans-108"/>
      <use x="678.605469" xlink:href="#DejaVuSans-105"/>
      <use x="706.388672" xlink:href="#DejaVuSans-99"/>
     </g>
    </g>
    <g id="patch_28">
     <path d="M 164.716875 375.725625 
L 188.716875 375.725625 
L 188.716875 367.325625 
L 164.716875 367.325625 
z
" style="fill:#bcbd22;"/>
    </g>
    <g id="text_13">
     <!-- Canada -->
     <g transform="translate(198.316875 375.725625)scale(0.12 -0.12)">
      <use xlink:href="#DejaVuSans-67"/>
      <use x="69.824219" xlink:href="#DejaVuSans-97"/>
      <use x="131.103516" xlink:href="#DejaVuSans-110"/>
      <use x="194.482422" xlink:href="#DejaVuSans-97"/>
      <use x="255.761719" xlink:href="#DejaVuSans-100"/>
      <use x="319.238281" xlink:href="#DejaVuSans-97"/>
     </g>
    </g>
    <g id="patch_29">
     <path d="M 164.716875 393.339375 
L 188.716875 393.339375 
L 188.716875 384.939375 
L 164.716875 384.939375 
z
" style="fill:#17becf;"/>
    </g>
    <g id="text_14">
     <!-- Sweden -->
     <g transform="translate(198.316875 393.339375)scale(0.12 -0.12)">
      <use xlink:href="#DejaVuSans-83"/>
      <use x="63.476562" xlink:href="#DejaVuSans-119"/>
      <use x="145.263672" xlink:href="#DejaVuSans-101"/>
      <use x="206.787109" xlink:href="#DejaVuSans-100"/>
      <use x="270.263672" xlink:href="#DejaVuSans-101"/>
      <use x="331.787109" xlink:href="#DejaVuSans-110"/>
     </g>
    </g>
    <g id="patch_30">
     <path d="M 164.716875 410.953125 
L 188.716875 410.953125 
L 188.716875 402.553125 
L 164.716875 402.553125 
z
" style="fill:#1f77b4;"/>
    </g>
    <g id="text_15">
     <!-- Spain -->
     <g transform="translate(198.316875 410.953125)scale(0.12 -0.12)">
      <use xlink:href="#DejaVuSans-83"/>
      <use x="63.476562" xlink:href="#DejaVuSans-112"/>
      <use x="126.953125" xlink:href="#DejaVuSans-97"/>
      <use x="188.232422" xlink:href="#DejaVuSans-105"/>
      <use x="216.015625" xlink:href="#DejaVuSans-110"/>
     </g>
    </g>
    <g id="patch_31">
     <path d="M 164.716875 428.566875 
L 188.716875 428.566875 
L 188.716875 420.166875 
L 164.716875 420.166875 
z
" style="fill:#ff7f0e;"/>
    </g>
    <g id="text_16">
     <!-- Saudi Arabia -->
     <g transform="translate(198.316875 428.566875)scale(0.12 -0.12)">
      <use xlink:href="#DejaVuSans-83"/>
      <use x="63.476562" xlink:href="#DejaVuSans-97"/>
      <use x="124.755859" xlink:href="#DejaVuSans-117"/>
      <use x="188.134766" xlink:href="#DejaVuSans-100"/>
      <use x="251.611328" xlink:href="#DejaVuSans-105"/>
      <use x="279.394531" xlink:href="#DejaVuSans-32"/>
      <use x="311.181641" xlink:href="#DejaVuSans-65"/>
      <use x="379.589844" xlink:href="#DejaVuSans-114"/>
      <use x="420.703125" xlink:href="#DejaVuSans-97"/>
      <use x="481.982422" xlink:href="#DejaVuSans-98"/>
      <use x="545.458984" xlink:href="#DejaVuSans-105"/>
      <use x="573.242188" xlink:href="#DejaVuSans-97"/>
     </g>
    </g>
    <g id="patch_32">
     <path d="M 313.68375 340.498125 
L 337.68375 340.498125 
L 337.68375 332.098125 
L 313.68375 332.098125 
z
" style="fill:#2ca02c;"/>
    </g>
    <g id="text_17">
     <!-- Hungary -->
     <g transform="translate(347.28375 340.498125)scale(0.12 -0.12)">
      <defs>
       <path d="M 9.8125 72.90625 
L 19.671875 72.90625 
L 19.671875 43.015625 
L 55.515625 43.015625 
L 55.515625 72.90625 
L 65.375 72.90625 
L 65.375 0 
L 55.515625 0 
L 55.515625 34.71875 
L 19.671875 34.71875 
L 19.671875 0 
L 9.8125 0 
z
" id="DejaVuSans-72"/>
      </defs>
      <use xlink:href="#DejaVuSans-72"/>
      <use x="75.195312" xlink:href="#DejaVuSans-117"/>
      <use x="138.574219" xlink:href="#DejaVuSans-110"/>
      <use x="201.953125" xlink:href="#DejaVuSans-103"/>
      <use x="265.429688" xlink:href="#DejaVuSans-97"/>
      <use x="326.708984" xlink:href="#DejaVuSans-114"/>
      <use x="367.822266" xlink:href="#DejaVuSans-121"/>
     </g>
    </g>
    <g id="patch_33">
     <path d="M 313.68375 358.111875 
L 337.68375 358.111875 
L 337.68375 349.711875 
L 313.68375 349.711875 
z
" style="fill:#d62728;"/>
    </g>
    <g id="text_18">
     <!-- Singapore -->
     <g transform="translate(347.28375 358.111875)scale(0.12 -0.12)">
      <use xlink:href="#DejaVuSans-83"/>
      <use x="63.476562" xlink:href="#DejaVuSans-105"/>
      <use x="91.259766" xlink:href="#DejaVuSans-110"/>
      <use x="154.638672" xlink:href="#DejaVuSans-103"/>
      <use x="218.115234" xlink:href="#DejaVuSans-97"/>
      <use x="279.394531" xlink:href="#DejaVuSans-112"/>
      <use x="342.871094" xlink:href="#DejaVuSans-111"/>
      <use x="404.052734" xlink:href="#DejaVuSans-114"/>
      <use x="442.916016" xlink:href="#DejaVuSans-101"/>
     </g>
    </g>
    <g id="patch_34">
     <path d="M 313.68375 375.725625 
L 337.68375 375.725625 
L 337.68375 367.325625 
L 313.68375 367.325625 
z
" style="fill:#9467bd;"/>
    </g>
    <g id="text_19">
     <!-- Norway -->
     <g transform="translate(347.28375 375.725625)scale(0.12 -0.12)">
      <defs>
       <path d="M 9.8125 72.90625 
L 23.09375 72.90625 
L 55.421875 11.921875 
L 55.421875 72.90625 
L 64.984375 72.90625 
L 64.984375 0 
L 51.703125 0 
L 19.390625 60.984375 
L 19.390625 0 
L 9.8125 0 
z
" id="DejaVuSans-78"/>
      </defs>
      <use xlink:href="#DejaVuSans-78"/>
      <use x="74.804688" xlink:href="#DejaVuSans-111"/>
      <use x="135.986328" xlink:href="#DejaVuSans-114"/>
      <use x="177.099609" xlink:href="#DejaVuSans-119"/>
      <use x="258.886719" xlink:href="#DejaVuSans-97"/>
      <use x="320.166016" xlink:href="#DejaVuSans-121"/>
     </g>
    </g>
    <g id="patch_35">
     <path d="M 313.68375 393.339375 
L 337.68375 393.339375 
L 337.68375 384.939375 
L 313.68375 384.939375 
z
" style="fill:#8c564b;"/>
    </g>
    <g id="text_20">
     <!-- Argentina -->
     <g transform="translate(347.28375 393.339375)scale(0.12 -0.12)">
      <use xlink:href="#DejaVuSans-65"/>
      <use x="68.408203" xlink:href="#DejaVuSans-114"/>
      <use x="107.771484" xlink:href="#DejaVuSans-103"/>
      <use x="171.248047" xlink:href="#DejaVuSans-101"/>
      <use x="232.771484" xlink:href="#DejaVuSans-110"/>
      <use x="296.150391" xlink:href="#DejaVuSans-116"/>
      <use x="335.359375" xlink:href="#DejaVuSans-105"/>
      <use x="363.142578" xlink:href="#DejaVuSans-110"/>
      <use x="426.521484" xlink:href="#DejaVuSans-97"/>
     </g>
    </g>
    <g id="patch_36">
     <path d="M 313.68375 410.953125 
L 337.68375 410.953125 
L 337.68375 402.553125 
L 313.68375 402.553125 
z
" style="fill:#e377c2;"/>
    </g>
    <g id="text_21">
     <!-- Ireland -->
     <g transform="translate(347.28375 410.953125)scale(0.12 -0.12)">
      <use xlink:href="#DejaVuSans-73"/>
      <use x="29.492188" xlink:href="#DejaVuSans-114"/>
      <use x="68.355469" xlink:href="#DejaVuSans-101"/>
      <use x="129.878906" xlink:href="#DejaVuSans-108"/>
      <use x="157.662109" xlink:href="#DejaVuSans-97"/>
      <use x="218.941406" xlink:href="#DejaVuSans-110"/>
      <use x="282.320312" xlink:href="#DejaVuSans-100"/>
     </g>
    </g>
    <g id="patch_37">
     <path d="M 313.68375 428.566875 
L 337.68375 428.566875 
L 337.68375 420.166875 
L 313.68375 420.166875 
z
" style="fill:#7f7f7f;"/>
    </g>
    <g id="text_22">
     <!-- India -->
     <g transform="translate(347.28375 428.566875)scale(0.12 -0.12)">
      <use xlink:href="#DejaVuSans-73"/>
      <use x="29.492188" xlink:href="#DejaVuSans-110"/>
      <use x="92.871094" xlink:href="#DejaVuSans-100"/>
      <use x="156.347656" xlink:href="#DejaVuSans-105"/>
      <use x="184.130859" xlink:href="#DejaVuSans-97"/>
     </g>
    </g>
   </g>
  </g>
  <g id="axes_2">
   <g id="patch_38">
    <path d="M 521.812812 184.121065 
C 521.812812 170.315016 519.183024 156.634484 514.064339 143.812393 
C 508.945653 130.990301 501.431142 119.259791 491.923388 109.249317 
C 482.415635 99.238843 471.087517 91.130422 458.54593 85.358458 
C 446.004343 79.586494 432.477328 76.255936 418.689585 75.545218 
C 404.901842 74.834499 391.104071 76.756542 378.035477 81.208375 
C 364.966882 85.660208 352.865089 92.560884 342.37844 101.540704 
C 331.891791 110.520524 323.210964 121.41621 316.801027 133.644034 
C 310.39109 145.871858 306.368594 159.209484 304.949042 172.942359 
C 303.529489 186.675233 304.738691 200.553655 308.511866 213.834096 
C 312.285041 227.114538 318.553581 239.555524 326.981655 250.490539 
C 335.409728 261.425553 345.844089 270.655767 357.725725 277.686679 
C 369.60736 284.71759 382.720228 289.421357 396.361818 291.545979 
C 410.003407 293.670601 423.925675 293.177447 437.382746 290.092936 
C 450.839817 287.008425 463.587005 281.388643 474.941387 273.534666 
C 486.29577 265.680688 496.050894 255.735322 503.684135 244.231384 
C 511.317376 232.727445 516.689941 219.874108 519.513999 206.359979 
L 413.092812 184.121065 
L 521.812812 184.121065 
z
" style="fill:#1f77b4;"/>
   </g>
   <g id="patch_39">
    <path d="M 530.292433 207.755464 
C 530.674233 205.928412 531.00892 204.091831 531.29616 202.247548 
C 531.583399 200.403264 531.823097 198.551889 532.015015 196.695263 
L 423.871246 185.51655 
L 530.292433 207.755464 
z
" style="fill:#ff7f0e;"/>
   </g>
   <g id="patch_40">
    <path d="M 532.050957 196.417649 
C 532.050957 196.417649 532.050957 196.417649 532.050957 196.417649 
L 423.907188 185.238936 
L 532.050957 196.417649 
z
" style="fill:#2ca02c;"/>
   </g>
   <g id="patch_41">
    <path d="M 532.072561 196.138553 
C 532.264479 194.281927 532.408552 192.420668 532.504639 190.556624 
C 532.600725 188.692581 532.648792 186.826373 532.648792 184.959855 
L 423.928792 184.959839 
L 532.072561 196.138553 
z
" style="fill:#d62728;"/>
   </g>
   <g id="patch_42">
    <path d="M 532.656 184.680016 
C 532.656 184.680016 532.656 184.680016 532.656 184.680016 
L 423.936 184.680001 
L 532.656 184.680016 
z
" style="fill:#9467bd;"/>
   </g>
   <g id="patch_43">
    <path d="M 532.656 184.680016 
C 532.656 184.680016 532.656 184.680016 532.656 184.680016 
L 423.936 184.680001 
L 532.656 184.680016 
z
" style="fill:#8c564b;"/>
   </g>
   <g id="patch_44">
    <path d="M 532.656 184.680016 
C 532.656 184.680016 532.656 184.680016 532.656 184.680016 
L 423.936 184.680001 
L 532.656 184.680016 
z
" style="fill:#e377c2;"/>
   </g>
   <g id="patch_45">
    <path d="M 532.656 184.680016 
C 532.656 184.680016 532.656 184.680016 532.656 184.680016 
L 423.936 184.680001 
L 532.656 184.680016 
z
" style="fill:#7f7f7f;"/>
   </g>
   <g id="patch_46">
    <path d="M 532.656 184.680016 
C 532.656 184.680016 532.656 184.680016 532.656 184.680016 
L 423.936 184.680001 
L 532.656 184.680016 
z
" style="fill:#bcbd22;"/>
   </g>
   <g id="patch_47">
    <path d="M 532.656 184.680016 
C 532.656 184.680016 532.656 184.680016 532.656 184.680016 
L 423.936 184.680001 
L 532.656 184.680016 
z
" style="fill:#17becf;"/>
   </g>
   <g id="patch_48">
    <path d="M 532.656 184.680016 
C 532.656 184.680016 532.656 184.680016 532.656 184.680016 
L 423.936 184.680001 
L 532.656 184.680016 
z
" style="fill:#1f77b4;"/>
   </g>
   <g id="patch_49">
    <path d="M 532.656 184.680016 
C 532.656 184.680016 532.656 184.680016 532.656 184.680016 
L 423.936 184.680001 
L 532.656 184.680016 
z
" style="fill:#ff7f0e;"/>
   </g>
   <g id="patch_50">
    <path d="M 532.656 184.680016 
C 532.656 184.680016 532.656 184.680016 532.656 184.680016 
L 423.936 184.680001 
L 532.656 184.680016 
z
" style="fill:#2ca02c;"/>
   </g>
   <g id="patch_51">
    <path d="M 532.656 184.680016 
C 532.656 184.680016 532.656 184.680016 532.656 184.680016 
L 423.936 184.680001 
L 532.656 184.680016 
z
" style="fill:#d62728;"/>
   </g>
   <g id="patch_52">
    <path d="M 532.656 184.680016 
C 532.656 184.680016 532.656 184.680016 532.656 184.680016 
L 423.936 184.680001 
L 532.656 184.680016 
z
" style="fill:#9467bd;"/>
   </g>
   <g id="patch_53">
    <path d="M 532.656 184.680016 
C 532.656 184.680016 532.656 184.680016 532.656 184.680016 
L 423.936 184.680001 
L 532.656 184.680016 
z
" style="fill:#8c564b;"/>
   </g>
   <g id="patch_54">
    <path d="M 532.656 184.680016 
C 532.656 184.680016 532.656 184.680016 532.656 184.680016 
L 423.936 184.680001 
L 532.656 184.680016 
z
" style="fill:#e377c2;"/>
   </g>
   <g id="patch_55">
    <path d="M 532.656 184.680016 
C 532.656 184.680016 532.656 184.680016 532.656 184.680016 
L 423.936 184.680001 
L 532.656 184.680016 
z
" style="fill:#7f7f7f;"/>
   </g>
   <g id="matplotlib.axis_3"/>
   <g id="matplotlib.axis_4"/>
   <g id="text_23">
    <!-- 96.7% -->
    <g style="fill:#ffffff;" transform="translate(318.33186 179.607221)scale(0.12 -0.12)">
     <defs>
      <path d="M 8.203125 72.90625 
L 55.078125 72.90625 
L 55.078125 68.703125 
L 28.609375 0 
L 18.3125 0 
L 43.21875 64.59375 
L 8.203125 64.59375 
z
" id="DejaVuSans-55"/>
     </defs>
     <use xlink:href="#DejaVuSans-57"/>
     <use x="63.623047" xlink:href="#DejaVuSans-54"/>
     <use x="127.246094" xlink:href="#DejaVuSans-46"/>
     <use x="159.033203" xlink:href="#DejaVuSans-55"/>
     <use x="222.65625" xlink:href="#DejaVuSans-37"/>
    </g>
   </g>
   <g id="text_24">
    <!-- ECP -->
    <g transform="translate(406.90125 42.78)scale(0.12 -0.12)">
     <defs>
      <path d="M 9.8125 72.90625 
L 55.90625 72.90625 
L 55.90625 64.59375 
L 19.671875 64.59375 
L 19.671875 43.015625 
L 54.390625 43.015625 
L 54.390625 34.71875 
L 19.671875 34.71875 
L 19.671875 8.296875 
L 56.78125 8.296875 
L 56.78125 0 
L 9.8125 0 
z
" id="DejaVuSans-69"/>
      <path d="M 19.671875 64.796875 
L 19.671875 37.40625 
L 32.078125 37.40625 
Q 38.96875 37.40625 42.71875 40.96875 
Q 46.484375 44.53125 46.484375 51.125 
Q 46.484375 57.671875 42.71875 61.234375 
Q 38.96875 64.796875 32.078125 64.796875 
z
M 9.8125 72.90625 
L 32.078125 72.90625 
Q 44.34375 72.90625 50.609375 67.359375 
Q 56.890625 61.8125 56.890625 51.125 
Q 56.890625 40.328125 50.609375 34.8125 
Q 44.34375 29.296875 32.078125 29.296875 
L 19.671875 29.296875 
L 19.671875 0 
L 9.8125 0 
z
" id="DejaVuSans-80"/>
     </defs>
     <use xlink:href="#DejaVuSans-69"/>
     <use x="63.183594" xlink:href="#DejaVuSans-67"/>
     <use x="133.007812" xlink:href="#DejaVuSans-80"/>
    </g>
   </g>
  </g>
  <g id="text_25">
   <!-- What country are you in? -->
   <g transform="translate(201.48375 9.118125)scale(0.12 -0.12)">
    <defs>
     <path d="M 3.328125 72.90625 
L 13.28125 72.90625 
L 28.609375 11.28125 
L 43.890625 72.90625 
L 54.984375 72.90625 
L 70.3125 11.28125 
L 85.59375 72.90625 
L 95.609375 72.90625 
L 77.296875 0 
L 64.890625 0 
L 49.515625 63.28125 
L 33.984375 0 
L 21.578125 0 
z
" id="DejaVuSans-87"/>
     <path d="M 19.09375 12.40625 
L 29 12.40625 
L 29 0 
L 19.09375 0 
z
M 28.71875 19.578125 
L 19.390625 19.578125 
L 19.390625 27.09375 
Q 19.390625 32.03125 20.75 35.203125 
Q 22.125 38.375 26.515625 42.578125 
L 30.90625 46.921875 
Q 33.6875 49.515625 34.9375 51.8125 
Q 36.1875 54.109375 36.1875 56.5 
Q 36.1875 60.84375 32.984375 63.53125 
Q 29.78125 66.21875 24.515625 66.21875 
Q 20.65625 66.21875 16.28125 64.5 
Q 11.921875 62.796875 7.171875 59.515625 
L 7.171875 68.703125 
Q 11.765625 71.484375 16.46875 72.84375 
Q 21.1875 74.21875 26.21875 74.21875 
Q 35.203125 74.21875 40.640625 69.484375 
Q 46.09375 64.75 46.09375 56.984375 
Q 46.09375 53.265625 44.328125 49.921875 
Q 42.578125 46.578125 38.1875 42.390625 
L 33.890625 38.1875 
Q 31.59375 35.890625 30.640625 34.59375 
Q 29.6875 33.296875 29.296875 32.078125 
Q 29 31.0625 28.859375 29.59375 
Q 28.71875 28.125 28.71875 25.59375 
z
" id="DejaVuSans-63"/>
    </defs>
    <use xlink:href="#DejaVuSans-87"/>
    <use x="98.876953" xlink:href="#DejaVuSans-104"/>
    <use x="162.255859" xlink:href="#DejaVuSans-97"/>
    <use x="223.535156" xlink:href="#DejaVuSans-116"/>
    <use x="262.744141" xlink:href="#DejaVuSans-32"/>
    <use x="294.53125" xlink:href="#DejaVuSans-99"/>
    <use x="349.511719" xlink:href="#DejaVuSans-111"/>
    <use x="410.693359" xlink:href="#DejaVuSans-117"/>
    <use x="474.072266" xlink:href="#DejaVuSans-110"/>
    <use x="537.451172" xlink:href="#DejaVuSans-116"/>
    <use x="576.660156" xlink:href="#DejaVuSans-114"/>
    <use x="617.773438" xlink:href="#DejaVuSans-121"/>
    <use x="676.953125" xlink:href="#DejaVuSans-32"/>
    <use x="708.740234" xlink:href="#DejaVuSans-97"/>
    <use x="770.019531" xlink:href="#DejaVuSans-114"/>
    <use x="808.882812" xlink:href="#DejaVuSans-101"/>
    <use x="870.40625" xlink:href="#DejaVuSans-32"/>
    <use x="902.193359" xlink:href="#DejaVuSans-121"/>
    <use x="961.373047" xlink:href="#DejaVuSans-111"/>
    <use x="1022.554688" xlink:href="#DejaVuSans-117"/>
    <use x="1085.933594" xlink:href="#DejaVuSans-32"/>
    <use x="1117.720703" xlink:href="#DejaVuSans-105"/>
    <use x="1145.503906" xlink:href="#DejaVuSans-110"/>
    <use x="1208.882812" xlink:href="#DejaVuSans-63"/>
   </g>
  </g>
 </g>
</svg>
